# Blender 4.1.0
# www.blender.org
mtllib Weight.mtl
o Body
v -2.500000 0.000000 2.500000
v -2.500000 5.000000 2.500000
v -2.500000 0.000000 -2.500000
v -2.500000 5.000000 -2.500000
v 2.500000 0.000000 2.500000
v 2.500000 5.000000 2.500000
v 2.500000 0.000000 -2.500000
v 2.500000 5.000000 -2.500000
v -2.000000 4.500000 -2.500000
v -2.000000 0.500000 -2.500000
v 2.000000 0.500000 -2.500000
v 2.000000 4.500000 -2.500000
v 2.500000 4.500000 -2.000000
v 2.500000 0.500000 -2.000000
v 2.500000 0.500000 2.000000
v 2.500000 4.500000 2.000000
v -2.000000 0.500000 2.500000
v -2.000000 4.500000 2.500000
v 2.000000 4.500000 2.500000
v 2.000000 0.500000 2.500000
v -2.500000 0.500000 -2.000000
v -2.500000 0.500000 2.000000
v -2.500000 4.500000 2.000000
v -2.500000 4.500000 -2.000000
v -2.000000 4.500000 -2.400000
v -2.000000 0.500000 -2.400000
v 2.000000 0.500000 -2.400000
v 2.000000 4.500000 -2.400000
v 2.400000 4.500000 -2.000000
v 2.400000 0.500000 -2.000000
v 2.400000 0.500000 2.000000
v 2.400000 4.500000 2.000000
v -2.000000 0.500000 2.400000
v -2.000000 4.500000 2.400000
v 2.000000 4.500000 2.400000
v 2.000000 0.500000 2.400000
v -2.400000 0.500000 -2.000000
v -2.400000 0.500000 2.000000
v -2.400000 4.500000 2.000000
v -2.400000 4.500000 -2.000000
vn -1.0000 -0.0000 -0.0000
vn -0.0000 -0.0000 -1.0000
vn 1.0000 -0.0000 -0.0000
vn -0.0000 -0.0000 1.0000
vn -0.0000 -1.0000 -0.0000
vn -0.0000 1.0000 -0.0000
vt 0.375000 0.000000
vt 0.625000 0.000000
vt 0.625000 0.500000
vt 0.375000 0.500000
vt 0.625000 0.750000
vt 0.125000 0.750000
vt 0.125000 0.500000
vt 0.875000 0.500000
vt 0.625000 0.250000
vt 0.375000 0.250000
vt 0.375000 0.750000
vt 0.875000 0.750000
vt 0.375000 1.000000
vt 0.625000 1.000000
s 0
usemtl Steel
f 1/1/1 23/2/1 22/1/1
f 8/3/2 11/4/2 12/3/2
f 8/3/3 16/5/3 13/3/3
f 2/2/4 17/1/4 18/2/4
f 7/4/5 1/6/5 3/7/5
f 4/8/6 6/5/6 8/3/6
f 9/9/3 26/10/3 10/10/3
f 7/4/2 10/7/2 11/4/2
f 4/8/2 12/3/2 9/8/2
f 3/10/2 9/9/2 10/10/2
f 15/11/2 32/5/2 16/5/2
f 7/4/3 13/3/3 14/4/3
f 6/5/3 15/11/3 16/5/3
f 5/11/3 14/4/3 15/11/3
f 20/11/6 33/6/6 17/6/6
f 1/6/4 20/11/4 17/6/4
f 6/5/4 18/12/4 19/5/4
f 5/11/4 19/5/4 20/11/4
f 21/10/4 40/9/4 24/9/4
f 2/12/1 24/8/1 23/12/1
f 3/7/1 22/6/1 21/7/1
f 4/9/1 21/10/1 24/9/1
f 25/9/2 27/4/2 26/10/2
f 11/4/1 28/3/1 12/3/1
f 10/7/6 27/4/6 11/4/6
f 12/3/5 25/8/5 9/8/5
f 29/3/3 31/11/3 30/4/3
f 14/4/6 31/11/6 15/11/6
f 16/5/5 29/3/5 13/3/5
f 13/3/4 30/4/4 14/4/4
f 35/5/4 33/13/4 36/11/4
f 17/1/3 34/2/3 18/2/3
f 18/12/5 35/5/5 19/5/5
f 19/5/1 36/11/1 20/11/1
f 39/2/1 37/10/1 38/1/1
f 23/2/2 38/1/2 22/1/2
f 24/8/5 39/12/5 23/12/5
f 22/6/6 37/7/6 21/7/6
f 1/1/1 2/2/1 23/2/1
f 8/3/2 7/4/2 11/4/2
f 8/3/3 6/5/3 16/5/3
f 2/2/4 1/1/4 17/1/4
f 7/4/5 5/11/5 1/6/5
f 4/8/6 2/12/6 6/5/6
f 9/9/3 25/9/3 26/10/3
f 7/4/2 3/7/2 10/7/2
f 4/8/2 8/3/2 12/3/2
f 3/10/2 4/9/2 9/9/2
f 15/11/2 31/11/2 32/5/2
f 7/4/3 8/3/3 13/3/3
f 6/5/3 5/11/3 15/11/3
f 5/11/3 7/4/3 14/4/3
f 20/11/6 36/11/6 33/6/6
f 1/6/4 5/11/4 20/11/4
f 6/5/4 2/12/4 18/12/4
f 5/11/4 6/5/4 19/5/4
f 21/10/4 37/10/4 40/9/4
f 2/12/1 4/8/1 24/8/1
f 3/7/1 1/6/1 22/6/1
f 4/9/1 3/10/1 21/10/1
f 25/9/2 28/3/2 27/4/2
f 11/4/1 27/4/1 28/3/1
f 10/7/6 26/7/6 27/4/6
f 12/3/5 28/3/5 25/8/5
f 29/3/3 32/5/3 31/11/3
f 14/4/6 30/4/6 31/11/6
f 16/5/5 32/5/5 29/3/5
f 13/3/4 29/3/4 30/4/4
f 35/5/4 34/14/4 33/13/4
f 17/1/3 33/1/3 34/2/3
f 18/12/5 34/12/5 35/5/5
f 19/5/1 35/5/1 36/11/1
f 39/2/1 40/9/1 37/10/1
f 23/2/2 39/2/2 38/1/2
f 24/8/5 40/8/5 39/12/5
f 22/6/6 38/6/6 37/7/6
o Handle
v -1.250000 6.050000 0.312500
v -1.250000 6.050000 -0.312500
v 1.250000 6.050000 0.312500
v 1.250000 6.050000 -0.312500
v -0.825000 6.050000 -0.312500
v 0.825000 6.050000 -0.312500
v 0.825000 6.050000 0.312500
v -0.825000 6.050000 0.312500
v -1.250000 5.000000 0.312500
v -1.250000 5.750000 0.312500
v -1.250000 5.750000 -0.312500
v -1.250000 5.000000 -0.312500
v 1.250000 5.750000 -0.312500
v 1.250000 5.000000 -0.312500
v 1.250000 5.750000 0.312500
v 1.250000 5.000000 0.312500
v 0.825000 5.750000 0.312500
v 0.825000 5.000000 0.312500
v -0.825000 5.750000 0.312500
v -0.825000 5.000000 0.312500
v -0.825000 5.750000 -0.312500
v -0.825000 5.000000 -0.312500
v 0.825000 5.750000 -0.312500
v 0.825000 5.000000 -0.312500
vn -1.0000 -0.0000 -0.0000
vn -0.0000 -0.0000 -1.0000
vn 1.0000 -0.0000 -0.0000
vn -0.0000 -0.0000 1.0000
vn -0.0000 1.0000 -0.0000
vn -0.0000 -1.0000 -0.0000
vt 0.625000 0.000000
vt 0.575000 0.250000
vt 0.575000 0.000000
vt 0.625000 0.437500
vt 0.575000 0.500000
vt 0.575000 0.437500
vt 0.625000 0.500000
vt 0.575000 0.750000
vt 0.625000 0.937500
vt 0.575000 1.000000
vt 0.575000 0.937500
vt 0.875000 0.500000
vt 0.812500 0.750000
vt 0.812500 0.500000
vt 0.687500 0.500000
vt 0.625000 0.750000
vt 0.575000 0.812500
vt 0.625000 0.812500
vt 0.575000 0.312500
vt 0.625000 0.312500
vt 0.625000 0.250000
vt 0.475000 0.250000
vt 0.475000 0.500000
vt 0.475000 0.437500
vt 0.475000 0.812500
vt 0.475000 0.750000
vt 0.475000 0.937500
vt 0.475000 0.000000
vt 0.475000 0.312500
vt 0.625000 1.000000
vt 0.875000 0.750000
vt 0.687500 0.750000
vt 0.475000 1.000000
s 0
usemtl Steel
f 41/15/7 51/16/7 50/17/7
f 46/18/8 53/19/8 63/20/8
f 44/21/9 55/22/9 53/19/9
f 48/23/10 50/24/10 59/25/10
f 42/26/11 48/27/11 45/28/11
f 46/29/11 43/30/11 44/21/11
f 48/23/10 57/31/10 47/32/10
f 43/30/10 57/31/10 55/22/10
f 46/18/8 61/33/8 45/34/8
f 42/35/8 61/33/8 51/16/8
f 57/31/12 61/33/12 63/20/12
f 61/33/8 52/36/8 51/16/8
f 63/20/8 54/37/8 64/38/8
f 55/22/10 58/39/10 56/40/10
f 50/24/10 60/41/10 59/25/10
f 50/17/7 52/36/7 49/42/7
f 53/19/9 56/40/9 54/37/9
f 62/43/9 59/25/9 60/41/9
f 57/31/7 64/38/7 58/39/7
f 48/27/11 46/29/11 45/28/11
f 41/15/7 42/35/7 51/16/7
f 46/18/8 44/21/8 53/19/8
f 44/21/9 43/30/9 55/22/9
f 48/23/10 41/44/10 50/24/10
f 42/26/11 41/45/11 48/27/11
f 46/29/11 47/46/11 43/30/11
f 48/23/10 59/25/10 57/31/10
f 43/30/10 47/32/10 57/31/10
f 46/18/8 63/20/8 61/33/8
f 42/35/8 45/34/8 61/33/8
f 57/31/12 59/25/12 61/33/12
f 61/33/8 62/43/8 52/36/8
f 63/20/8 53/19/8 54/37/8
f 55/22/10 57/31/10 58/39/10
f 50/24/10 49/47/10 60/41/10
f 50/17/7 51/16/7 52/36/7
f 53/19/9 55/22/9 56/40/9
f 62/43/9 61/33/9 59/25/9
f 57/31/7 63/20/7 64/38/7
f 48/27/11 47/46/11 46/29/11
