# Blender 4.1.0
# www.blender.org
mtllib Bridge.mtl
o Bridge
v -25.000040 60.499996 0.000034
v -25.000040 0.000008 -0.000002
v -25.000040 60.499992 4.000034
v -25.000040 0.000006 3.999997
v 25.000040 60.499996 0.000034
v 25.000040 0.000008 -0.000002
v 25.000040 60.499992 4.000034
v 25.000040 0.000006 3.999997
v -25.000040 49.811668 0.000028
v -25.000040 51.021664 0.000028
v -25.000040 39.728336 0.000021
v -25.000040 40.938335 0.000022
v -25.000040 29.645006 0.000015
v -25.000040 30.855005 0.000016
v -25.000040 19.561672 0.000009
v -25.000040 20.771671 0.000010
v -25.000040 9.478340 0.000003
v -25.000040 10.688340 0.000004
v -25.000040 10.688338 4.000004
v -25.000040 9.478338 4.000003
v -25.000040 20.771669 4.000010
v -25.000040 19.561670 4.000010
v -25.000040 30.855000 4.000016
v -25.000040 29.645000 4.000016
v -25.000040 40.938332 4.000022
v -25.000040 39.728333 4.000021
v -25.000040 51.021660 4.000028
v -25.000040 49.811665 4.000027
v 25.000040 10.688338 4.000004
v 25.000040 9.478338 4.000003
v 25.000040 20.771669 4.000010
v 25.000040 19.561670 4.000010
v 25.000040 30.855000 4.000016
v 25.000040 29.645000 4.000016
v 25.000040 40.938332 4.000022
v 25.000040 39.728333 4.000021
v 25.000040 51.021660 4.000028
v 25.000040 49.811665 4.000027
v 25.000040 10.688340 0.000004
v 25.000040 9.478340 0.000003
v 25.000040 20.771671 0.000010
v 25.000040 19.561672 0.000010
v 25.000040 30.855001 0.000016
v 25.000040 29.645002 0.000016
v 25.000040 40.938335 0.000022
v 25.000040 39.728336 0.000022
v 25.000040 51.021664 0.000028
v 25.000040 49.811668 0.000028
v -23.600046 49.811668 1.000015
v -23.600046 49.811668 3.000015
v -21.600044 49.811668 3.000015
v -21.600044 49.811668 1.000015
v 21.600044 49.811668 1.000015
v 21.600044 49.811668 3.000015
v 23.600044 49.811668 1.000015
v 23.600044 49.811668 3.000015
v -23.600046 39.728336 1.000012
v -23.600046 39.728336 3.000012
v -21.600044 39.728336 3.000012
v -21.600044 39.728336 1.000012
v 21.600044 39.728336 1.000012
v 21.600044 39.728336 3.000012
v 23.600044 39.728336 1.000012
v 23.600044 39.728336 3.000012
v -23.600046 29.645004 1.000009
v -23.600046 29.645000 3.000009
v -21.600044 29.645000 3.000009
v -21.600044 29.645004 1.000009
v 21.600044 29.645002 1.000009
v 21.600044 29.645000 3.000009
v 23.600044 29.645002 1.000009
v 23.600044 29.645000 3.000009
v -23.600046 19.561672 1.000006
v -23.600046 19.561670 3.000006
v -21.600044 19.561670 3.000006
v -21.600044 19.561672 1.000006
v 21.600044 19.561672 1.000006
v 21.600044 19.561670 3.000006
v 23.600044 19.561672 1.000006
v 23.600044 19.561670 3.000006
v -23.600046 9.478339 1.000003
v -23.600046 9.478338 3.000003
v -21.600044 9.478338 3.000003
v -21.600044 9.478339 1.000003
v 21.600044 9.478339 1.000003
v 21.600044 9.478338 3.000003
v 23.600044 9.478339 1.000003
v 23.600044 9.478338 3.000003
v 21.600044 51.021664 1.000016
v 21.600044 51.021664 3.000016
v 23.600044 51.021664 1.000016
v 23.600044 51.021664 3.000016
v -23.600046 51.021664 1.000016
v -23.600046 51.021664 3.000016
v -21.600044 51.021664 3.000016
v -21.600044 51.021664 1.000016
v 21.600044 40.938335 1.000013
v 21.600044 40.938335 3.000012
v 23.600044 40.938335 1.000013
v 23.600044 40.938335 3.000012
v -23.600046 40.938335 1.000013
v -23.600046 40.938335 3.000012
v -21.600044 40.938335 3.000012
v -21.600044 40.938335 1.000013
v 21.600044 30.855001 1.000010
v 21.600044 30.855000 3.000010
v 23.600044 30.855001 1.000010
v 23.600044 30.855000 3.000010
v -23.600046 30.855005 1.000010
v -23.600046 30.855000 3.000010
v -21.600044 30.855000 3.000010
v -21.600044 30.855005 1.000010
v 21.600044 10.688339 1.000003
v 21.600044 10.688338 3.000003
v 23.600044 10.688339 1.000003
v 23.600044 10.688338 3.000003
v -23.600046 10.688339 1.000003
v -23.600046 10.688338 3.000003
v -21.600044 10.688338 3.000003
v -21.600044 10.688339 1.000003
v 21.600044 20.771671 1.000006
v 21.600044 20.771669 3.000006
v 23.600044 20.771671 1.000006
v 23.600044 20.771669 3.000006
v -23.600046 20.771671 1.000006
v -23.600046 20.771669 3.000006
v -21.600044 20.771669 3.000006
v -21.600044 20.771671 1.000006
vn -0.0000 -0.0000 1.0000
vn 1.0000 -0.0000 -0.0000
vn -1.0000 -0.0000 -0.0000
vn -0.0000 1.0000 -0.0000
vn -0.0000 -1.0000 -0.0000
vn -0.0000 -0.0000 -1.0000
vt 0.625000 0.250000
vt 0.585833 0.500000
vt 0.585833 0.250000
vt 0.580833 0.250000
vt 0.544167 0.500000
vt 0.544167 0.250000
vt 0.580833 0.500000
vt 0.544167 0.750000
vt 0.585833 0.000000
vt 0.375000 0.500000
vt 0.125000 0.750000
vt 0.125000 0.500000
vt 0.875000 0.500000
vt 0.625000 0.750000
vt 0.625000 0.500000
vt 0.419167 0.000000
vt 0.455833 0.250000
vt 0.419167 0.250000
vt 0.497500 0.000000
vt 0.460833 0.250000
vt 0.460833 0.000000
vt 0.502500 0.000000
vt 0.539167 0.250000
vt 0.502500 0.250000
vt 0.544167 0.000000
vt 0.585833 1.000000
vt 0.585833 0.750000
vt 0.414167 0.500000
vt 0.375000 0.750000
vt 0.455833 0.500000
vt 0.419167 0.750000
vt 0.419167 0.500000
vt 0.497500 0.500000
vt 0.460833 0.750000
vt 0.460833 0.500000
vt 0.539167 0.500000
vt 0.502500 0.750000
vt 0.502500 0.500000
vt 0.414167 0.250000
vt 0.375000 0.250000
vt 0.497500 0.250000
vt 0.414167 0.750000
vt 0.375000 1.000000
vt 0.455833 0.750000
vt 0.419167 1.000000
vt 0.497500 0.750000
vt 0.460833 1.000000
vt 0.539167 0.750000
vt 0.502500 1.000000
vt 0.580833 0.750000
vt 0.544167 1.000000
vt 0.419167 0.200598
vt 0.419167 0.079315
vt 0.419167 0.218578
vt 0.419167 0.531422
vt 0.419167 0.549402
vt 0.460833 0.200598
vt 0.460833 0.079315
vt 0.460833 0.218578
vt 0.460833 0.531422
vt 0.460833 0.549402
vt 0.502500 0.200599
vt 0.502500 0.079315
vt 0.502500 0.531422
vt 0.502500 0.104070
vt 0.502500 0.549401
vt 0.544167 0.200599
vt 0.544167 0.079315
vt 0.544167 0.531422
vt 0.544167 0.104071
vt 0.544167 0.549401
vt 0.585833 0.200599
vt 0.585833 0.079315
vt 0.585833 0.531421
vt 0.585833 0.104071
vt 0.585833 0.549401
vt 0.414167 0.549402
vt 0.414167 0.670685
vt 0.414167 0.200598
vt 0.414167 0.000000
vt 0.414167 0.079315
vt 0.414167 0.531422
vt 0.414167 0.218578
vt 0.455833 0.549402
vt 0.455833 0.670685
vt 0.455833 0.200598
vt 0.455833 0.000000
vt 0.455833 0.079315
vt 0.455833 0.531422
vt 0.455833 0.218578
vt 0.497500 0.549402
vt 0.497500 0.670685
vt 0.497500 0.200598
vt 0.497500 0.079315
vt 0.497500 0.531422
vt 0.497500 0.218578
vt 0.580833 0.549401
vt 0.580833 0.670685
vt 0.580833 0.104071
vt 0.580833 0.645929
vt 0.580833 0.200599
vt 0.580833 0.000000
vt 0.580833 0.079315
vt 0.539167 0.549401
vt 0.539167 0.670685
vt 0.539167 0.104071
vt 0.539167 0.645929
vt 0.539167 0.200599
vt 0.539167 0.000000
vt 0.539167 0.079315
vt 0.375000 0.000000
vt 0.375000 0.067396
vt 0.625000 0.074271
vt 0.375000 0.074271
vt 0.375000 0.010104
vt 0.625000 0.016979
vt 0.375000 0.016979
vt 0.375000 0.239271
vt 0.625000 0.246146
vt 0.375000 0.246146
vt 0.375000 0.181979
vt 0.625000 0.188854
vt 0.375000 0.188854
vt 0.375000 0.124687
vt 0.625000 0.131562
vt 0.375000 0.131562
vt 0.625000 0.675729
vt 0.375000 0.682604
vt 0.375000 0.675729
vt 0.625000 0.733021
vt 0.375000 0.739896
vt 0.375000 0.733021
vt 0.625000 0.503854
vt 0.375000 0.510729
vt 0.375000 0.503854
vt 0.625000 0.561146
vt 0.375000 0.568021
vt 0.375000 0.561146
vt 0.625000 0.618438
vt 0.375000 0.625313
vt 0.375000 0.618438
vt 0.375000 0.510638
vt 0.125000 0.502660
vt 0.375000 0.569149
vt 0.125000 0.561170
vt 0.375000 0.561170
vt 0.375000 0.625000
vt 0.125000 0.619681
vt 0.375000 0.619681
vt 0.375000 0.683511
vt 0.125000 0.675532
vt 0.375000 0.675532
vt 0.375000 0.739362
vt 0.125000 0.734043
vt 0.375000 0.734043
vt 0.625000 0.510582
vt 0.875000 0.510582
vt 0.625000 0.567460
vt 0.875000 0.560847
vt 0.875000 0.567460
vt 0.625000 0.625661
vt 0.875000 0.619048
vt 0.875000 0.625661
vt 0.625000 0.682540
vt 0.875000 0.675926
vt 0.875000 0.682540
vt 0.625000 0.739418
vt 0.875000 0.732804
vt 0.875000 0.739418
vt 0.625000 0.246146
vt 0.375000 0.239271
vt 0.375000 0.246146
vt 0.625000 0.188854
vt 0.375000 0.181979
vt 0.375000 0.188854
vt 0.625000 0.131562
vt 0.375000 0.124687
vt 0.625000 0.016979
vt 0.375000 0.010104
vt 0.375000 0.016979
vt 0.375000 0.067396
vt 0.375000 0.074271
vt 0.625000 0.503854
vt 0.375000 0.503854
vt 0.375000 0.568021
vt 0.625000 0.561146
vt 0.375000 0.561146
vt 0.375000 0.625313
vt 0.375000 0.739896
vt 0.375000 0.733021
vt 0.625000 0.675729
vt 0.125000 0.510638
vt 0.125000 0.569149
vt 0.125000 0.625000
vt 0.125000 0.683511
vt 0.375000 0.675532
vt 0.125000 0.675532
vt 0.125000 0.739362
vt 0.375000 0.734043
vt 0.875000 0.510582
vt 0.625000 0.510582
vt 0.875000 0.567460
vt 0.625000 0.560847
vt 0.625000 0.619048
vt 0.875000 0.682540
vt 0.625000 0.675926
vt 0.625000 0.682540
vt 0.875000 0.739418
vt 0.625000 0.732804
vt 0.625000 0.739418
vt 0.625000 0.000000
vt 0.875000 0.750000
vt 0.625000 1.000000
vt 0.414167 1.000000
vt 0.455833 1.000000
vt 0.497500 1.000000
vt 0.539167 1.000000
vt 0.580833 1.000000
vt 0.419167 0.645930
vt 0.419167 0.670685
vt 0.419167 0.104070
vt 0.460833 0.645930
vt 0.460833 0.670685
vt 0.460833 0.104070
vt 0.502500 0.645930
vt 0.502500 0.670685
vt 0.502500 0.218578
vt 0.544167 0.645929
vt 0.544167 0.670685
vt 0.544167 0.218578
vt 0.585833 0.645929
vt 0.585833 0.670685
vt 0.585833 0.218579
vt 0.414167 0.104070
vt 0.414167 0.645930
vt 0.455833 0.104070
vt 0.455833 0.645930
vt 0.497500 0.104070
vt 0.497500 0.645930
vt 0.580833 0.531421
vt 0.580833 0.218579
vt 0.539167 0.531421
vt 0.539167 0.218578
vt 0.625000 0.067396
vt 0.625000 0.010104
vt 0.625000 0.239271
vt 0.625000 0.181979
vt 0.625000 0.124687
vt 0.625000 0.682604
vt 0.625000 0.739896
vt 0.625000 0.510729
vt 0.625000 0.568021
vt 0.625000 0.625313
vt 0.625000 0.503968
vt 0.625000 0.732804
vt 0.625000 0.239271
vt 0.625000 0.181979
vt 0.625000 0.124687
vt 0.625000 0.010104
vt 0.625000 0.625313
vt 0.625000 0.739896
vt 0.625000 0.682604
vt 0.375000 0.683511
s 0
usemtl Wood_1
f 4/1/1 30/2/1 20/3/1
f 19/4/1 32/5/1 22/6/1
f 29/7/2 42/8/2 32/5/2
f 17/9/3 4/1/3 20/3/3
f 7/10/4 1/11/4 3/12/4
f 4/13/5 6/14/5 8/15/5
f 9/16/3 25/17/3 28/18/3
f 14/19/3 26/20/3 11/21/3
f 13/22/3 21/23/3 24/24/3
f 15/25/3 19/4/3 22/6/3
f 6/14/6 17/26/6 40/27/6
f 37/28/2 5/29/2 7/10/2
f 35/30/2 48/31/2 38/32/2
f 33/33/2 46/34/2 36/35/2
f 31/36/2 44/37/2 34/38/2
f 8/15/2 40/27/2 30/2/2
f 27/39/1 7/10/1 3/40/1
f 25/17/1 38/32/1 28/18/1
f 23/41/1 36/35/1 26/20/1
f 21/23/1 34/38/1 24/24/1
f 47/42/6 1/43/6 5/29/6
f 45/44/6 9/45/6 48/31/6
f 43/46/6 11/47/6 46/34/6
f 41/48/6 13/49/6 44/37/6
f 39/50/6 15/51/6 42/8/6
f 9/16/4 50/52/4 49/53/4
f 51/54/4 38/32/4 54/55/4
f 48/31/4 56/56/4 38/32/4
f 11/21/4 58/57/4 57/58/4
f 59/59/4 36/35/4 62/60/4
f 46/34/4 64/61/4 36/35/4
f 13/22/4 66/62/4 65/63/4
f 34/38/4 70/64/4 68/65/4
f 44/37/4 72/66/4 34/38/4
f 15/25/4 74/67/4 73/68/4
f 32/5/4 78/69/4 76/70/4
f 42/8/4 80/71/4 32/5/4
f 17/9/4 82/72/4 81/73/4
f 30/2/4 86/74/4 84/75/4
f 40/27/4 88/76/4 30/2/4
f 47/42/5 92/77/5 91/78/5
f 94/79/5 10/80/5 93/81/5
f 90/82/5 27/39/5 95/83/5
f 45/44/5 100/84/5 99/85/5
f 102/86/5 12/87/5 101/88/5
f 98/89/5 25/17/5 103/90/5
f 43/46/5 108/91/5 107/92/5
f 110/93/5 14/19/5 109/94/5
f 106/95/5 23/41/5 111/96/5
f 39/50/5 116/97/5 115/98/5
f 120/99/5 39/50/5 113/100/5
f 118/101/5 18/102/5 117/103/5
f 41/48/5 124/104/5 123/105/5
f 128/106/5 41/48/5 121/107/5
f 126/108/5 16/109/5 125/110/5
f 1/111/3 27/39/3 3/40/3
f 4/1/1 8/15/1 30/2/1
f 19/4/1 29/7/1 32/5/1
f 29/7/2 39/50/2 42/8/2
f 17/9/3 2/211/3 4/1/3
f 7/10/4 5/29/4 1/11/4
f 4/13/5 2/212/5 6/14/5
f 9/16/3 12/87/3 25/17/3
f 14/19/3 23/41/3 26/20/3
f 13/22/3 16/109/3 21/23/3
f 15/25/3 18/102/3 19/4/3
f 6/14/6 2/213/6 17/26/6
f 37/28/2 47/42/2 5/29/2
f 35/30/2 45/44/2 48/31/2
f 33/33/2 43/46/2 46/34/2
f 31/36/2 41/48/2 44/37/2
f 8/15/2 6/14/2 40/27/2
f 27/39/1 37/28/1 7/10/1
f 25/17/1 35/30/1 38/32/1
f 23/41/1 33/33/1 36/35/1
f 21/23/1 31/36/1 34/38/1
f 47/42/6 10/214/6 1/43/6
f 45/44/6 12/215/6 9/45/6
f 43/46/6 14/216/6 11/47/6
f 41/48/6 16/217/6 13/49/6
f 39/50/6 18/218/6 15/51/6
f 9/16/4 28/18/4 50/52/4
f 53/219/4 55/220/4 48/31/4
f 48/31/4 9/16/4 49/53/4
f 48/31/4 49/53/4 52/221/4
f 53/219/4 48/31/4 52/221/4
f 51/54/4 50/52/4 28/18/4
f 53/219/4 52/221/4 51/54/4
f 38/32/4 56/56/4 54/55/4
f 54/55/4 53/219/4 51/54/4
f 51/54/4 28/18/4 38/32/4
f 48/31/4 55/220/4 56/56/4
f 11/21/4 26/20/4 58/57/4
f 61/222/4 63/223/4 46/34/4
f 46/34/4 11/21/4 57/58/4
f 46/34/4 57/58/4 60/224/4
f 61/222/4 46/34/4 60/224/4
f 59/59/4 58/57/4 26/20/4
f 61/222/4 60/224/4 59/59/4
f 36/35/4 64/61/4 62/60/4
f 62/60/4 61/222/4 59/59/4
f 59/59/4 26/20/4 36/35/4
f 46/34/4 63/223/4 64/61/4
f 13/22/4 24/24/4 66/62/4
f 66/62/4 24/24/4 34/38/4
f 34/38/4 72/66/4 70/64/4
f 69/225/4 71/226/4 44/37/4
f 69/225/4 44/37/4 13/22/4
f 13/22/4 65/63/4 68/65/4
f 67/227/4 66/62/4 34/38/4
f 69/225/4 13/22/4 68/65/4
f 68/65/4 67/227/4 34/38/4
f 70/64/4 69/225/4 68/65/4
f 44/37/4 71/226/4 72/66/4
f 15/25/4 22/6/4 74/67/4
f 74/67/4 22/6/4 32/5/4
f 32/5/4 80/71/4 78/69/4
f 77/228/4 79/229/4 42/8/4
f 77/228/4 42/8/4 15/25/4
f 15/25/4 73/68/4 76/70/4
f 75/230/4 74/67/4 32/5/4
f 77/228/4 15/25/4 76/70/4
f 76/70/4 75/230/4 32/5/4
f 78/69/4 77/228/4 76/70/4
f 42/8/4 79/229/4 80/71/4
f 17/9/4 20/3/4 82/72/4
f 82/72/4 20/3/4 30/2/4
f 30/2/4 88/76/4 86/74/4
f 85/231/4 87/232/4 40/27/4
f 85/231/4 40/27/4 17/9/4
f 17/9/4 81/73/4 84/75/4
f 83/233/4 82/72/4 30/2/4
f 85/231/4 17/9/4 84/75/4
f 84/75/4 83/233/4 30/2/4
f 86/74/4 85/231/4 84/75/4
f 40/27/4 87/232/4 88/76/4
f 47/42/5 37/28/5 92/77/5
f 94/79/5 27/39/5 10/80/5
f 96/234/5 93/81/5 10/80/5
f 10/80/5 47/42/5 91/78/5
f 10/80/5 91/78/5 89/235/5
f 96/234/5 10/80/5 89/235/5
f 90/82/5 92/77/5 37/28/5
f 96/234/5 89/235/5 90/82/5
f 27/39/5 94/79/5 95/83/5
f 95/83/5 96/234/5 90/82/5
f 90/82/5 37/28/5 27/39/5
f 45/44/5 35/30/5 100/84/5
f 102/86/5 25/17/5 12/87/5
f 104/236/5 101/88/5 12/87/5
f 12/87/5 45/44/5 99/85/5
f 12/87/5 99/85/5 97/237/5
f 104/236/5 12/87/5 97/237/5
f 98/89/5 100/84/5 35/30/5
f 104/236/5 97/237/5 98/89/5
f 25/17/5 102/86/5 103/90/5
f 103/90/5 104/236/5 98/89/5
f 98/89/5 35/30/5 25/17/5
f 43/46/5 33/33/5 108/91/5
f 110/93/5 23/41/5 14/19/5
f 112/238/5 109/94/5 14/19/5
f 14/19/5 43/46/5 107/92/5
f 14/19/5 107/92/5 105/239/5
f 112/238/5 14/19/5 105/239/5
f 106/95/5 108/91/5 33/33/5
f 112/238/5 105/239/5 106/95/5
f 23/41/5 110/93/5 111/96/5
f 111/96/5 112/238/5 106/95/5
f 106/95/5 33/33/5 23/41/5
f 39/50/5 29/7/5 116/97/5
f 114/240/5 116/97/5 29/7/5
f 29/7/5 19/4/5 118/101/5
f 29/7/5 118/101/5 119/241/5
f 114/240/5 29/7/5 119/241/5
f 120/99/5 117/103/5 18/102/5
f 114/240/5 119/241/5 120/99/5
f 39/50/5 115/98/5 113/100/5
f 113/100/5 114/240/5 120/99/5
f 120/99/5 18/102/5 39/50/5
f 118/101/5 19/4/5 18/102/5
f 41/48/5 31/36/5 124/104/5
f 122/242/5 124/104/5 31/36/5
f 31/36/5 21/23/5 126/108/5
f 31/36/5 126/108/5 127/243/5
f 122/242/5 31/36/5 127/243/5
f 128/106/5 125/110/5 16/109/5
f 122/242/5 127/243/5 128/106/5
f 41/48/5 123/105/5 121/107/5
f 121/107/5 122/242/5 128/106/5
f 128/106/5 16/109/5 41/48/5
f 126/108/5 21/23/5 16/109/5
f 1/111/3 10/80/3 27/39/3
usemtl 
f 73/112/3 126/113/3 125/114/3
f 81/115/3 118/116/3 117/117/3
f 49/118/3 94/119/3 93/120/3
f 57/121/3 102/122/3 101/123/3
f 65/124/3 110/125/3 109/126/3
f 127/127/2 76/128/2 128/129/2
f 119/130/2 84/131/2 120/132/2
f 95/133/2 52/134/2 96/135/2
f 103/136/2 60/137/2 104/138/2
f 111/139/2 68/140/2 112/141/2
f 52/142/6 93/143/6 96/10/6
f 60/144/6 101/145/6 104/146/6
f 68/147/6 109/148/6 112/149/6
f 76/150/6 125/151/6 128/152/6
f 84/153/6 117/154/6 120/155/6
f 51/156/1 94/13/1 50/157/1
f 59/158/1 102/159/1 58/160/1
f 67/161/1 110/162/1 66/163/1
f 75/164/1 126/165/1 74/166/1
f 83/167/1 118/168/1 82/169/1
f 92/170/2 55/171/2 91/172/2
f 100/173/2 63/174/2 99/175/2
f 108/176/2 71/177/2 107/126/2
f 116/178/2 87/179/2 115/180/2
f 124/113/2 79/181/2 123/182/2
f 53/134/3 90/183/3 89/184/3
f 61/185/3 98/186/3 97/187/3
f 69/188/3 106/139/3 105/141/3
f 85/189/3 114/130/3 113/190/3
f 77/128/3 122/191/3 121/129/3
f 55/192/6 89/10/6 91/12/6
f 63/193/6 97/146/6 99/145/6
f 71/194/6 105/149/6 107/148/6
f 79/195/6 121/196/6 123/197/6
f 87/198/6 113/199/6 115/154/6
f 56/200/1 90/15/1 54/201/1
f 64/202/1 98/203/1 62/158/1
f 72/163/1 106/204/1 70/161/1
f 80/205/1 122/206/1 78/207/1
f 88/208/1 114/209/1 86/210/1
f 73/112/3 74/244/3 126/113/3
f 81/115/3 82/245/3 118/116/3
f 49/118/3 50/246/3 94/119/3
f 57/121/3 58/247/3 102/122/3
f 65/124/3 66/248/3 110/125/3
f 127/127/2 75/249/2 76/128/2
f 119/130/2 83/250/2 84/131/2
f 95/133/2 51/251/2 52/134/2
f 103/136/2 59/252/2 60/137/2
f 111/139/2 67/253/2 68/140/2
f 52/142/6 49/192/6 93/143/6
f 60/144/6 57/193/6 101/145/6
f 68/147/6 65/194/6 109/148/6
f 76/150/6 73/195/6 125/151/6
f 84/153/6 81/198/6 117/154/6
f 51/156/1 95/254/1 94/13/1
f 59/158/1 103/203/1 102/159/1
f 67/161/1 111/204/1 110/162/1
f 75/164/1 127/206/1 126/165/1
f 83/167/1 119/255/1 118/168/1
f 92/170/2 56/256/2 55/171/2
f 100/173/2 64/257/2 63/174/2
f 108/176/2 72/258/2 71/177/2
f 116/178/2 88/259/2 87/179/2
f 124/113/2 80/244/2 79/181/2
f 53/134/3 54/251/3 90/183/3
f 61/185/3 62/252/3 98/186/3
f 69/188/3 70/260/3 106/139/3
f 85/189/3 86/261/3 114/130/3
f 77/128/3 78/262/3 122/191/3
f 55/192/6 53/142/6 89/10/6
f 63/193/6 61/144/6 97/146/6
f 71/194/6 69/147/6 105/149/6
f 79/195/6 77/263/6 121/196/6
f 87/198/6 85/153/6 113/199/6
f 56/200/1 92/13/1 90/15/1
f 64/202/1 100/159/1 98/203/1
f 72/163/1 108/162/1 106/204/1
f 80/205/1 124/165/1 122/206/1
f 88/208/1 116/168/1 114/209/1
