# Blender 4.1.0
# www.blender.org
mtllib CrystalOff.mtl
o Crystal
v -1.178639 0.074976 1.040000
v 0.616000 4.236667 3.950466
v 0.840000 5.678872 -3.393086
v -1.085242 -0.006680 2.000000
v 1.519950 5.659593 0.640000
v -0.216001 4.236667 3.950466
v 0.159999 5.678872 -3.393086
v 0.615999 4.964667 2.689533
v -4.669486 2.900177 0.416000
v -1.178639 0.074976 -1.040000
v -4.236073 7.667381 1.000000
v -0.216001 4.964667 2.689533
v 0.840000 4.144469 -4.723884
v -1.840001 0.720871 1.080000
v -4.669486 2.900177 -0.416000
v -0.616001 5.141067 3.632000
v -1.085242 -0.006680 -2.000000
v 0.159999 4.144469 -4.723884
v 1.016000 5.141067 3.632000
v 1.519950 5.659593 -0.640000
v -0.240001 5.689077 -4.585486
v -4.236073 7.667381 -1.000000
v -3.834358 4.092863 0.416000
v 2.665497 0.001738 1.600000
v 1.240000 5.689077 -4.585486
v 2.539991 -0.006680 2.000000
v -3.834357 4.092863 -0.416000
v 3.374529 4.831372 0.640000
v -4.763073 3.854432 -0.816000
v -2.423455 9.357856 1.000000
v 2.665497 0.001738 -1.600000
v -4.763073 3.854432 0.816000
v 2.539991 -0.006680 -2.000000
v 3.374529 4.831372 -0.640000
v -2.423455 9.357856 -1.000000
v 0.727374 -0.006680 -3.000000
v -3.583335 9.600188 -1.500000
v 2.596320 6.172772 -1.040000
v 0.727374 -0.006680 3.000000
v -3.583335 9.600188 1.500000
v 2.596320 6.172772 1.040000
v 0.663568 3.533567 1.062596
v 0.663568 3.533567 -1.062596
v 1.134004 0.470404 -2.585217
v 2.514015 0.042328 -1.698016
v 2.081990 0.857429 -1.907725
v 1.132000 0.462588 2.587335
v 2.514015 0.042328 1.698016
v 2.083570 0.854448 1.908043
v 2.016280 0.814967 1.957236
v -1.687698 1.460642 1.600729
v -1.826222 1.798026 1.675781
v -2.216238 2.747936 0.935413
v -1.140899 0.128875 1.103267
v -2.419058 3.241920 0.645463
v -1.826222 1.798025 -1.675781
v -1.140899 0.128875 -1.103267
v -2.058744 2.364351 -1.302649
v -2.419059 3.241921 -0.645463
v 1.211146 0.771222 -2.503702
v 1.418236 0.586444 -2.382087
v 1.991503 0.820487 -1.972393
v 1.839031 3.219687 -1.840222
v 2.511240 1.945739 -1.512537
v 1.006377 3.642216 -1.213621
v 0.673761 3.514336 -1.076774
v 1.154128 0.740971 -2.483792
v 1.289052 3.741381 -1.319740
v 1.357626 3.762056 -1.341864
v 1.136329 0.733532 -2.478895
v -1.346080 0.628606 -1.370881
v -1.371817 0.691292 -1.296175
v -1.404658 0.771277 -1.323609
v 1.714036 0.432109 -2.280507
v -0.859088 3.528919 -2.447957
v 0.338208 1.149956 -2.752975
v 0.171774 1.231534 -2.806667
v -0.574135 3.861518 -2.173862
v 0.427313 3.979310 -1.574352
v -0.232098 4.226902 -1.839305
v -0.516766 3.927090 -2.116036
v -1.241316 2.740571 -2.165023
v -0.733227 0.350603 -2.226862
v -1.427429 0.712271 -1.271173
v 1.137775 1.026552 2.356483
v 1.458151 1.734430 2.242693
v 1.303027 2.753672 1.728858
v 1.663845 2.536542 2.025338
v 1.147513 2.851218 1.604901
v 0.935320 3.059084 1.404986
v 0.919249 3.051173 1.399653
v 1.823462 2.225102 1.948467
v 1.676979 1.939754 2.075155
v -1.260165 0.419357 1.602239
v -1.336305 0.604800 1.281042
v -1.569739 1.173344 1.493413
v 0.733399 3.401816 1.636020
v -0.053168 1.732841 2.728394
v -0.240712 1.490094 2.609913
v -1.168128 2.923986 2.236215
v -0.886439 3.589873 2.438440
v -1.356300 2.467646 2.088501
v -0.751946 0.770375 2.258631
v -0.802841 1.020401 2.254606
v 0.477436 3.525973 1.719714
v -0.663851 3.794357 2.245673
v 0.189996 1.590454 2.658897
v -0.572101 3.855473 2.175153
v -0.382110 3.973392 2.021317
v 1.114857 1.010248 2.375709
v -1.579171 1.165228 1.481186
v -1.377863 0.617268 1.259446
v -1.783145 0.750436 1.028792
v -1.768134 0.908674 1.151228
v -1.745004 1.063931 1.278066
v -1.693166 0.720871 1.080000
vn -0.9276 0.3736 -0.0000
vn 0.5574 0.0809 -0.8263
vn 0.5556 0.0813 -0.8274
vn 0.9894 -0.1453 -0.0000
vn -0.4607 0.3403 0.8197
vn -0.4513 0.3376 0.8260
vn -0.2588 -0.9659 -0.0000
vn -0.4304 0.9027 -0.0000
vn 0.8650 0.5018 -0.0000
vn 0.5567 0.0813 0.8267
vn -0.4517 0.3379 -0.8257
vn -0.4659 0.3408 -0.8166
vn -0.9251 -0.3798 -0.0000
vn 0.4520 0.3342 -0.8270
vn 0.4560 0.3300 -0.8266
vn 0.8836 0.4683 -0.0000
vn -0.4813 -0.0839 0.8725
vn -0.0000 -1.0000 -0.0000
vn -0.9474 0.3200 -0.0000
vn 0.2045 0.9789 -0.0000
vn 0.4639 0.3397 0.8181
vn 0.4554 0.3333 0.8255
vn -0.4815 -0.0798 -0.8728
vn -0.6291 -0.7773 -0.0000
vn 0.2210 0.6411 -0.7349
vn 0.5153 0.8570 -0.0000
vn -0.5159 -0.4931 0.7005
vn -0.9952 -0.0976 -0.0000
vn -0.2487 0.9686 -0.0000
vn 0.8192 -0.5736 -0.0000
vn 0.2178 0.6246 0.7500
vn -0.5024 -0.4579 -0.7334
vn -0.0000 0.7306 0.6828
vn -0.8242 -0.1649 -0.5418
vn -0.8265 -0.1606 -0.5396
vn -0.0000 -0.5498 -0.8353
vn 0.8288 0.4937 0.2633
vn -0.0000 -0.7660 0.6428
vn -0.0000 1.0000 0.0086
vn -0.0000 0.0892 -0.9960
vn 0.8266 -0.1618 -0.5391
vn -0.8275 0.5024 0.2506
vn -0.0000 -0.4386 0.8987
vn -0.7839 0.4587 -0.4185
vn -0.0000 0.5590 -0.8292
vn 0.7521 -0.1797 0.6341
vn -0.0000 -0.8660 -0.5000
vn -0.0000 0.3321 0.9432
vn -0.0000 0.9829 -0.1840
vn 0.7426 0.4756 -0.4715
vn -0.7346 -0.2067 0.6463
vn -0.7103 -0.1940 0.6766
vn 0.5569 0.0812 -0.8266
vn 0.5625 0.0810 -0.8228
vn 0.5569 0.0825 -0.8265
vn 0.5578 0.0800 -0.8261
vn -0.4460 0.3407 0.8277
vn -0.4659 0.3408 0.8166
vn -0.4683 0.3499 0.8113
vn -0.4437 0.3433 0.8278
vn -0.4493 0.3367 0.8275
vn 0.5625 0.0810 0.8228
vn -0.4683 0.3499 -0.8113
vn -0.4633 0.3405 -0.8182
vn -0.4360 0.7985 -0.4152
vn -0.3740 0.3020 -0.8769
vn -0.3814 0.3492 -0.8559
vn 0.4308 0.3248 -0.8420
vn 0.4306 0.3184 -0.8445
vn 0.4573 0.3371 -0.8230
vn 0.4519 0.3341 -0.8272
vn -0.4654 -0.0711 0.8823
vn -0.4815 -0.0798 0.8728
vn -0.4814 -0.0839 0.8725
vn -0.4610 -0.0959 0.8822
vn 0.4306 0.3184 0.8445
vn 0.4308 0.3248 0.8420
vn 0.4575 0.3366 0.8230
vn 0.4560 0.3300 0.8266
vn -0.0926 0.8345 0.5431
vn 0.4598 0.3307 0.8241
vn -0.4600 -0.0736 -0.8849
vn 0.1855 0.5926 -0.7839
vn 0.2040 0.5565 -0.8054
vn -0.4934 -0.3770 0.7839
vn -0.5137 -0.4772 0.7130
vn -0.8691 0.3286 0.3698
vn -0.5475 -0.4840 0.6826
vn -0.4993 -0.4254 0.7548
vn -0.7102 -0.1940 0.6768
vn -0.5218 -0.5100 0.6838
vn -0.4402 -0.3561 0.8242
vn -0.5165 -0.4943 0.6992
vn 0.2040 0.5565 0.8054
vn -0.5025 -0.4579 -0.7334
vn -0.5137 -0.4772 -0.7130
vn -0.4934 -0.3770 -0.7839
vn -0.8256 -0.1615 -0.5407
vn -0.0000 -0.5499 -0.8352
vn 0.8199 0.5030 0.2735
vn 0.8113 0.5151 0.2766
vn 0.8252 -0.1597 -0.5418
vn 0.8228 -0.1643 -0.5440
vn -0.8113 0.5151 0.2766
vn -0.8166 0.5057 0.2783
vn -0.8763 0.4671 0.1177
vn -0.8273 0.5026 0.2509
vn -0.8054 0.4181 -0.4201
vn -0.7090 0.5180 -0.4785
vn -0.7109 0.5166 -0.4773
vn -0.7130 0.4701 -0.5202
vn -0.0000 0.5589 -0.8292
vn 0.7130 -0.2154 0.6673
vn 0.7839 -0.1331 0.6065
vn 0.8054 0.4181 -0.4201
vn 0.7103 0.4890 -0.5063
vn 0.5421 -0.2101 -0.8136
vn -0.8054 -0.1547 0.5722
vn -0.7839 -0.1331 0.6065
vt 0.625000 0.000000
vt 0.514949 0.250000
vt 0.514949 0.000000
vt 0.390432 0.375000
vt 0.386132 0.395093
vt 0.377369 0.375000
vt 0.375000 0.500000
vt 0.406597 0.442016
vt 0.463846 0.460591
vt 0.625000 0.500000
vt 0.375000 0.750000
vt 0.401062 0.887290
vt 0.377030 0.875000
vt 0.432261 0.875000
vt 0.491698 0.958938
vt 0.625000 0.875000
vt 0.514949 1.000000
vt 0.362748 0.500000
vt 0.875000 0.500000
vt 0.750000 0.750000
vt 0.750000 0.500000
vt 0.625000 0.750000
vt 0.406476 0.807851
vt 0.459204 0.854254
vt 0.625000 0.375000
vt 0.523530 0.304254
vt 0.389073 0.370441
vt 0.480831 0.176013
vt 0.480831 0.073987
vt 0.375000 0.000000
vt 0.379416 0.194158
vt 0.375000 0.250000
vt 0.487040 0.455560
vt 0.478308 0.419019
vt 0.375000 0.375000
vt 0.387596 0.419275
vt 0.469512 0.706563
vt 0.481412 0.500000
vt 0.376308 0.518789
vt 0.625000 1.000000
vt 0.375000 1.000000
vt 0.397460 0.953803
vt 0.250000 0.750000
vt 0.250000 0.500000
vt 0.125000 0.750000
vt 0.125000 0.500000
vt 0.479838 0.817640
vt 0.469100 0.765008
vt 0.375000 0.875000
vt 0.387388 0.831060
vt 0.401984 0.812345
vt 0.385277 0.284916
vt 0.625000 0.250000
vt 0.480904 0.418935
vt 0.533068 0.500000
vt 0.533068 0.750000
vt 0.422792 0.982087
vt 0.425558 0.963946
vt 0.875000 0.750000
vt 0.132908 0.750000
vt 0.449391 0.875000
vt 0.449391 0.375000
vt 0.403354 0.295051
vt 0.505480 0.142073
vt 0.488748 0.011730
vt 0.464533 0.375000
vt 0.375000 0.431740
vt 0.375000 0.421572
vt 0.379067 0.422464
vt 0.415867 0.692473
vt 0.441399 0.602751
vt 0.475187 0.964300
vt 0.490201 1.000000
vt 0.296572 0.500000
vt 0.306740 0.500000
vt 0.299121 0.502092
vt 0.397387 0.750000
vt 0.421276 0.875000
vt 0.499867 0.348741
vt 0.508698 0.305361
vt 0.454862 0.194194
vt 0.469899 0.169032
vt 0.546987 0.473357
vt 0.535635 0.423770
vt 0.383857 0.382436
vt 0.394403 0.375000
vt 0.520077 0.722288
vt 0.558450 0.500000
vt -0.010751 0.156098
vt 0.460077 0.875000
vt 0.250000 0.508997
vt 0.257107 0.500000
vt 0.225095 0.517000
vt 0.222098 0.518204
vt 0.497067 0.750000
vt 0.476575 0.865707
vt 0.473795 0.375000
vt 0.422885 0.250656
vt 0.405062 0.356831
vt 0.404367 0.357776
vt 0.496759 0.375000
vt 0.375000 0.487748
vt 0.403807 0.435619
vt 0.481501 0.932240
vt 0.476926 0.914831
vt 0.467093 0.875000
vt 0.491339 0.960221
vt 0.362748 0.750000
vt 0.375000 0.762252
vt 0.444799 0.860854
vt 0.403714 0.812545
vt 0.519485 0.279935
vt 0.513946 0.251701
vt 0.524338 0.310167
vt 0.388699 0.369076
vt 0.394920 0.041215
vt 0.379416 0.055842
vt 0.397738 0.210777
vt 0.395696 0.214935
vt 0.400344 0.213140
vt 0.433792 0.243481
vt 0.388879 0.022232
vt 0.422801 0.014910
vt 0.413442 0.023740
vt 0.464738 0.054148
vt 0.433792 0.006519
vt 0.452242 0.220820
vt 0.476417 0.411521
vt 0.467007 0.375000
vt 0.386634 0.458411
vt 0.397069 0.492295
vt 0.398069 0.500000
vt 0.407222 0.375000
vt 0.405180 0.384730
vt 0.394638 0.429201
vt 0.390736 0.443479
vt 0.465995 0.750000
vt 0.456634 0.728737
vt 0.469512 0.543437
vt 0.468999 0.542474
vt 0.376308 0.731211
vt 0.397989 0.750000
vt 0.468593 0.875000
vt 0.420268 0.875000
vt 0.415209 0.895754
vt 0.404718 0.949858
vt 0.447348 0.945131
vt 0.456754 0.916918
vt 0.474455 0.848598
vt 0.476253 0.838572
vt 0.396903 0.756210
vt 0.416692 0.861377
vt 0.402430 0.810066
vt 0.453103 0.321443
vt 0.421560 0.919735
vt 0.434368 0.899833
vt 0.375000 0.992092
vt 0.396216 0.959122
vt 0.398587 0.961140
vt 0.417338 0.977307
vt 0.427921 0.945611
vt 0.421838 0.921299
vt 0.132908 0.500000
vt 0.400066 0.297362
vt 0.375000 0.257908
vt 0.403631 0.302973
vt 0.472781 0.107113
vt 0.481774 0.057902
vt 0.490201 0.000000
vt 0.522891 0.250000
vt 0.392389 0.500000
vt 0.406849 0.721242
vt 0.418178 0.701512
vt 0.416324 0.694585
vt 0.446401 0.582355
vt 0.407755 0.774508
vt 0.510723 0.295857
vt 0.461079 0.131730
vt 0.425137 0.000000
vt 0.410278 0.250000
vt 0.497831 0.394929
vt 0.550823 0.482058
vt 0.375000 0.382107
vt 0.496536 0.746916
vt 0.528412 0.675488
vt 0.425137 1.000000
vt 0.425388 0.997055
vt 0.612975 1.174589
vt 0.177521 0.500000
vt 0.485113 0.828472
vt 0.375000 0.302521
s 0
usemtl Crystal
f 5/1/1 43/2/1 42/3/1
f 60/4/2 61/5/2 44/6/2
f 31/7/3 46/8/3 64/9/3
f 34/10/4 24/11/4 31/7/4
f 85/12/5 47/13/5 86/14/5
f 90/15/6 41/16/6 42/17/6
f 24/11/7 45/18/7 31/7/7
f 20/19/8 41/20/8 38/21/8
f 38/21/9 28/22/9 34/10/9
f 49/23/10 92/24/10 47/13/10
f 43/2/11 38/25/11 68/26/11
f 44/6/12 67/27/12 60/4/12
f 1/30/24 15/53/24 10/32/24
f 58/54/25 29/25/25 59/55/25
f 27/10/26 55/56/26 59/55/26
f 9/40/27 113/57/27 114/58/27
f 29/21/28 9/59/28 32/20/28
f 29/21/29 23/22/29 27/10/29
f 10/46/30 54/60/30 1/45/30
f 55/56/31 32/16/31 52/61/31
f 15/53/32 56/62/32 84/63/32
f 79/64/33 68/65/33 7/53/33
f 18/10/34 82/66/34 21/25/34
f 71/67/35 84/68/35 73/69/35
f 70/70/36 76/71/36 13/22/36
f 63/72/37 25/16/37 69/73/37
f 84/74/38 71/75/38 72/76/38
f 7/19/39 25/20/39 21/21/39
f 18/10/40 25/20/40 13/22/40
f 74/77/41 25/16/41 64/78/41
f 7/53/42 75/79/42 78/80/42
f 2/1/43 99/81/43 98/82/43
f 16/25/44 106/83/44 101/84/44
f 114/85/44 14/35/44 115/86/44
f 8/22/45 97/87/45 109/88/45
f 86/89/46 92/90/46 2/40/46
f 116/91/47 14/44/47 113/92/47
f 6/19/48 19/20/48 16/21/48
f 16/21/49 8/22/49 12/10/49
f 14/44/47 112/93/47 95/94/47
f 90/95/50 19/16/50 88/96/50
f 6/53/51 102/97/51 104/98/51
f 14/35/52 96/99/52 111/100/52
f 5/1/1 20/53/1 43/2/1
f 64/9/53 63/101/53 38/25/53
f 38/25/54 34/10/54 31/7/54
f 31/7/55 45/102/55 46/8/55
f 46/8/56 62/103/56 64/9/56
f 64/9/3 38/25/3 31/7/3
f 34/10/4 28/22/4 24/11/4
f 90/15/57 89/104/57 87/105/57
f 87/105/58 88/106/58 41/16/58
f 41/16/59 5/40/59 42/17/59
f 42/17/60 91/107/60 90/15/60
f 90/15/61 87/105/61 41/16/61
f 24/11/7 48/108/7 45/18/7
f 20/19/8 5/59/8 41/20/8
f 38/21/9 41/20/9 28/22/9
f 49/23/10 48/109/10 24/11/10
f 24/11/62 28/22/62 41/16/62
f 41/16/10 88/106/10 92/24/10
f 93/110/10 86/14/10 47/13/10
f 24/11/10 41/16/10 92/24/10
f 92/24/10 93/110/10 47/13/10
f 47/13/10 50/111/10 49/23/10
f 49/23/10 24/11/10 92/24/10
f 65/112/63 66/113/63 43/2/63
f 43/2/63 20/53/63 38/25/63
f 38/25/64 63/101/64 69/114/64
f 68/26/65 65/112/65 43/2/65
f 38/25/66 69/114/66 68/26/66
f 44/6/67 70/115/67 67/27/67
f 1/30/24 9/1/24 15/53/24
f 58/54/83 56/62/83 29/25/83
f 29/25/84 27/10/84 59/55/84
f 27/10/26 23/22/26 55/56/26
f 96/155/13 51/156/13 52/61/13
f 52/61/85 32/16/85 9/40/85
f 9/40/86 1/41/86 54/157/86
f 54/157/86 95/158/86 112/159/86
f 112/159/87 116/160/87 113/57/87
f 54/157/88 112/159/88 113/57/88
f 96/155/89 52/61/89 9/40/89
f 115/161/90 111/162/90 96/155/90
f 115/161/91 96/155/91 9/40/91
f 9/40/92 54/157/92 113/57/92
f 114/58/93 115/161/93 9/40/93
f 29/21/28 15/19/28 9/59/28
f 29/21/29 32/20/29 23/22/29
f 10/46/30 57/163/30 54/60/30
f 55/56/94 23/22/94 32/16/94
f 84/63/95 72/164/95 57/165/95
f 57/165/96 10/32/96 15/53/96
f 15/53/97 29/25/97 56/62/97
f 56/62/32 73/166/32 84/63/32
f 84/63/32 57/165/32 15/53/32
f 79/64/33 66/167/33 65/168/33
f 68/65/33 69/169/33 3/1/33
f 79/64/33 65/168/33 68/65/33
f 7/53/33 80/170/33 79/64/33
f 68/65/33 3/1/33 7/53/33
f 18/10/98 83/171/98 82/66/98
f 13/22/36 74/77/36 61/172/36
f 60/173/99 67/174/99 70/70/99
f 13/22/36 61/172/36 60/173/36
f 83/171/36 18/10/36 13/22/36
f 77/175/36 83/171/36 13/22/36
f 13/22/36 60/173/36 70/70/36
f 76/71/36 77/175/36 13/22/36
f 63/72/100 64/78/100 25/16/100
f 25/16/101 3/40/101 69/73/101
f 7/19/39 3/59/39 25/20/39
f 18/10/40 21/21/40 25/20/40
f 64/78/102 62/176/102 74/77/102
f 74/77/103 13/22/103 25/16/103
f 81/177/104 80/170/104 7/53/104
f 7/53/105 21/25/105 82/66/105
f 7/53/106 82/66/106 75/79/106
f 78/80/107 81/177/107 7/53/107
f 107/178/43 110/179/43 2/1/43
f 2/1/43 6/53/43 103/180/43
f 2/1/43 103/180/43 99/81/43
f 98/82/43 107/178/43 2/1/43
f 100/181/44 102/97/44 16/25/44
f 16/25/108 12/10/108 109/88/108
f 16/25/109 109/88/109 108/182/109
f 101/84/44 100/181/44 16/25/44
f 16/25/110 108/182/110 106/83/110
f 114/85/111 113/183/111 14/35/111
f 109/88/45 12/10/45 8/22/45
f 8/22/45 90/95/45 91/184/45
f 97/87/112 105/185/112 109/88/112
f 8/22/45 91/184/45 97/87/45
f 110/186/113 85/187/113 86/89/113
f 86/89/10 93/188/10 92/90/10
f 92/90/114 19/16/114 2/40/114
f 2/40/113 110/186/113 86/89/113
f 6/19/48 2/59/48 19/20/48
f 16/21/49 19/20/49 8/22/49
f 95/94/47 94/189/47 14/44/47
f 14/44/47 116/91/47 112/93/47
f 90/95/115 8/22/115 19/16/115
f 19/16/116 92/90/116 88/96/116
f 88/96/117 87/190/117 90/95/117
f 104/98/118 103/180/118 6/53/118
f 6/53/119 16/25/119 102/97/119
f 111/100/52 115/86/52 14/35/52
f 14/35/52 94/191/52 96/99/52
usemtl 
f 11/1/13 59/28/13 55/29/13
f 4/30/13 57/31/13 17/32/13
f 37/25/14 80/33/14 81/34/14
f 33/7/15 36/35/15 44/36/15
f 42/37/16 79/38/16 30/22/16
f 26/11/16 33/7/16 45/39/16
f 11/40/17 4/41/17 103/42/17
f 33/7/18 39/43/18 36/44/18
f 22/19/19 40/20/19 37/21/19
f 37/21/20 30/22/20 35/10/20
f 36/44/18 4/45/18 17/46/18
f 40/16/21 109/47/21 105/48/21
f 39/49/22 47/50/22 110/51/22
f 83/52/23 17/32/23 37/25/23
f 95/116/13 54/117/13 4/30/13
f 17/32/13 57/31/13 72/118/13
f 71/119/13 73/120/13 56/121/13
f 17/32/13 72/118/13 71/119/13
f 94/122/13 95/116/13 4/30/13
f 51/123/13 96/124/13 94/122/13
f 55/29/13 53/125/13 52/126/13
f 52/126/13 51/123/13 94/122/13
f 17/32/13 71/119/13 56/121/13
f 22/53/13 17/32/13 56/121/13
f 52/126/13 94/122/13 4/30/13
f 52/126/13 4/30/13 11/1/13
f 11/1/13 22/53/13 56/121/13
f 11/1/13 56/121/13 58/127/13
f 55/29/13 52/126/13 11/1/13
f 11/1/13 58/127/13 59/28/13
f 4/30/13 54/117/13 57/31/13
f 78/128/68 75/129/68 37/25/68
f 37/25/69 35/10/69 79/38/69
f 37/25/70 79/38/70 80/33/70
f 81/34/71 78/128/71 37/25/71
f 74/130/15 62/131/15 46/132/15
f 36/35/68 77/133/68 76/134/68
f 76/134/15 70/135/15 44/36/15
f 44/36/15 61/136/15 74/130/15
f 74/130/15 46/132/15 33/7/15
f 36/35/15 76/134/15 44/36/15
f 44/36/15 74/130/15 33/7/15
f 97/137/16 91/138/16 42/37/16
f 43/139/16 66/140/16 79/38/16
f 30/22/16 97/137/16 42/37/16
f 42/37/16 43/139/16 79/38/16
f 79/38/16 35/10/16 30/22/16
f 48/141/16 49/142/16 26/11/16
f 33/7/16 46/132/16 45/39/16
f 45/39/16 48/141/16 26/11/16
f 101/143/72 40/16/72 11/40/72
f 4/41/73 39/49/73 98/144/73
f 98/144/43 99/145/43 103/42/43
f 103/42/74 104/146/74 102/147/74
f 100/148/72 101/143/72 11/40/72
f 102/147/17 100/148/17 11/40/17
f 4/41/75 98/144/75 103/42/75
f 103/42/17 102/147/17 11/40/17
f 33/7/18 26/11/18 39/43/18
f 22/19/19 11/59/19 40/20/19
f 37/21/20 40/20/20 30/22/20
f 36/44/18 39/43/18 4/45/18
f 97/137/76 30/22/76 40/16/76
f 40/16/77 101/143/77 106/149/77
f 40/16/77 106/149/77 108/150/77
f 105/48/76 97/137/76 40/16/76
f 40/16/78 108/150/78 109/47/78
f 39/49/79 26/11/79 49/142/79
f 39/49/80 49/142/80 50/151/80
f 107/152/77 98/144/77 39/49/77
f 47/50/22 85/153/22 110/51/22
f 110/51/81 107/152/81 39/49/81
f 39/49/22 50/151/22 47/50/22
f 83/52/23 77/133/23 36/35/23
f 17/32/82 22/53/82 37/25/82
f 37/25/23 75/129/23 82/154/23
f 83/52/23 36/35/23 17/32/23
f 37/25/23 82/154/23 83/52/23
