# Blender 4.1.0
# www.blender.org
mtllib Rack.mtl
o 一段目仕切り
v -0.900000 1.950000 0.050000
v 1.000000 0.550000 0.050000
v 1.000000 1.950000 0.050000
v -0.900000 0.550000 0.050000
v -0.900000 1.950000 -0.050000
v -0.900000 0.550000 -0.050000
v 1.000000 0.550000 -0.050000
v 1.000000 1.950000 -0.050000
vn -0.0000 -0.0000 1.0000
vn -0.0000 -0.0000 -1.0000
vn 1.0000 -0.0000 -0.0000
vt 0.378827 0.237500
vt 0.616253 0.000000
vt 0.616253 0.237500
vt 0.616253 0.512500
vt 0.378827 0.750000
vt 0.378827 0.512500
vt 0.616253 0.750000
vt 0.378827 1.000000
vt 0.378827 0.000000
vt 0.616253 1.000000
s 0
usemtl wood
f 4/1/1 3/2/1 1/3/1
f 5/4/2 7/5/2 6/6/2
f 8/7/3 2/8/3 7/5/3
f 4/1/1 2/9/1 3/2/1
f 5/4/2 8/7/2 7/5/2
f 8/7/3 3/10/3 2/8/3
o 一段目面
v 1.000000 0.450000 3.899989
v 1.000000 0.450000 -3.900000
v -0.900000 0.550000 3.899990
v -0.900000 0.550000 -3.900000
v 1.000000 0.550000 3.899989
v 1.000000 0.550000 -3.900000
vn -0.0000 1.0000 -0.0000
vn 1.0000 -0.0000 -0.0000
vt 0.622695 0.512500
vt 0.377305 0.750000
vt 0.377305 0.512500
vt 0.622695 0.750000
vt 0.377305 1.000000
vt 0.622695 1.000000
s 0
usemtl wood
f 11/11/4 14/12/4 12/13/4
f 13/14/5 10/15/5 14/12/5
f 11/11/4 13/14/4 14/12/4
f 13/14/5 9/16/5 10/15/5
o 二段目仕切り右
v -0.900000 3.450000 -1.200000
v 1.000000 2.050000 -1.200000
v 1.000000 3.450000 -1.200000
v -0.900000 2.050000 -1.200000
v -0.900000 3.450000 -1.300000
v -0.900000 2.050000 -1.300000
v 1.000000 2.050000 -1.300000
v 1.000000 3.450000 -1.300000
vn -0.0000 -0.0000 1.0000
vn -0.0000 -0.0000 -1.0000
vn 1.0000 -0.0000 -0.0000
vt 0.378827 0.237500
vt 0.616253 0.000000
vt 0.616253 0.237500
vt 0.616253 0.512500
vt 0.378827 0.750000
vt 0.378827 0.512500
vt 0.616253 0.750000
vt 0.378827 1.000000
vt 0.378827 0.000000
vt 0.616253 1.000000
s 0
usemtl wood
f 18/17/6 17/18/6 15/19/6
f 19/20/7 21/21/7 20/22/7
f 22/23/8 16/24/8 21/21/8
f 18/17/6 16/25/6 17/18/6
f 19/20/7 22/23/7 21/21/7
f 22/23/8 17/26/8 16/24/8
o 二段目仕切り左
v -0.900000 3.450000 1.300000
v 1.000000 2.050000 1.300000
v 1.000000 3.450000 1.300000
v -0.900000 2.050000 1.300000
v -0.900000 3.450000 1.200000
v -0.900000 2.050000 1.200000
v 1.000000 2.050000 1.200000
v 1.000000 3.450000 1.200000
vn -0.0000 -0.0000 1.0000
vn -0.0000 -0.0000 -1.0000
vn 1.0000 -0.0000 -0.0000
vt 0.378827 0.237500
vt 0.616253 0.000000
vt 0.616253 0.237500
vt 0.616253 0.512500
vt 0.378827 0.750000
vt 0.378827 0.512500
vt 0.616253 0.750000
vt 0.378827 1.000000
vt 0.378827 0.000000
vt 0.616253 1.000000
s 0
usemtl wood
f 26/27/9 25/28/9 23/29/9
f 27/30/10 29/31/10 28/32/10
f 30/33/11 24/34/11 29/31/11
f 26/27/9 24/35/9 25/28/9
f 27/30/10 30/33/10 29/31/10
f 30/33/11 25/36/11 24/34/11
o 二段目面
v -0.900000 1.950000 0.050000
v 1.000000 1.950000 0.050000
v -0.900000 1.950000 -0.050000
v 1.000000 1.950000 -0.050000
v -0.900000 1.950000 3.899990
v 1.000000 1.950000 3.899989
v 1.000000 1.950000 -0.050000
v 1.000000 1.950000 -3.900000
v 1.000000 1.950000 0.050000
v -0.900000 1.950000 0.050000
v -0.900000 1.950000 -0.050000
v -0.900000 1.950000 -3.900000
v -0.900000 2.050000 3.899990
v -0.900000 2.050000 -3.900000
v 1.000000 2.050000 3.899989
v 1.000000 2.050000 -3.900000
vn -0.0000 -1.0000 -0.0000
vn -0.0000 1.0000 -0.0000
vn 1.0000 -0.0000 -0.0000
vn -0.0000 -0.0000 -1.0000
vn -0.0000 -0.0000 1.0000
vn 0.9999 -0.0000 -0.0148
vt 0.498427 0.237500
vt 0.377305 0.000000
vt 0.498427 0.000000
vt 0.501573 0.000000
vt 0.622695 0.237500
vt 0.501573 0.237500
vt 0.622695 0.512500
vt 0.377305 0.750000
vt 0.377305 0.512500
vt 0.622695 0.750000
vt 0.501573 1.000000
vt 0.498427 1.000000
vt 0.616253 0.237500
vt 0.616253 0.000000
vt 0.616253 0.750000
vt 0.616253 0.512500
vt 0.501573 0.237500
vt 0.377305 0.237500
vt 0.622695 0.000000
vt 0.622695 1.000000
vt 0.377305 1.000000
vt 0.616253 0.512500
vt 0.498427 0.000000
s 0
usemtl wood
f 41/37/12 38/38/12 37/39/12
f 39/40/12 35/41/12 40/42/12
f 43/43/13 46/44/13 44/45/13
f 45/46/14 32/47/14 34/48/14
f 31/49/15 39/50/15 40/49/15
f 34/51/16 41/52/16 37/51/16
f 33/37/12 32/40/12 31/53/12
f 41/37/12 42/54/12 38/38/12
f 39/40/12 36/55/12 35/41/12
f 43/43/13 45/46/13 46/44/13
f 45/46/14 36/56/14 39/47/14
f 45/46/17 39/47/17 32/47/17
f 38/57/14 46/44/14 34/48/14
f 46/44/14 45/46/14 34/48/14
f 34/48/14 37/48/14 38/57/14
f 31/49/15 32/50/15 39/50/15
f 34/51/16 33/58/16 41/52/16
f 33/37/12 34/59/12 32/40/12
o 三段目仕切り
v -0.900000 4.950000 0.050000
v 1.000000 3.550000 0.050000
v 1.000000 4.950000 0.050000
v -0.900000 3.550000 0.050000
v -0.900000 4.950000 -0.050000
v -0.900000 3.550000 -0.050000
v 1.000000 3.550000 -0.050000
v 1.000000 4.950000 -0.050000
vn -0.0000 -0.0000 1.0000
vn -0.0000 -0.0000 -1.0000
vn 1.0000 -0.0000 -0.0000
vt 0.378827 0.237500
vt 0.616253 0.000000
vt 0.616253 0.237500
vt 0.616253 0.512500
vt 0.378827 0.750000
vt 0.378827 0.512500
vt 0.616253 0.750000
vt 0.378827 1.000000
vt 0.378827 0.000000
vt 0.616253 1.000000
s 0
usemtl wood
f 50/60/18 49/61/18 47/62/18
f 51/63/19 53/64/19 52/65/19
f 54/66/20 48/67/20 53/64/20
f 50/60/18 48/68/18 49/61/18
f 51/63/19 54/66/19 53/64/19
f 54/66/20 49/69/20 48/67/20
o 三段目面
v -0.900000 3.450000 3.899990
v 1.000000 3.450000 3.899989
v 1.000000 3.450001 -3.900000
v -0.900000 3.450000 -3.900000
v -0.900000 3.550000 3.899990
v -0.900000 3.550000 -3.900000
v 1.000000 3.550000 3.899989
v 1.000000 3.550001 -3.900000
vn -0.0000 -1.0000 -0.0000
vn -0.0000 1.0000 -0.0000
vn 1.0000 -0.0000 -0.0000
vt 0.622695 0.237500
vt 0.377305 0.000000
vt 0.622695 0.000000
vt 0.622695 0.512500
vt 0.377305 0.750000
vt 0.377305 0.512500
vt 0.622695 0.750000
vt 0.377305 1.000000
vt 0.377305 0.237500
vt 0.622695 1.000000
s 0
usemtl wood
f 55/70/21 57/71/21 56/72/21
f 59/73/22 62/74/22 60/75/22
f 61/76/23 57/77/23 62/74/23
f 55/70/21 58/78/21 57/71/21
f 59/73/22 61/76/22 62/74/22
f 61/76/23 56/79/23 57/77/23
o 四段目面
v -0.900000 4.950000 3.899990
v 1.000000 4.950000 3.899989
v 1.000000 4.950000 -3.900000
v -0.900000 4.950000 -3.900000
v -0.900000 5.050000 3.899990
v -0.900000 5.050000 -3.900000
v 1.000000 5.050000 3.899989
v 1.000000 5.050000 -3.900000
vn -0.0000 -1.0000 -0.0000
vn -0.0000 1.0000 -0.0000
vn 1.0000 -0.0000 -0.0000
vt 0.622695 0.000000
vt 0.377305 0.237500
vt 0.377305 0.000000
vt 0.622695 0.512500
vt 0.377305 0.750000
vt 0.377305 0.512500
vt 0.622695 0.750000
vt 0.377305 1.000000
vt 0.622695 0.237500
vt 0.622695 1.000000
s 0
usemtl wood
f 64/80/24 66/81/24 65/82/24
f 67/83/25 70/84/25 68/85/25
f 69/86/26 65/87/26 70/84/26
f 64/80/24 63/88/24 66/81/24
f 67/83/25 69/86/25 70/84/25
f 69/86/26 64/89/26 65/87/26
o 右面
v 1.000000 0.000000 -3.900000
v 1.000000 6.000000 -3.900000
v 1.000000 0.000000 -4.000000
v 1.000000 6.000000 -4.000000
v -0.900000 6.000000 -3.900000
v -0.900000 0.000000 -3.900000
v -0.900000 6.000000 -4.000000
v -0.900000 0.000000 -4.000000
vn -0.0000 -0.0000 1.0000
vn -0.0000 -0.0000 -1.0000
vn 1.0000 -0.0000 -0.0000
vn -0.0000 1.0000 -0.0000
vt 0.375000 0.000000
vt 0.625000 0.237500
vt 0.375000 0.237500
vt 0.625000 0.750000
vt 0.375000 0.512500
vt 0.625000 0.512500
vt 0.375000 1.000000
vt 0.375000 0.750000
vt 0.875000 0.750000
vt 0.875000 0.512500
vt 0.625000 0.000000
vt 0.625000 1.000000
s 0
usemtl wood
f 71/90/27 75/91/27 76/92/27
f 74/93/28 78/94/28 77/95/28
f 74/93/29 71/96/29 73/97/29
f 72/98/30 77/95/30 75/99/30
f 71/90/27 72/100/27 75/91/27
f 74/93/28 73/97/28 78/94/28
f 74/93/29 72/101/29 71/96/29
f 72/98/30 74/93/30 77/95/30
o 奥面
v -1.000000 0.000000 4.000000
v -1.000000 6.000000 4.000000
v -1.000000 0.000000 -4.000000
v -1.000000 6.000000 -4.000000
v -0.900000 0.000000 4.000000
v -0.900000 6.000000 4.000000
v -0.900000 0.000000 -4.000000
v -0.900000 6.000000 -4.000000
vn -0.0000 -0.0000 -1.0000
vn 1.0000 -0.0000 -0.0000
vn -0.0000 -0.0000 1.0000
vn -0.0000 -1.0000 -0.0000
vn -0.0000 1.0000 -0.0000
vt 0.625000 0.250000
vt 0.375000 0.500000
vt 0.375000 0.250000
vt 0.625000 0.500000
vt 0.375000 0.750000
vt 0.625000 0.750000
vt 0.375000 1.000000
vt 0.125000 0.750000
vt 0.125000 0.500000
vt 0.875000 0.500000
vt 0.625000 1.000000
vt 0.875000 0.750000
s 0
usemtl wood
f 82/102/31 85/103/31 81/104/31
f 86/105/32 83/106/32 85/103/32
f 84/107/33 79/108/33 83/106/33
f 85/103/34 79/109/34 81/110/34
f 82/111/35 84/107/35 86/105/35
f 82/102/31 86/105/31 85/103/31
f 86/105/32 84/107/32 83/106/32
f 84/107/33 80/112/33 79/108/33
f 85/103/34 83/106/34 79/109/34
f 82/111/35 80/113/35 84/107/35
o 左面
v 1.000000 0.000000 3.999989
v 1.000000 6.000000 3.999989
v 1.000000 0.000000 3.899989
v 1.000000 6.000000 3.899989
v -0.900000 6.000000 3.999990
v -0.900000 0.000000 3.999990
v -0.900000 6.000000 3.899989
v -0.900000 0.000000 3.899989
vn -0.0000 -0.0000 1.0000
vn -0.0000 -0.0000 -1.0000
vn 1.0000 -0.0000 -0.0000
vn -0.0000 1.0000 -0.0000
vt 0.375000 0.000000
vt 0.625000 0.237500
vt 0.375000 0.237500
vt 0.375000 0.750000
vt 0.625000 0.512500
vt 0.625000 0.750000
vt 0.375000 1.000000
vt 0.875000 0.750000
vt 0.875000 0.512500
vt 0.625000 0.000000
vt 0.375000 0.512500
vt 0.625000 1.000000
s 0
usemtl wood
f 87/114/36 91/115/36 92/116/36
f 89/117/37 93/118/37 90/119/37
f 90/119/38 87/120/38 89/117/38
f 88/121/39 93/118/39 91/122/39
f 87/114/36 88/123/36 91/115/36
f 89/117/37 94/124/37 93/118/37
f 90/119/38 88/125/38 87/120/38
f 88/121/39 90/119/39 93/118/39
