# Blender 4.1.0
# www.blender.org
mtllib TrashBag.mtl
o TrashBag
v 1.975193 0.345435 -0.000000
v -1.818572 3.422317 0.000000
v -1.495513 0.126669 0.000000
v -2.148530 2.290247 0.000000
v -1.770502 0.235440 0.000000
v 0.840358 4.228581 -0.000000
v 0.092763 4.306905 -0.046351
v -0.216429 4.338428 -0.119440
v 0.270078 4.908777 -0.000000
v 0.207967 5.272087 -0.000000
v 2.004544 3.186459 -0.000000
v 2.447728 2.329625 -0.000000
v 2.303343 1.172371 -0.000000
v 0.960282 0.121824 -0.000000
v -1.032922 4.049680 0.000000
v -0.209816 5.493638 0.000000
v -0.594109 5.308170 -0.252019
v -0.583904 4.878839 -0.307446
v -0.663739 5.159415 -0.252019
v 0.000000 0.345435 1.975193
v 0.000000 2.290247 -2.148530
v 0.000000 0.235440 -1.770502
v 0.000000 3.422317 -1.818572
v 0.000000 1.172371 2.303343
v 0.000000 4.228581 0.840358
v 0.111267 4.767088 -0.692132
v 0.031321 5.092151 -0.686822
v 0.000000 3.186459 2.004544
v 0.000000 2.329625 2.447728
v 0.000000 4.908777 0.270078
v 0.000000 0.126669 -1.495513
v 0.000000 4.049680 -1.032922
v 0.000000 5.272087 0.207967
v -0.071726 4.372959 -0.345284
v 0.000000 4.347093 0.109189
v 0.000000 0.121824 0.960282
v 0.031321 5.240906 -0.617192
v 0.060675 5.516821 -0.010229
v 1.396673 0.345435 1.396673
v -1.057487 0.126669 -1.057487
v 1.730805 2.329625 1.730805
v 1.628709 1.172371 1.628709
v 0.077208 4.347093 0.077208
v -0.213879 4.343963 -0.306297
v 0.147055 5.272087 0.147055
v -0.730386 4.049680 -0.730386
v 1.417427 3.186459 1.417427
v -1.285925 3.422317 -1.285925
v -1.519240 2.290247 -1.519240
v -1.251934 0.235440 -1.251934
v 0.679022 0.121824 0.679022
v 0.010807 0.003281 -0.007723
v 0.594223 4.228581 0.594223
v 0.190974 4.908777 0.190974
v -0.435567 4.639743 -0.373582
v -0.333722 4.925637 -0.558504
v -0.679022 0.121824 0.679022
v -0.594223 4.228581 0.594223
v -0.077208 4.347093 0.077208
v 1.057487 0.126669 -1.057487
v -1.730805 2.329625 1.730805
v -1.628709 1.172371 1.628709
v 1.251934 0.235440 -1.251934
v 0.730386 4.049680 -0.730386
v -0.190974 4.908777 0.190974
v -0.147055 5.272087 0.147055
v 0.160911 5.493638 -0.084986
v -1.417427 3.186459 1.417427
v -1.396673 0.345435 1.396673
v 1.285925 3.422317 -1.285925
v 1.519240 2.290247 -1.519240
v 0.123034 4.333216 -0.168931
v 0.411984 4.809487 -0.430699
v 0.323304 5.123492 -0.342020
v 0.017989 5.402401 0.131896
v -0.337069 5.128085 -0.558659
v -0.116182 5.468214 -0.024011
v 0.274068 5.272247 -0.292784
v -0.061420 4.336871 -0.131038
v 0.029469 4.336871 -0.131038
v 0.029469 4.336871 -0.205422
v -0.031091 4.303658 -0.185950
v -0.031091 4.303658 -0.185950
vn 0.3167 0.5612 0.7647
vn 0.2663 0.7182 0.6429
vn -0.2663 0.7182 0.6429
vn -0.3167 0.5612 0.7647
vn -0.5472 0.8370 -0.0044
vn -0.4412 0.7814 -0.4412
vn -0.6041 0.7566 -0.2502
vn 0.0107 0.8450 -0.5346
vn -0.3880 0.8391 -0.3812
vn 0.2502 0.7566 -0.6041
vn -0.0000 0.7814 -0.6240
vn 0.6348 0.7347 -0.2392
vn 0.3736 0.8431 -0.3868
vn 0.4401 0.8629 -0.2483
vn 0.6429 0.7182 0.2663
vn 0.7647 0.5612 0.3167
vn -0.3453 0.4312 0.8336
vn -0.9665 0.0806 0.2436
vn -0.9033 0.3545 0.2417
vn -0.9148 0.2666 0.3033
vn 0.8096 0.3545 -0.4678
vn 0.8557 0.0806 -0.5112
vn 0.8613 0.2666 -0.4324
vn -0.6180 0.7347 0.2798
vn -0.3770 0.9153 0.1420
vn -0.3823 0.0445 -0.9230
vn -0.3695 0.2600 -0.8921
vn -0.8921 0.2600 -0.3695
vn -0.9230 0.0445 -0.3823
vn 0.3823 0.0445 -0.9230
vn 0.3695 0.2600 -0.8921
vn 0.8336 0.4312 0.3453
vn 0.3453 0.4312 0.8336
vn -0.3730 -0.2238 0.9004
vn -0.3802 -0.1145 0.9178
vn -0.9539 -0.1959 0.2275
vn -0.9510 -0.2249 0.2122
vn -0.9108 -0.1676 -0.3773
vn -0.3773 -0.1676 -0.9108
vn 0.3773 -0.1676 -0.9108
vn 0.8354 -0.1959 -0.5136
vn 0.8432 0.1405 -0.5190
vn 0.9004 -0.2238 0.3730
vn 0.9178 -0.1145 0.3802
vn 0.3802 -0.1145 0.9178
vn 0.3730 -0.2238 0.9004
vn -0.3593 -0.3442 0.8674
vn -0.9053 -0.3293 0.2682
vn -0.3678 -0.9297 0.0189
vn -0.1850 -0.9652 -0.1849
vn -0.2535 -0.9671 0.0218
vn -0.0000 -0.9299 -0.3678
vn -0.2601 -0.9299 -0.2601
vn 0.2734 -0.9297 -0.2467
vn -0.0000 -0.9651 -0.2617
vn 0.8298 -0.3293 -0.4505
vn 0.8225 -0.2249 -0.5224
vn 0.8674 -0.3442 0.3593
vn 0.3593 -0.3442 0.8674
vn 0.1275 -0.9836 0.1277
vn -0.0000 -0.9766 0.2152
vn -0.0001 -0.9837 0.1800
vn 0.2303 -0.9723 0.0405
vn 0.1737 -0.9839 0.0428
vn 0.1950 -0.9670 -0.1641
vn -0.1342 -0.9723 0.1915
vn -0.0919 -0.9841 0.1520
vn 0.0112 -0.9997 0.0237
vn -0.2193 0.8988 -0.3795
vn -0.3157 0.9307 -0.1844
vn 0.2068 0.9715 -0.1158
vn 0.4699 0.8167 -0.3349
vn 0.0873 0.9694 0.2296
vn 0.1552 0.9877 0.0178
vn 0.1044 0.9945 -0.0035
vn 0.1131 0.9871 0.1131
vn -0.0000 0.9871 0.1600
vn -0.1093 0.9871 0.1170
vn -0.2823 0.9591 0.0226
vn -0.8198 -0.5670 0.0804
vn -0.8224 -0.5689 -0.0040
vn -0.8220 -0.5687 -0.0281
vn -0.2745 -0.4637 -0.8424
vn -0.3532 -0.3949 -0.8482
vn -0.4430 -0.2509 -0.8607
vn 0.4615 -0.6778 -0.5724
vn 0.5161 -0.6536 -0.5536
vn 0.5567 -0.6333 -0.5377
vn 0.9229 -0.3048 0.2353
vn 0.9408 -0.0480 0.3357
vn 0.9377 -0.2909 0.1900
vn 0.9279 -0.2857 0.2396
vn 0.3699 -0.2558 0.8931
vn 0.3822 -0.0481 0.9228
vn -0.3822 -0.0481 0.9228
vn -0.3699 -0.2558 0.8931
vn -0.7621 -0.2830 0.5824
vn -0.7474 -0.2977 0.5940
vn -0.7364 -0.3138 0.5994
vn -0.2273 0.1261 -0.9656
vn -0.0571 -0.5278 -0.8475
vn 0.6865 0.3480 -0.6385
vn 0.6803 0.2661 -0.6829
vn 0.7303 0.2385 -0.6401
vn 0.9486 0.1959 0.2484
vn 0.8855 0.3015 0.3535
vn 0.9228 -0.0481 0.3822
vn 0.3672 0.2818 0.8864
vn -0.4681 0.2997 0.8313
vn -0.4601 0.0156 0.8877
vn -0.7327 -0.3264 0.5972
vn -0.5192 0.0676 -0.8520
vn -0.6874 0.1208 -0.7162
vn -0.6378 0.2986 -0.7100
vn -0.2868 0.3023 -0.9091
vn -0.2640 0.4089 -0.8736
vn 0.7147 0.3219 -0.6210
vn 0.7059 0.4219 -0.5690
vn 0.7890 0.3919 0.4732
vn 0.6747 0.5266 0.5172
vn 0.6666 0.6924 0.2761
vn 0.3696 0.2590 0.8924
vn 0.3441 0.4375 0.8308
vn -0.3612 0.3303 0.8720
vn -0.3092 0.4866 0.8171
vn -0.6231 0.2944 0.7246
vn -0.6254 0.2502 0.7391
vn 0.0458 0.7699 -0.6365
vn 0.5797 0.5408 0.6095
vn -0.2602 0.7888 0.5569
vn 0.2939 0.9446 0.1458
vn 0.6291 0.7471 -0.2146
vn -0.9632 0.1405 0.2293
vn -0.5966 0.7471 0.2932
vn 0.1521 -0.9766 0.1521
vn 0.1176 0.9486 -0.2937
vn -0.8049 -0.5564 0.2061
vn -0.1819 -0.3458 -0.9205
vn 0.3927 -0.7036 -0.5923
vn 0.8716 -0.3293 0.3631
vn -0.7797 -0.2721 0.5640
vn -0.6060 -0.0723 -0.7922
vn -0.7318 -0.1667 -0.6608
vn -0.4823 -0.1044 -0.8697
vn 0.5797 0.3689 -0.7266
vn 0.9445 0.1913 0.2671
vn 0.9126 0.1560 0.3780
vn 0.9436 0.2534 0.2132
vn -0.5268 0.3614 0.7693
vn 0.1972 0.1040 -0.9748
vn 0.0950 0.0983 -0.9906
vn 0.3992 0.1055 -0.9108
vn 0.0048 0.0948 -0.9955
vn 0.0498 0.1004 -0.9937
vn -0.6673 0.1052 -0.7373
vn -0.7543 0.1115 -0.6470
vn -0.5803 0.0981 -0.8085
vn -0.8156 0.1153 -0.5670
vn -0.7854 0.2579 0.5627
vn 0.7941 0.4789 0.3742
vn 0.8621 0.4381 0.2548
vn 0.8757 0.4269 0.2255
vn 0.0194 0.4151 0.9096
vn 0.0481 0.4257 0.9036
vn 0.0177 0.4144 0.9099
vn -0.4809 0.8768 -0.0000
vn -0.9675 0.2530 -0.0000
vn 0.7902 0.4807 0.3801
vn 0.0552 0.4282 0.9020
vn -0.0000 0.8557 -0.5175
vt 0.000000 0.000000
s 1
usemtl TrashBag
f 47/1/1 25/1/2 28/1/1
f 25/1/3 68/1/4 28/1/4
f 15/1/5 48/1/6 2/1/7
f 32/1/8 48/1/6 46/1/9
f 32/1/8 70/1/10 23/1/11
f 11/1/12 64/1/13 6/1/14
f 6/1/15 47/1/16 11/1/16
f 28/1/4 61/1/17 29/1/17
f 4/1/18 68/1/19 2/1/20
f 11/1/21 71/1/22 70/1/23
f 15/1/5 68/1/24 58/1/25
f 21/1/26 48/1/27 23/1/27
f 48/1/28 4/1/29 2/1/28
f 71/1/30 23/1/31 70/1/31
f 11/1/16 41/1/32 12/1/32
f 41/1/33 28/1/1 29/1/33
f 24/1/34 61/1/35 62/1/34
f 62/1/36 4/1/18 5/1/37
f 49/1/29 5/1/38 4/1/29
f 22/1/39 49/1/26 21/1/26
f 71/1/30 22/1/40 21/1/30
f 13/1/41 71/1/22 12/1/42
f 13/1/43 41/1/44 42/1/43
f 41/1/45 24/1/46 42/1/46
f 24/1/34 69/1/47 20/1/47
f 69/1/48 62/1/36 5/1/37
f 5/1/49 40/1/50 3/1/51
f 22/1/52 40/1/50 50/1/53
f 63/1/54 31/1/55 22/1/52
f 1/1/56 63/1/57 13/1/41
f 39/1/58 13/1/43 42/1/43
f 42/1/46 20/1/59 39/1/59
f 51/1/60 20/1/61 36/1/62
f 1/1/63 51/1/60 14/1/64
f 60/1/65 1/1/63 14/1/64
f 3/1/51 69/1/66 5/1/49
f 20/1/61 57/1/67 36/1/62
f 52/1/68 14/1/64 51/1/60
f 14/1/64 52/1/68 60/1/65
f 31/1/55 60/1/65 52/1/68
f 31/1/55 52/1/68 40/1/50
f 57/1/67 3/1/51 52/1/68
f 52/1/68 36/1/62 57/1/67
f 51/1/60 36/1/62 52/1/68
f 3/1/51 40/1/50 52/1/68
f 34/1/69 46/1/9 44/1/70
f 72/1/71 32/1/8 34/1/72
f 6/1/14 72/1/71 7/1/73
f 6/1/74 43/1/75 53/1/76
f 25/1/77 43/1/75 35/1/77
f 25/1/77 59/1/78 58/1/25
f 58/1/25 8/1/79 15/1/5
f 44/1/70 15/1/5 8/1/79
f 18/1/80 44/1/81 8/1/82
f 34/1/83 55/1/84 26/1/85
f 72/1/86 26/1/87 73/1/88
f 72/1/89 9/1/90 7/1/91
f 9/1/90 43/1/92 7/1/91
f 43/1/93 30/1/94 35/1/93
f 30/1/95 59/1/96 35/1/96
f 8/1/97 65/1/98 18/1/99
f 19/1/100 55/1/100 18/1/100
f 27/1/101 55/1/101 56/1/101
f 74/1/102 26/1/103 27/1/104
f 9/1/90 74/1/105 10/1/106
f 10/1/106 54/1/107 9/1/90
f 54/1/94 33/1/108 30/1/94
f 30/1/95 66/1/109 65/1/110
f 65/1/98 19/1/111 18/1/99
f 76/1/112 19/1/113 17/1/114
f 27/1/115 76/1/112 37/1/116
f 74/1/102 37/1/117 78/1/118
f 67/1/119 75/1/120 10/1/106
f 10/1/106 75/1/120 45/1/121
f 33/1/108 45/1/122 75/1/123
f 66/1/109 33/1/124 75/1/125
f 17/1/126 19/1/127 66/1/109
f 77/1/128 17/1/128 16/1/128
f 67/1/119 38/1/129 75/1/120
f 77/1/130 75/1/130 38/1/130
f 77/1/131 16/1/131 75/1/131
f 47/1/1 53/1/2 25/1/2
f 25/1/3 58/1/3 68/1/4
f 15/1/5 46/1/9 48/1/6
f 32/1/8 23/1/11 48/1/6
f 32/1/8 64/1/13 70/1/10
f 11/1/12 70/1/132 64/1/13
f 6/1/15 53/1/15 47/1/16
f 28/1/4 68/1/4 61/1/17
f 4/1/18 61/1/133 68/1/19
f 11/1/21 12/1/42 71/1/22
f 15/1/5 2/1/134 68/1/24
f 21/1/26 49/1/26 48/1/27
f 48/1/28 49/1/29 4/1/29
f 71/1/30 21/1/30 23/1/31
f 11/1/16 47/1/16 41/1/32
f 41/1/33 47/1/1 28/1/1
f 24/1/34 29/1/35 61/1/35
f 62/1/36 61/1/133 4/1/18
f 49/1/29 50/1/38 5/1/38
f 22/1/39 50/1/39 49/1/26
f 71/1/30 63/1/40 22/1/40
f 13/1/41 63/1/57 71/1/22
f 13/1/43 12/1/44 41/1/44
f 41/1/45 29/1/45 24/1/46
f 24/1/34 62/1/34 69/1/47
f 5/1/49 50/1/53 40/1/50
f 22/1/52 31/1/55 40/1/50
f 63/1/54 60/1/65 31/1/55
f 39/1/58 1/1/58 13/1/43
f 42/1/46 24/1/46 20/1/59
f 51/1/60 39/1/135 20/1/61
f 1/1/63 39/1/135 51/1/60
f 60/1/65 63/1/54 1/1/63
f 3/1/51 57/1/67 69/1/66
f 20/1/61 69/1/66 57/1/67
f 34/1/69 32/1/8 46/1/9
f 72/1/71 64/1/13 32/1/8
f 6/1/14 64/1/13 72/1/71
f 6/1/74 7/1/136 43/1/75
f 25/1/77 53/1/76 43/1/75
f 25/1/77 35/1/77 59/1/78
f 58/1/25 59/1/78 8/1/79
f 44/1/70 46/1/9 15/1/5
f 18/1/80 55/1/137 44/1/81
f 34/1/83 44/1/138 55/1/84
f 72/1/86 34/1/139 26/1/87
f 72/1/89 73/1/140 9/1/90
f 9/1/90 54/1/107 43/1/92
f 43/1/93 54/1/94 30/1/94
f 30/1/95 65/1/110 59/1/96
f 8/1/97 59/1/141 65/1/98
f 19/1/113 56/1/142 55/1/143
f 27/1/144 26/1/85 55/1/84
f 74/1/102 73/1/145 26/1/103
f 9/1/90 73/1/146 74/1/105
f 10/1/106 45/1/147 54/1/107
f 54/1/94 45/1/122 33/1/108
f 30/1/95 33/1/124 66/1/109
f 65/1/110 66/1/109 19/1/127
f 76/1/112 56/1/142 19/1/113
f 27/1/115 56/1/142 76/1/112
f 74/1/102 27/1/104 37/1/117
f 10/1/106 74/1/105 78/1/148
f 78/1/148 67/1/119 10/1/106
f 75/1/125 16/1/149 66/1/109
f 16/1/149 17/1/126 66/1/109
f 77/1/150 79/1/151 17/1/152
f 80/1/153 77/1/150 38/1/154
f 67/1/155 80/1/156 38/1/157
f 78/1/158 80/1/156 67/1/155
f 37/1/159 81/1/159 78/1/159
f 76/1/160 79/1/161 83/1/162
f 76/1/163 81/1/164 37/1/165
f 83/1/166 80/1/166 81/1/166
f 80/1/153 79/1/151 77/1/150
f 78/1/167 81/1/167 80/1/167
f 76/1/160 17/1/168 79/1/161
f 76/1/163 83/1/169 81/1/164
f 83/1/170 79/1/170 80/1/170
l 82 83
l 81 82
