# Blender 4.1.0
# www.blender.org
mtllib DeliveryItem.mtl
o Cardboard
v -3.000000 0.000000 3.900001
v -3.000000 4.500000 3.900001
v -3.000000 0.000000 -3.900001
v -3.000000 4.500000 -3.900001
v 3.000000 0.000000 3.900001
v 3.000000 4.500000 3.900001
v 3.000000 0.000000 -3.900001
v 3.000000 4.500000 -3.900001
v 0.300000 0.000000 -3.900001
v -0.300000 0.000000 -3.900001
v -0.300000 4.500000 -3.900001
v 0.300000 4.500000 -3.900001
v -0.300000 0.000000 3.900001
v 0.300000 0.000000 3.900001
v 0.300000 4.500000 3.900001
v -0.300000 4.500000 3.900001
v -3.000000 3.300000 3.900001
v -3.000000 3.600000 3.900001
v -3.000000 3.600000 -3.900001
v -3.000000 3.300000 -3.900001
v 3.000000 3.600000 -3.900001
v 3.000000 3.300000 -3.900001
v 3.000000 3.600000 3.900001
v 3.000000 3.300000 3.900001
v 0.300000 3.600000 3.900001
v 0.300000 3.300000 3.900001
v -0.300000 3.600000 3.900001
v -0.300000 3.300000 3.900001
v -0.300000 3.600000 -3.900001
v -0.300000 3.300000 -3.900001
v 0.300000 3.600000 -3.900001
v 0.300000 3.300000 -3.900001
v 0.300000 4.500000 3.930000
v -0.300000 4.500000 3.930000
v 0.300000 3.600000 3.930000
v -0.300000 3.600000 3.930000
v -0.300000 4.500000 -3.930000
v 0.300000 4.500000 -3.930000
v -0.300000 3.600000 -3.930000
v 0.300000 3.600000 -3.930000
v -0.300000 4.530000 -3.900001
v 0.300000 4.530000 -3.900001
v 0.300000 4.530000 3.900001
v -0.300000 4.530000 3.900001
v 0.300000 4.530000 3.930000
v -0.300000 4.530000 3.930000
v -0.300000 4.530000 -3.930000
v 0.300000 4.530000 -3.930000
v -0.435000 0.000000 -3.900001
v -0.435000 4.500000 3.900001
v -0.435000 4.500000 -3.900001
v -0.435000 0.000000 3.900001
v -0.435000 3.300000 -3.900001
v -0.435000 3.600000 -3.900001
v -0.435000 3.300000 3.900001
v -0.435000 3.600000 3.900001
v 0.435000 4.500000 -3.900001
v 0.435000 0.000000 3.900001
v 0.435000 0.000000 -3.900001
v 0.435000 4.500000 3.900001
v 0.435000 3.300000 3.900001
v 0.435000 3.600000 3.900001
v 0.435000 3.300000 -3.900001
v 0.435000 3.600000 -3.900001
v 0.300000 3.600000 3.810000
v 0.300000 3.300000 3.810000
v -0.300000 3.600000 3.810000
v -0.300000 3.300000 3.810000
v 0.435000 3.300000 3.810000
v 0.435000 3.600000 3.810000
v -0.435000 3.300000 3.810000
v -0.435000 3.600000 3.810000
v -0.300000 3.600000 -3.780000
v -0.300000 3.300000 -3.780000
v 0.300000 3.600000 -3.780000
v 0.300000 3.300000 -3.780000
v -0.435000 3.300000 -3.780000
v -0.435000 3.600000 -3.780000
v 0.435000 3.300000 -3.780000
v 0.435000 3.600000 -3.780000
vn -1.0000 -0.0000 -0.0000
vn -0.0000 -0.0000 -1.0000
vn 1.0000 -0.0000 -0.0000
vn -0.0000 -0.0000 1.0000
vn -0.0000 -1.0000 -0.0000
vn -0.0000 1.0000 -0.0000
vt 0.625000 0.000000
vt 0.541667 0.250000
vt 0.541667 0.000000
vt 0.625000 0.393125
vt 0.541667 0.500000
vt 0.541667 0.393125
vt 0.625000 0.500000
vt 0.541667 0.750000
vt 0.625000 0.893125
vt 0.541667 1.000000
vt 0.541667 0.893125
vt 0.375000 0.500000
vt 0.268125 0.750000
vt 0.268125 0.500000
vt 0.875000 0.500000
vt 0.768125 0.750000
vt 0.768125 0.500000
vt 0.737500 0.500000
vt 0.731875 0.750000
vt 0.731875 0.500000
vt 0.762500 0.750000
vt 0.762500 0.500000
vt 0.237500 0.500000
vt 0.231875 0.750000
vt 0.231875 0.500000
vt 0.262500 0.500000
vt 0.237500 0.750000
vt 0.625000 0.856875
vt 0.541667 0.862500
vt 0.541667 0.856875
vt 0.541667 0.887500
vt 0.625000 0.887500
vt 0.625000 0.356875
vt 0.541667 0.362500
vt 0.541667 0.356875
vt 0.625000 0.362500
vt 0.458333 0.362500
vt 0.375000 0.387500
vt 0.375000 0.362500
vt 0.458333 0.356875
vt 0.375000 0.356875
vt 0.458333 0.387500
vt 0.458333 0.393125
vt 0.458333 0.862500
vt 0.375000 0.887500
vt 0.375000 0.862500
vt 0.458333 0.856875
vt 0.375000 0.856875
vt 0.458333 0.893125
vt 0.375000 1.000000
vt 0.375000 0.893125
vt 0.458333 1.000000
vt 0.458333 0.500000
vt 0.375000 0.750000
vt 0.458333 0.750000
vt 0.375000 0.393125
vt 0.458333 0.000000
vt 0.375000 0.250000
vt 0.375000 0.000000
vt 0.458333 0.250000
vt 0.625000 0.862500
vt 0.541667 0.387500
vt 0.625000 0.387500
vt 0.737500 0.750000
vt 0.458333 0.887500
vt 0.625000 0.250000
vt 0.125000 0.750000
vt 0.125000 0.500000
vt 0.625000 0.750000
vt 0.262500 0.750000
vt 0.625000 1.000000
vt 0.875000 0.750000
s 0
usemtl Cardboard
f 2/1/1 19/2/1 18/3/1
f 57/4/2 21/5/2 64/6/2
f 8/7/3 23/8/3 21/5/3
f 50/9/4 18/10/4 56/11/4
f 7/12/5 58/13/5 59/14/5
f 4/15/6 50/16/6 51/17/6
f 12/18/6 60/19/6 57/20/6
f 10/23/5 52/24/5 49/25/5
f 9/26/5 13/27/5 10/23/5
f 60/28/4 25/29/4 62/30/4
f 51/33/2 29/34/2 54/35/2
f 30/37/2 9/38/2 10/39/2
f 53/40/6 74/37/6 30/37/6
f 53/40/2 10/39/2 49/41/2
f 32/42/6 79/43/6 63/43/6
f 26/44/4 13/45/4 14/46/4
f 61/47/6 66/44/6 26/44/6
f 61/47/4 14/46/4 58/48/4
f 62/30/1 69/47/1 61/47/1
f 55/49/4 1/50/4 52/51/4
f 56/11/4 17/52/4 55/49/4
f 22/53/3 5/54/3 7/12/3
f 21/5/3 24/55/3 22/53/3
f 63/43/2 7/12/2 59/56/2
f 64/6/2 22/53/2 63/43/2
f 17/57/1 3/58/1 1/59/1
f 18/3/1 20/60/1 17/57/1
f 28/65/6 71/49/6 55/49/6
f 28/65/4 52/51/4 13/45/4
f 19/2/2 53/40/2 20/60/2
f 20/60/2 49/41/2 3/58/2
f 4/66/2 54/35/2 19/2/2
f 49/25/5 1/67/5 3/68/5
f 51/17/6 16/21/6 11/22/6
f 16/32/4 56/11/4 27/31/4
f 63/43/1 80/6/1 64/6/1
f 32/42/2 59/56/2 9/38/2
f 23/8/4 61/47/4 24/55/4
f 24/55/4 58/48/4 5/54/4
f 6/69/4 62/30/4 23/8/4
f 57/20/6 6/69/6 8/7/6
f 59/14/5 14/70/5 9/26/5
f 12/63/2 64/6/2 31/62/2
f 26/44/6 68/65/6 28/65/6
f 56/11/5 67/31/5 27/31/5
f 25/29/5 70/30/5 62/30/5
f 27/31/5 65/29/5 25/29/5
f 55/49/3 72/11/3 56/11/3
f 30/37/6 76/42/6 32/42/6
f 64/6/5 75/62/5 31/62/5
f 54/35/3 77/40/3 53/40/3
f 29/34/5 78/35/5 54/35/5
f 31/62/5 73/34/5 29/34/5
f 2/1/1 4/66/1 19/2/1
f 57/4/2 8/7/2 21/5/2
f 8/7/3 6/69/3 23/8/3
f 50/9/4 2/71/4 18/10/4
f 7/12/5 5/54/5 58/13/5
f 4/15/6 2/72/6 50/16/6
f 12/18/6 15/64/6 60/19/6
f 10/23/5 13/27/5 52/24/5
f 9/26/5 14/70/5 13/27/5
f 60/28/4 15/61/4 25/29/4
f 51/33/2 11/36/2 29/34/2
f 30/37/2 32/42/2 9/38/2
f 53/40/6 77/40/6 74/37/6
f 53/40/2 30/37/2 10/39/2
f 32/42/6 76/42/6 79/43/6
f 26/44/4 28/65/4 13/45/4
f 61/47/6 69/47/6 66/44/6
f 61/47/4 26/44/4 14/46/4
f 62/30/1 70/30/1 69/47/1
f 55/49/4 17/52/4 1/50/4
f 56/11/4 18/10/4 17/52/4
f 22/53/3 24/55/3 5/54/3
f 21/5/3 23/8/3 24/55/3
f 63/43/2 22/53/2 7/12/2
f 64/6/2 21/5/2 22/53/2
f 17/57/1 20/60/1 3/58/1
f 18/3/1 19/2/1 20/60/1
f 28/65/6 68/65/6 71/49/6
f 28/65/4 55/49/4 52/51/4
f 19/2/2 54/35/2 53/40/2
f 20/60/2 53/40/2 49/41/2
f 4/66/2 51/33/2 54/35/2
f 49/25/5 52/24/5 1/67/5
f 51/17/6 50/16/6 16/21/6
f 16/32/4 50/9/4 56/11/4
f 63/43/1 79/43/1 80/6/1
f 32/42/2 63/43/2 59/56/2
f 23/8/4 62/30/4 61/47/4
f 24/55/4 61/47/4 58/48/4
f 6/69/4 60/28/4 62/30/4
f 57/20/6 60/19/6 6/69/6
f 59/14/5 58/13/5 14/70/5
f 12/63/2 57/4/2 64/6/2
f 26/44/6 66/44/6 68/65/6
f 56/11/5 72/11/5 67/31/5
f 25/29/5 65/29/5 70/30/5
f 27/31/5 67/31/5 65/29/5
f 55/49/3 71/49/3 72/11/3
f 30/37/6 74/37/6 76/42/6
f 64/6/5 80/6/5 75/62/5
f 54/35/3 78/35/3 77/40/3
f 29/34/5 73/34/5 78/35/5
f 31/62/5 75/62/5 73/34/5
usemtl DuctTape
f 16/21/1 41/22/1 11/22/1
f 27/31/1 34/32/1 16/32/1
f 11/36/1 39/34/1 29/34/1
f 33/61/4 36/31/4 35/29/4
f 25/29/5 36/31/5 27/31/5
f 15/61/3 35/29/3 25/29/3
f 15/61/3 45/61/3 33/61/3
f 37/36/2 40/62/2 39/34/2
f 29/34/5 40/62/5 31/62/5
f 33/61/4 46/32/4 34/32/4
f 31/62/3 38/63/3 12/63/3
f 41/22/6 43/64/6 42/18/6
f 44/21/6 45/64/6 43/64/6
f 42/18/6 47/22/6 41/22/6
f 34/32/1 44/32/1 16/32/1
f 11/36/1 47/36/1 37/36/1
f 37/36/2 48/63/2 38/63/2
f 38/63/3 42/63/3 12/63/3
f 12/18/3 43/64/3 15/64/3
f 16/21/1 44/21/1 41/22/1
f 27/31/1 36/31/1 34/32/1
f 11/36/1 37/36/1 39/34/1
f 33/61/4 34/32/4 36/31/4
f 25/29/5 35/29/5 36/31/5
f 15/61/3 33/61/3 35/29/3
f 15/61/3 43/61/3 45/61/3
f 37/36/2 38/63/2 40/62/2
f 29/34/5 39/34/5 40/62/5
f 33/61/4 45/61/4 46/32/4
f 31/62/3 40/62/3 38/63/3
f 41/22/6 44/21/6 43/64/6
f 44/21/6 46/21/6 45/64/6
f 42/18/6 48/18/6 47/22/6
f 34/32/1 46/32/1 44/32/1
f 11/36/1 41/36/1 47/36/1
f 37/36/2 47/36/2 48/63/2
f 38/63/3 48/63/3 42/63/3
f 12/18/3 42/18/3 43/64/3
usemtl Black
f 65/29/4 68/65/4 66/44/4
f 70/30/4 66/44/4 69/47/4
f 67/31/4 71/49/4 68/65/4
f 73/34/2 76/42/2 74/37/2
f 78/35/2 74/37/2 77/40/2
f 75/62/2 79/43/2 76/42/2
f 65/29/4 67/31/4 68/65/4
f 70/30/4 65/29/4 66/44/4
f 67/31/4 72/11/4 71/49/4
f 73/34/2 75/62/2 76/42/2
f 78/35/2 73/34/2 74/37/2
f 75/62/2 80/6/2 79/43/2
