# Blender 4.1.0
# www.blender.org
o Ground_Col.008
v -40.000000 0.000000 0.000000
v 40.000000 0.000000 0.000000
v -40.000000 0.000000 -39.999992
v 40.000000 0.000000 -39.999992
vn -0.0000 1.0000 -0.0000
vt 1.000000 0.000000
vt 0.000000 1.000000
vt 0.000000 0.000000
vt 1.000000 1.000000
s 0
f 2/1/1 3/2/1 1/3/1
f 2/1/1 4/4/1 3/2/1
o Ground_Col.009
v -40.000000 0.000000 -100.000000
v -19.999996 0.000000 -100.000000
v -40.000000 0.000000 -119.999992
v -19.999996 0.000000 -119.999992
vn -0.0000 1.0000 -0.0000
vt 1.000000 0.000000
vt 0.000000 1.000000
vt 0.000000 0.000000
vt 1.000000 1.000000
s 0
f 6/5/2 7/6/2 5/7/2
f 6/5/2 8/8/2 7/6/2
o Ground_Col.010
v 20.000000 0.000000 -100.000000
v 40.000004 0.000000 -100.000000
v 20.000000 0.000000 -119.999992
v 40.000004 0.000000 -119.999992
vn -0.0000 1.0000 -0.0000
vt 1.000000 0.000000
vt 0.000000 1.000000
vt 0.000000 0.000000
vt 1.000000 1.000000
s 0
f 10/9/3 11/10/3 9/11/3
f 10/9/3 12/12/3 11/10/3
o Ground_Col.011
v -40.000000 0.000000 -180.000000
v 40.000000 0.000000 -180.000000
v -40.000000 0.000000 -220.000000
v 40.000000 0.000000 -220.000000
vn -0.0000 1.0000 -0.0000
vt 1.000000 0.000000
vt 0.000000 1.000000
vt 0.000000 0.000000
vt 1.000000 1.000000
s 0
f 14/13/4 15/14/4 13/15/4
f 14/13/4 16/16/4 15/14/4
o Ground_Col.012
v -40.000000 -40.000000 -40.000000
v 40.000000 -40.000000 -40.000000
v -40.000000 -40.000000 -179.999985
v 40.000000 -40.000000 -179.999985
vn -0.0000 1.0000 -0.0000
vt 1.000000 0.000000
vt 0.000000 1.000000
vt 0.000000 0.000000
vt 1.000000 1.000000
s 0
f 18/17/5 19/18/5 17/19/5
f 18/17/5 20/20/5 19/18/5
o Ground_Col.013
v -40.000000 40.000004 -219.999985
v 40.000000 40.000004 -219.999985
v -40.000000 39.999989 -0.000008
v 40.000000 39.999989 -0.000008
vn -0.0000 -1.0000 -0.0000
vt 1.000000 0.000000
vt 0.000000 1.000000
vt 0.000000 0.000000
vt 1.000000 1.000000
s 0
f 22/21/6 23/22/6 21/23/6
f 22/21/6 24/24/6 23/22/6
