# Blender 4.1.0
# www.blender.org
o Ground_Col.023
v -39.999996 40.000011 -160.000000
v 39.999996 40.000011 -160.000000
v -39.999996 39.999996 -0.000015
v 39.999996 39.999996 -0.000015
vn -0.0000 -1.0000 -0.0000
vt 1.000000 0.000000
vt 0.000000 1.000000
vt 0.000000 0.000000
vt 1.000000 1.000000
s 0
f 2/1/1 3/2/1 1/3/1
f 2/1/1 4/4/1 3/2/1
o Ground_Col.024
v -39.999996 0.000000 -121.000000
v 39.999996 0.000000 -121.000000
v -39.999996 0.000000 -160.000000
v 39.999996 0.000000 -160.000000
vn -0.0000 1.0000 -0.0000
vt 1.000000 0.000000
vt 0.000000 1.000000
vt 0.000000 0.000000
vt 1.000000 1.000000
s 0
f 6/5/2 7/6/2 5/7/2
f 6/5/2 8/8/2 7/6/2
o Ground_Col.025
v -39.999996 -40.000000 -40.000000
v 39.999996 -40.000000 -40.000000
v -39.999996 -40.000000 -120.000000
v 39.999996 -40.000000 -120.000000
vn -0.0000 1.0000 -0.0000
vt 1.000000 0.000000
vt 0.000000 1.000000
vt 0.000000 0.000000
vt 1.000000 1.000000
s 0
f 10/9/3 11/10/3 9/11/3
f 10/9/3 12/12/3 11/10/3
o Ground_Col.026
v -39.999996 0.000000 0.000000
v 39.999996 0.000000 0.000000
v -39.999996 0.000000 -39.000000
v 39.999996 0.000000 -39.000000
vn -0.0000 1.0000 -0.0000
vt 1.000000 0.000000
vt 0.000000 1.000000
vt 0.000000 0.000000
vt 1.000000 1.000000
s 0
f 14/13/4 15/14/4 13/15/4
f 14/13/4 16/16/4 15/14/4
o Wall_Col.071
v -40.000004 -0.000004 -119.999977
v -40.000004 -40.000004 -119.999977
v 39.999996 -0.000004 -120.000046
v 39.999996 -40.000000 -120.000046
vn -0.0000 -0.0000 1.0000
vt 0.000000 0.000000
vt 1.000000 1.000000
vt 0.000000 1.000000
vt 1.000000 0.000000
s 0
f 17/17/5 20/18/5 19/19/5
f 17/17/5 18/20/5 20/18/5
o Wall_Col.072
v 39.999996 0.000004 -40.000011
v 40.000004 -39.999996 -40.000011
v -40.000004 -0.000011 -39.999966
v -39.999996 -40.000008 -39.999966
vn -0.0000 -0.0000 -1.0000
vt 0.000000 0.000000
vt 1.000000 1.000000
vt 0.000000 1.000000
vt 1.000000 0.000000
s 0
f 21/21/6 24/22/6 23/23/6
f 21/21/6 22/24/6 24/22/6
o Wall_Col.074
v 37.999985 40.000000 -160.000000
v 37.999989 -40.000000 -160.000000
v 38.000034 40.000000 0.000000
v 38.000042 -40.000000 0.000000
vn -1.0000 -0.0000 -0.0000
vt 1.000000 0.000000
vt 0.000000 1.000000
vt 0.000000 0.000000
vt 1.000000 1.000000
s 0
f 26/25/7 27/26/7 25/27/7
f 26/25/7 28/28/7 27/26/7
o Wall_Col.075
v -38.000004 40.000000 0.000000
v -37.999996 -40.000000 0.000000
v -38.000004 40.000000 -160.000000
v -37.999996 -40.000000 -160.000000
vn 1.0000 -0.0000 -0.0000
vt 1.000000 0.000000
vt 0.000000 1.000000
vt 0.000000 0.000000
vt 1.000000 1.000000
s 0
f 30/29/8 31/30/8 29/31/8
f 30/29/8 32/32/8 31/30/8
