# Blender 4.1.0
# www.blender.org
mtllib ドア.mtl
o ドア
v 0.372616 0.016253 8.344939
v 0.372616 33.016254 8.344936
v 0.372616 0.016252 -8.455061
v 0.372616 33.016254 -8.455064
v 2.172657 0.016253 8.344939
v 2.172657 33.016254 8.344936
v 2.172657 0.016252 -8.455061
v 2.172657 33.016254 -8.455064
vn -1.0000 -0.0000 -0.0000
vn -0.0000 -0.0000 -1.0000
vn 1.0000 -0.0000 -0.0000
vn -0.0000 -0.0000 1.0000
vn -0.0000 -1.0000 -0.0000
vn -0.0000 1.0000 -0.0000
vt 0.375000 0.000000
vt 0.625000 0.000000
vt 0.625000 0.250000
vt 0.375000 0.250000
vt 0.625000 0.500000
vt 0.375000 0.500000
vt 0.625000 0.750000
vt 0.375000 0.750000
vt 0.625000 1.000000
vt 0.375000 1.000000
vt 0.125000 0.500000
vt 0.125000 0.750000
vt 0.875000 0.500000
vt 0.875000 0.750000
s 0
usemtl wood
f 1/1/1 2/2/1 4/3/1 3/4/1
f 3/4/2 4/3/2 8/5/2 7/6/2
f 7/6/3 8/5/3 6/7/3 5/8/3
f 5/8/4 6/7/4 2/9/4 1/10/4
f 3/11/5 7/6/5 5/8/5 1/12/5
f 8/5/6 4/13/6 2/14/6 6/7/6
o ドアノブ
v 0.222610 14.266253 -4.955060
v 0.222610 18.766253 -4.955060
v 0.222610 14.266252 -6.355062
v 0.222610 18.766253 -6.355062
v 2.322662 14.266253 -4.955060
v 2.322662 18.766253 -4.955060
v 2.322662 14.266252 -6.355062
v 2.322662 18.766253 -6.355062
vn -1.0000 -0.0000 -0.0000
vn -0.0000 -0.0000 -1.0000
vn 1.0000 -0.0000 -0.0000
vn -0.0000 -0.0000 1.0000
vn -0.0000 -1.0000 -0.0000
vn -0.0000 1.0000 -0.0000
vt 0.375000 0.000000
vt 0.625000 0.000000
vt 0.625000 0.250000
vt 0.375000 0.250000
vt 0.625000 0.500000
vt 0.375000 0.500000
vt 0.625000 0.750000
vt 0.375000 0.750000
vt 0.625000 1.000000
vt 0.375000 1.000000
vt 0.125000 0.500000
vt 0.125000 0.750000
vt 0.875000 0.500000
vt 0.875000 0.750000
s 0
usemtl ドアノブ
f 9/15/7 10/16/7 12/17/7 11/18/7
f 11/18/8 12/17/8 16/19/8 15/20/8
f 15/20/9 16/19/9 14/21/9 13/22/9
f 13/22/10 14/21/10 10/23/10 9/24/10
f 11/25/11 15/20/11 13/22/11 9/26/11
f 16/19/12 12/27/12 10/28/12 14/21/12
o ドア枠
v 0.047764 0.016253 9.744938
v 0.047764 33.016254 9.744935
v 0.047764 0.016253 8.344938
v 0.047764 33.016254 8.344935
v 2.497513 0.016253 9.744938
v 2.497513 33.016254 9.744935
v 2.497513 0.016253 8.344938
v 2.497513 33.016254 8.344935
v 0.047764 0.016252 -9.855057
v 0.047764 33.016254 -9.855060
v 0.047764 0.016252 -8.455055
v 0.047764 33.016254 -8.455058
v 2.497513 0.016252 -9.855057
v 2.497513 33.016254 -9.855060
v 2.497513 0.016252 -8.455055
v 2.497513 33.016254 -8.455058
vn -1.0000 -0.0000 -0.0000
vn -0.0000 -0.0000 -1.0000
vn 1.0000 -0.0000 -0.0000
vn -0.0000 -0.0000 1.0000
vn -0.0000 -1.0000 -0.0000
vn -0.0000 1.0000 -0.0000
vt -0.651022 -4.104088
vt 1.651022 -4.104088
vt 1.651022 -1.802044
vt -0.651022 -1.802044
vt 1.651022 0.500000
vt -0.651022 0.500000
vt 1.651022 2.802044
vt -0.651022 2.802044
vt 1.651022 5.104088
vt -0.651022 5.104088
vt -2.953066 0.500000
vt -2.953066 2.802044
vt 3.953066 0.500000
vt 3.953066 2.802044
s 0
usemtl ドア枠
f 17/29/13 18/30/13 20/31/13 19/32/13
f 19/32/14 20/31/14 24/33/14 23/34/14
f 23/34/15 24/33/15 22/35/15 21/36/15
f 21/36/16 22/35/16 18/37/16 17/38/16
f 19/39/17 23/34/17 21/36/17 17/40/17
f 24/33/18 20/41/18 18/42/18 22/35/18
f 25/29/13 27/32/13 28/31/13 26/30/13
f 27/32/16 31/34/16 32/33/16 28/31/16
f 31/34/15 29/36/15 30/35/15 32/33/15
f 29/36/14 25/38/14 26/37/14 30/35/14
f 27/39/17 25/40/17 29/36/17 31/34/17
f 32/33/18 30/35/18 26/42/18 28/41/18
o ドア枠.001
v 0.047764 33.016258 9.744936
v 0.047764 34.516258 9.744936
v 0.047764 33.016258 -9.855065
v 0.047764 34.516258 -9.855065
v 2.497513 33.016258 9.744936
v 2.497513 34.516258 9.744936
v 2.497513 33.016258 -9.855065
v 2.497513 34.516258 -9.855065
vn -1.0000 -0.0000 -0.0000
vn -0.0000 -0.0000 -1.0000
vn 1.0000 -0.0000 -0.0000
vn -0.0000 -0.0000 1.0000
vn -0.0000 -1.0000 -0.0000
vn -0.0000 1.0000 -0.0000
vt -0.651022 -4.104088
vt 1.651022 -4.104088
vt 1.651022 -1.802044
vt -0.651022 -1.802044
vt 1.651022 0.500000
vt -0.651022 0.500000
vt 1.651022 2.802044
vt -0.651022 2.802044
vt 1.651022 5.104088
vt -0.651022 5.104088
vt -2.953066 0.500000
vt -2.953066 2.802044
vt 3.953066 0.500000
vt 3.953066 2.802044
s 0
usemtl ドア枠
f 33/43/19 34/44/19 36/45/19 35/46/19
f 35/46/20 36/45/20 40/47/20 39/48/20
f 39/48/21 40/47/21 38/49/21 37/50/21
f 37/50/22 38/49/22 34/51/22 33/52/22
f 35/53/23 39/48/23 37/50/23 33/54/23
f 40/47/24 36/55/24 34/56/24 38/49/24
