# Blender 4.1.0
# www.blender.org
o Ground_Col.004
v -39.999996 0.000000 0.000000
v 39.999996 0.000000 0.000000
v -39.999996 0.000000 -39.000000
v 39.999996 0.000000 -39.000000
vn -0.0000 1.0000 -0.0000
vt 1.000000 0.000000
vt 0.000000 1.000000
vt 0.000000 0.000000
vt 1.000000 1.000000
s 0
f 2/1/1 3/2/1 1/3/1
f 2/1/1 4/4/1 3/2/1
o Ground_Col.005
v -39.999996 -40.000000 -40.000000
v 39.999996 -40.000000 -40.000000
v -39.999996 -40.000000 -199.999985
v 39.999996 -40.000000 -199.999985
vn -0.0000 1.0000 -0.0000
vt 1.000000 0.000000
vt 0.000000 1.000000
vt 0.000000 0.000000
vt 1.000000 1.000000
s 0
f 6/5/2 7/6/2 5/7/2
f 6/5/2 8/8/2 7/6/2
o Ground_Col.021
v -39.999996 0.000000 -201.000000
v 39.999996 0.000000 -201.000000
v -39.999996 0.000000 -240.000000
v 39.999996 0.000000 -240.000000
vn -0.0000 1.0000 -0.0000
vt 1.000000 0.000000
vt 0.000000 1.000000
vt 0.000000 0.000000
vt 1.000000 1.000000
s 0
f 10/9/3 11/10/3 9/11/3
f 10/9/3 12/12/3 11/10/3
o Ground_Col.022
v -39.999996 40.000011 -240.000000
v 39.999996 40.000011 -240.000000
v -39.999996 39.999996 -0.000015
v 39.999996 39.999996 -0.000015
vn -0.0000 -1.0000 -0.0000
vt 1.000000 0.000000
vt 0.000000 1.000000
vt 0.000000 0.000000
vt 1.000000 1.000000
s 0
f 14/13/4 15/14/4 13/15/4
f 14/13/4 16/16/4 15/14/4
