# Blender 4.1.0
# www.blender.org
mtllib Bed.mtl
o マット
v 0.980330 0.547286 0.595963
v -0.980330 0.547286 0.595963
v 0.980330 0.547286 -0.592353
v -0.980330 0.547286 -0.592352
v -0.664524 0.463393 0.595963
v 0.980330 0.463393 0.595963
v -0.980330 0.463393 -0.400949
v -0.980330 0.463393 0.530613
v -0.980330 0.463393 0.595963
v 0.664524 0.463393 -0.592353
v -0.980330 0.463393 -0.592352
v 0.980330 0.463393 0.404560
v 0.980330 0.463393 -0.530613
v 0.980330 0.463393 -0.592353
vn -0.0000 -0.0000 1.0000
vn -1.0000 -0.0000 -0.0000
vn -0.0000 -0.0000 -1.0000
vn 1.0000 -0.0000 -0.0000
vn -0.0000 1.0000 -0.0000
vn -0.0000 -1.0000 -0.0000
vt 0.163564 -1.485293
vt 0.996323 -1.485293
vt 0.163564 -0.652533
vt 0.996323 -0.492646
vt 0.163564 -0.438057
vt 0.163564 -0.492646
vt 0.163564 1.332760
vt 0.163564 0.500000
vt 0.996323 0.500000
vt 0.996323 1.492646
vt 0.163564 1.544220
vt 0.163564 1.492646
vt 1.988970 0.500000
vt 0.163564 0.340113
vt 0.996323 2.485293
vt 0.163564 2.325406
vt 1.988970 1.492646
vt 4.772015 0.671282
vt 2.472456 0.671282
vt 1.999977 2.868969
vt 2.152381 3.290917
vt 4.460854 3.290917
vt 4.933333 1.093230
vt 0.163564 2.485293
vt 1.999977 3.290917
vt 1.999977 0.671282
vt 4.933333 3.290917
vt 4.933333 0.671282
s 0
usemtl 白
f 6/1/1 1/2/1 5/3/1
f 2/4/2 8/5/2 9/6/2
f 10/7/3 11/8/3 4/9/3
f 3/10/4 13/11/4 14/12/4
f 2/13/5 3/10/5 4/9/5
f 2/4/1 5/3/1 1/2/1
f 4/9/2 7/14/2 2/4/2
f 3/10/3 10/7/3 4/9/3
f 1/15/4 12/16/4 3/10/4
f 2/13/5 1/17/5 3/10/5
f 8/18/6 7/19/6 10/20/6
f 13/21/6 12/22/6 5/23/6
f 2/4/2 7/14/2 8/5/2
f 3/10/4 12/16/4 13/11/4
f 2/4/1 9/6/1 5/3/1
f 4/9/2 11/8/2 7/14/2
f 3/10/3 14/12/3 10/7/3
f 1/15/4 6/24/4 12/16/4
f 14/25/6 13/21/6 10/20/6
f 13/21/6 8/18/6 10/20/6
f 7/19/6 11/26/6 10/20/6
f 12/22/6 6/27/6 5/23/6
f 5/23/6 9/28/6 8/18/6
f 8/18/6 13/21/6 5/23/6
o 土台
v 1.108526 0.313393 0.600000
v 1.108526 0.463393 0.600000
v -1.108526 0.313393 0.600000
v -1.108526 0.463393 0.600000
v 1.108526 0.313393 -0.600000
v 1.108526 0.463393 -0.600000
v -1.108526 0.313393 -0.600000
v -1.108526 0.463393 -0.600000
vn -0.0000 -0.0000 1.0000
vn -1.0000 -0.0000 -0.0000
vn -0.0000 -0.0000 -1.0000
vn 1.0000 -0.0000 -0.0000
vn -0.0000 -1.0000 -0.0000
vn -0.0000 1.0000 -0.0000
vt 1.981099 -5.424397
vt -0.981099 -2.462198
vt -0.981099 -5.424397
vt 1.981099 -2.462198
vt -0.981099 0.500000
vt 1.981099 0.500000
vt -0.981099 3.462198
vt 1.981099 3.462198
vt -0.981099 6.424397
vt -3.943297 3.462198
vt -3.943297 0.500000
vt 4.943297 0.500000
vt 1.981099 6.424397
vt 4.943297 3.462198
s 0
usemtl wood
f 16/29/7 17/30/7 15/31/7
f 18/32/8 21/33/8 17/30/8
f 22/34/9 19/35/9 21/33/9
f 20/36/10 15/37/10 19/35/10
f 21/33/11 15/38/11 17/39/11
f 18/40/12 20/36/12 22/34/12
f 16/29/7 18/32/7 17/30/7
f 18/32/8 22/34/8 21/33/8
f 22/34/9 20/36/9 19/35/9
f 20/36/10 16/41/10 15/37/10
f 21/33/11 19/35/11 15/38/11
f 18/40/12 16/42/12 20/36/12
o 掛け布団
v 0.927675 0.567540 0.619699
v -0.504102 0.567540 0.619699
v 0.927675 0.569390 -0.621290
v -0.504102 0.569390 -0.621290
v -0.504102 0.545454 0.599449
v -0.504102 0.567558 0.599449
v 0.927675 0.545454 0.599449
v 0.927675 0.567558 0.599449
v -0.504102 0.569390 -0.599560
v 0.927675 0.547286 -0.599560
v -0.504102 0.547286 -0.599560
v 0.927675 0.569390 -0.599560
v -0.504102 0.392670 0.621446
v 0.927675 0.392670 0.621446
v -0.504102 0.392688 0.601363
v 0.927675 0.394520 -0.619543
v -0.504102 0.394520 -0.619542
v 0.927675 0.394520 -0.597645
v 0.927675 0.392688 0.601363
v -0.504102 0.394520 -0.597645
vn -1.0000 -0.0000 -0.0000
vn -0.0000 -0.0100 -1.0000
vn -0.0000 -1.0000 -0.0009
vn -0.0000 0.0100 1.0000
vn 1.0000 -0.0000 -0.0000
vn -0.0000 1.0000 0.0009
vn -0.0000 -1.0000 -0.0000
vn -0.0000 1.0000 0.0015
vn -0.0000 1.0000 -0.0000
vt -1.641896 0.500000
vt -1.641896 0.072949
vt -1.641896 1.501913
vt 2.641896 0.500000
vt 2.641896 1.501913
vt 2.641896 -0.093476
vt -1.641896 -0.093476
vt -4.179367 1.501913
vt -5.925688 0.500000
vt -4.179367 0.500000
vt 2.641896 -0.501913
vt -1.641896 -1.503826
vt 2.641896 -1.503826
vt 2.641896 1.928964
vt -1.641896 1.928964
vt 6.925688 0.500000
vt 6.925688 1.501913
vt 5.179367 1.501913
vt -1.641896 2.503826
vt -1.641896 2.095389
vt -3.467801 0.500000
vt 2.641896 2.095389
vt -1.641896 -0.501913
vt 2.641896 0.072949
vt -5.925688 1.501913
vt 4.467801 1.501913
vt 4.467801 0.500000
vt 5.179367 0.500000
vt 2.641896 2.503826
vt -3.467801 1.501913
s 0
usemtl 掛け布団
f 39/43/13 42/44/13 33/44/13
f 38/45/14 26/46/14 25/47/14
f 28/48/13 33/44/13 27/49/13
s 1
f 41/50/15 35/51/15 37/52/15
s 0
f 24/53/16 36/54/16 23/55/16
f 25/47/17 34/56/17 32/57/17
f 24/58/18 23/59/18 30/60/18
f 36/61/17 41/62/17 29/62/17
s 1
f 38/45/19 42/63/19 39/43/19
s 0
f 32/57/17 30/64/17 29/62/17
f 27/49/13 37/49/13 35/65/13
f 33/44/13 31/66/13 26/46/13
f 26/46/13 39/43/13 33/44/13
f 38/45/14 39/43/14 26/46/14
f 28/48/13 31/66/13 33/44/13
s 1
f 41/50/15 36/67/15 35/51/15
s 0
f 24/53/16 35/65/16 36/54/16
f 40/57/17 38/45/17 32/57/17
f 38/45/17 25/47/17 32/57/17
f 30/60/20 34/68/20 31/69/20
f 34/68/21 25/47/21 31/69/21
f 25/47/21 26/46/21 31/69/21
f 31/69/20 28/70/20 30/60/20
f 28/70/18 24/58/18 30/60/18
f 29/62/17 30/64/17 23/71/17
f 23/71/17 36/61/17 29/62/17
s 1
f 38/45/19 40/72/19 42/63/19
s 0
f 32/57/17 34/56/17 30/64/17
f 35/65/13 24/53/13 27/49/13
f 24/53/13 28/48/13 27/49/13
o 木足
v 0.988893 0.002306 -0.447889
v 0.988893 0.942532 -0.447889
v 0.988893 0.002306 -0.543128
v 0.988893 0.942532 -0.543128
v 1.084267 0.002306 -0.447889
v 1.084267 0.942532 -0.447889
v 1.084267 0.002306 -0.543128
v 1.084267 0.942532 -0.543128
v -0.988893 0.002306 -0.447889
v -0.988893 0.942532 -0.447889
v -0.988893 0.002306 -0.543128
v -0.988893 0.942532 -0.543128
v -1.084267 0.002306 -0.447889
v -1.084267 0.942532 -0.447889
v -1.084267 0.002306 -0.543128
v -1.084267 0.942532 -0.543128
v 0.988893 0.002306 0.447889
v 0.988893 0.942532 0.447889
v 0.988893 0.002306 0.543128
v 0.988893 0.942532 0.543128
v 1.084267 0.002306 0.447889
v 1.084267 0.942532 0.447889
v 1.084267 0.002306 0.543128
v 1.084267 0.942532 0.543128
v -0.988893 0.002306 0.447889
v -0.988893 0.942532 0.447889
v -0.988893 0.002306 0.543128
v -0.988893 0.942532 0.543128
v -1.084267 0.002306 0.447889
v -1.084267 0.942532 0.447889
v -1.084267 0.002306 0.543128
v -1.084267 0.942532 0.543128
vn -1.0000 -0.0000 -0.0000
vn -0.0000 -0.0000 -1.0000
vn 1.0000 -0.0000 -0.0000
vn -0.0000 -0.0000 1.0000
vn -0.0000 1.0000 -0.0000
vt 0.625000 0.000000
vt 0.375000 0.250000
vt 0.375000 0.000000
vt 0.625000 0.250000
vt 0.375000 0.500000
vt 0.625000 0.500000
vt 0.375000 0.750000
vt 0.625000 0.750000
vt 0.375000 1.000000
vt 0.875000 0.500000
vt 0.625000 1.000000
vt 0.875000 0.750000
s 0
usemtl wood
f 44/73/22 45/74/22 43/75/22
f 46/76/23 49/77/23 45/74/23
f 50/78/24 47/79/24 49/77/24
f 48/80/25 43/81/25 47/79/25
f 46/82/26 48/80/26 50/78/26
f 44/73/22 46/76/22 45/74/22
f 46/76/23 50/78/23 49/77/23
f 50/78/24 48/80/24 47/79/24
f 48/80/25 44/83/25 43/81/25
f 46/82/26 44/84/26 48/80/26
f 52/73/24 51/75/24 53/74/24
f 54/76/23 53/74/23 57/77/23
f 58/78/22 57/77/22 55/79/22
f 56/80/25 55/79/25 51/81/25
f 54/82/26 58/78/26 56/80/26
f 52/73/24 53/74/24 54/76/24
f 54/76/23 57/77/23 58/78/23
f 58/78/22 55/79/22 56/80/22
f 56/80/25 51/81/25 52/83/25
f 54/82/26 56/80/26 52/84/26
f 60/73/22 59/75/22 61/74/22
f 62/76/25 61/74/25 65/77/25
f 66/78/24 65/77/24 63/79/24
f 64/80/23 63/79/23 59/81/23
f 62/82/26 66/78/26 64/80/26
f 60/73/22 61/74/22 62/76/22
f 62/76/25 65/77/25 66/78/25
f 66/78/24 63/79/24 64/80/24
f 64/80/23 59/81/23 60/83/23
f 62/82/26 64/80/26 60/84/26
f 68/73/24 69/74/24 67/75/24
f 70/76/25 73/77/25 69/74/25
f 74/78/22 71/79/22 73/77/22
f 72/80/23 67/81/23 71/79/23
f 70/82/26 72/80/26 74/78/26
f 68/73/24 70/76/24 69/74/24
f 70/76/25 74/78/25 73/77/25
f 74/78/22 72/80/22 71/79/22
f 72/80/23 68/83/23 67/81/23
f 70/82/26 68/84/26 72/80/26
o 枕
v -0.915426 0.547738 0.346350
v -0.915426 0.632327 0.346350
v -0.915426 0.547738 -0.346350
v -0.915426 0.632327 -0.346350
v -0.626573 0.547738 0.346350
v -0.626573 0.632327 0.346350
v -0.626573 0.547738 -0.346350
v -0.626573 0.632327 -0.346350
vn -0.0000 1.0000 -0.0000
vn -1.0000 -0.0000 -0.0000
vn 1.0000 -0.0000 -0.0000
vn -0.0000 -0.0000 -1.0000
vn -0.0000 -0.0000 1.0000
vt 1.985182 1.490121
vt 0.995061 0.500000
vt 1.985182 0.500000
vt 0.995061 -0.490121
vt 0.004939 -1.480243
vt 0.995061 -1.480243
vt 0.995061 1.490121
vt 0.004939 0.500000
vt 0.004939 -0.490121
vt 0.995061 2.480243
vt 0.004939 1.490121
vt 0.004939 2.480243
s 0
usemtl 白
f 76/85/27 82/86/27 78/87/27
f 78/88/28 75/89/28 76/90/28
f 80/91/29 81/92/29 82/86/29
f 82/86/30 77/93/30 78/88/30
f 76/94/31 79/95/31 80/91/31
f 76/85/27 80/91/27 82/86/27
f 78/88/28 77/93/28 75/89/28
f 80/91/29 79/95/29 81/92/29
f 82/86/30 81/92/30 77/93/30
f 76/94/31 75/96/31 79/95/31
o 柵
v 1.033543 0.833398 -0.447889
v 1.033543 0.833398 0.447889
v 1.058676 0.833398 -0.447889
v 1.058676 0.833398 0.447889
v 1.058676 0.731843 -0.447889
v 1.058676 0.731843 0.447889
v 1.033543 0.731843 -0.447889
v 1.033543 0.731843 0.447889
v -1.033543 0.833398 -0.447889
v -1.033543 0.833398 0.447889
v -1.058677 0.833398 -0.447889
v -1.058677 0.833398 0.447889
v -1.058677 0.731843 -0.447889
v -1.058677 0.731843 0.447889
v -1.033543 0.731843 -0.447889
v -1.033543 0.731843 0.447889
vn 1.0000 -0.0000 -0.0000
vn -1.0000 -0.0000 -0.0000
vn -0.0000 -1.0000 -0.0000
vn -0.0000 1.0000 -0.0000
vt 0.392045 0.750000
vt 0.617826 0.500000
vt 0.617826 0.750000
vt 0.392045 0.000000
vt 0.617826 0.250000
vt 0.392045 0.250000
vt 0.392045 1.000000
vt 0.617826 1.000000
vt 0.392045 0.500000
vt 0.617826 0.000000
s 0
usemtl wood
f 87/97/32 86/98/32 88/99/32
f 89/100/33 84/101/33 83/102/33
f 89/103/34 88/99/34 90/104/34
f 86/98/35 83/102/35 84/101/35
f 87/97/32 85/105/32 86/98/32
f 89/100/33 90/106/33 84/101/33
f 89/103/34 87/97/34 88/99/34
f 86/98/35 85/105/35 83/102/35
f 95/97/33 96/99/33 94/98/33
f 97/100/32 91/102/32 92/101/32
f 97/103/34 98/104/34 96/99/34
f 94/98/35 92/101/35 91/102/35
f 95/97/33 94/98/33 93/105/33
f 97/100/32 92/101/32 98/106/32
f 97/103/34 96/99/34 95/97/34
f 94/98/35 91/102/35 93/105/35
o 柵.001
v 1.033543 0.516624 -0.447889
v 1.033543 0.516624 0.447889
v 1.051366 0.618179 -0.447889
v 1.033543 0.618179 -0.447889
v 1.033543 0.618179 0.447889
v 1.058676 0.618179 -0.447889
v 1.058676 0.618179 0.447889
v 1.041064 0.516624 -0.447889
v 1.058676 0.516624 -0.447889
v 1.058676 0.516624 0.447889
v -1.033543 0.516624 -0.447889
v -1.033543 0.516624 0.447889
v -1.051366 0.618179 -0.447889
v -1.033543 0.618179 -0.447889
v -1.033543 0.618179 0.447889
v -1.058677 0.618179 -0.447889
v -1.058677 0.618179 0.447889
v -1.041064 0.516624 -0.447889
v -1.058677 0.516624 -0.447889
v -1.058677 0.516624 0.447889
vn -0.0000 -1.0000 -0.0000
vn -0.0000 1.0000 -0.0000
vn -1.0000 -0.0000 -0.0000
vn 1.0000 -0.0000 -0.0000
vt 0.612006 1.000000
vt 0.390217 1.000000
vt 0.390217 0.925191
vt 0.390217 0.427278
vt 0.612006 0.250000
vt 0.612006 0.500000
vt 0.390217 0.000000
vt 0.390217 0.250000
vt 0.390217 0.750000
vt 0.612006 0.750000
vt 0.390217 0.500000
vt 0.612006 0.000000
s 0
usemtl wood
f 100/107/36 99/108/36 106/109/36
f 101/110/37 103/111/37 105/112/37
f 99/113/38 103/111/38 102/114/38
f 107/115/39 105/112/39 108/116/39
f 107/115/36 108/116/36 106/109/36
f 108/116/36 100/107/36 106/109/36
f 105/112/37 104/117/37 101/110/37
f 101/110/37 102/114/37 103/111/37
f 99/113/38 100/118/38 103/111/38
f 107/115/39 104/117/39 105/112/39
f 110/107/36 116/109/36 109/108/36
f 111/110/37 115/112/37 113/111/37
f 109/113/39 112/114/39 113/111/39
f 117/115/38 118/116/38 115/112/38
f 117/115/36 116/109/36 118/116/36
f 118/116/36 116/109/36 110/107/36
f 115/112/37 111/110/37 114/117/37
f 111/110/37 113/111/37 112/114/37
f 109/113/39 113/111/39 110/118/39
f 117/115/38 115/112/38 114/117/38
