# Blender 4.1.0
# www.blender.org
mtllib Generator.mtl
o Generator
v -9.000000 0.000000 8.000000
v -6.000000 12.000000 5.000000
v -9.000000 0.000000 -10.000000
v -6.000000 12.000000 -7.000000
v 9.000000 0.000000 8.000000
v 6.000000 12.000000 5.000000
v 9.000000 0.000000 -10.000000
v 6.000000 12.000000 -7.000000
v -5.670000 11.400000 -6.670000
v -5.670000 11.400000 4.670000
v 5.670000 11.400000 -6.670000
v 5.670000 11.400000 4.670000
v -6.000000 24.000000 5.000000
v -6.000000 24.000000 -7.000000
v 6.000000 24.000000 -7.000000
v 6.000000 24.000000 5.000000
v -40.000000 12.000000 5.000000
v -40.000000 12.000000 -7.000000
v -40.000000 24.000000 5.000000
v -40.000000 24.000000 -7.000000
vn -0.9701 0.2425 -0.0000
vn -0.0000 0.2425 -0.9701
vn 0.9701 0.2425 -0.0000
vn -0.0000 0.2425 0.9701
vn 0.9599 -0.2804 -0.0000
vn -0.0000 -0.0000 -1.0000
vn -0.0000 -1.0000 -0.0000
vn -0.9599 -0.2804 -0.0000
vn -0.0000 -0.2804 -0.9599
vn -0.0000 -0.2804 0.9599
vn -0.0000 1.0000 -0.0000
vn 1.0000 -0.0000 -0.0000
vn -0.0000 -0.0000 1.0000
vn -1.0000 -0.0000 -0.0000
vt 0.625000 0.000000
vt 0.375000 0.250000
vt 0.375000 0.000000
vt 0.625000 0.250000
vt 0.375000 0.500000
vt 0.625000 0.500000
vt 0.375000 0.750000
vt 0.625000 0.750000
vt 0.375000 1.000000
vt 0.125000 0.750000
vt 0.125000 0.500000
vt 0.875000 0.500000
vt 0.625000 1.000000
vt 0.875000 0.750000
s 0
usemtl Gimmick
f 2/1/1 3/2/1 1/3/1
f 4/4/2 7/5/2 3/2/2
f 8/6/3 5/7/3 7/5/3
f 6/8/4 1/9/4 5/7/4
f 1/3/5 9/2/5 10/3/5
f 4/4/6 15/6/6 8/6/6
f 11/5/7 10/10/7 9/11/7
f 7/5/8 12/7/8 11/5/8
f 5/7/9 10/9/9 12/7/9
f 3/2/10 11/5/10 9/2/10
f 14/12/11 16/8/11 15/6/11
f 8/6/12 16/8/12 6/8/12
f 13/13/13 17/13/13 2/13/13
f 6/8/13 13/13/13 2/13/13
f 17/1/14 20/4/14 18/4/14
f 2/1/7 18/4/7 4/4/7
f 4/4/6 20/4/6 14/4/6
f 14/12/11 19/14/11 13/14/11
f 2/1/1 4/4/1 3/2/1
f 4/4/2 8/6/2 7/5/2
f 8/6/3 6/8/3 5/7/3
f 6/8/4 2/13/4 1/9/4
f 1/3/5 3/2/5 9/2/5
f 4/4/6 14/4/6 15/6/6
f 11/5/7 12/7/7 10/10/7
f 7/5/8 5/7/8 12/7/8
f 5/7/9 1/9/9 10/9/9
f 3/2/10 7/5/10 11/5/10
f 14/12/11 13/14/11 16/8/11
f 8/6/12 15/6/12 16/8/12
f 13/13/13 19/13/13 17/13/13
f 6/8/13 16/8/13 13/13/13
f 17/1/14 19/1/14 20/4/14
f 2/1/7 17/1/7 18/4/7
f 4/4/6 18/4/6 20/4/6
f 14/12/11 20/12/11 19/14/11
