# Blender 4.1.0
# www.blender.org
o DoorCol
v -18.500000 0.261818 2.500000
v -18.500000 24.001816 2.500000
v -18.500000 0.261818 -2.500000
v -18.500000 24.001816 -2.500000
v 1.499999 0.261818 2.500000
v 1.499999 24.001816 2.500000
v 1.499999 0.261818 -2.500000
v 1.499999 24.001816 -2.500000
v -18.500000 23.999996 2.025000
v -18.500000 23.999996 -2.025000
v 1.499999 23.999996 2.025000
v 1.499999 23.999996 -2.025000
v -18.219997 0.261819 2.025000
v -18.219999 0.000001 -2.025000
v 1.219999 0.261819 2.025000
v 1.219999 0.261819 -2.024999
vn -1.0000 -0.0000 -0.0000
vn -0.0000 -0.0000 -1.0000
vn 1.0000 -0.0000 -0.0000
vn -0.0000 -0.0000 1.0000
vn -0.0000 -1.0000 -0.0000
vn 0.0134 -0.9978 0.0645
vn -0.0000 1.0000 -0.0000
vt 0.625000 0.000000
vt 0.375000 0.250000
vt 0.375000 0.000000
vt 0.625000 0.250000
vt 0.375000 0.500000
vt 0.625000 0.500000
vt 0.375000 0.750000
vt 0.625000 0.750000
vt 0.375000 1.000000
vt 0.125000 0.750000
vt 0.625000 1.000000
vt 0.125000 0.500000
vt 0.875000 0.500000
vt 0.875000 0.750000
s 0
f 2/1/1 3/2/1 1/3/1
f 4/4/2 7/5/2 3/2/2
f 8/6/3 5/7/3 7/5/3
f 6/8/4 1/9/4 5/7/4
f 16/5/5 15/7/5 13/10/5
f 2/1/1 4/4/1 3/2/1
f 4/4/2 8/6/2 7/5/2
f 8/6/3 6/8/3 5/7/3
f 6/8/4 2/11/4 1/9/4
f 16/5/6 13/10/6 14/12/6
f 10/13/7 11/8/7 12/6/7
f 10/13/7 9/14/7 11/8/7
