# Blender 4.1.0
# www.blender.org
o Wall_Col
v -38.000004 40.000000 -10.000000
v -37.999996 -40.000000 -10.000000
v -38.000004 40.000000 -170.000000
v -37.999996 -40.000000 -170.000000
vn 1.0000 -0.0000 -0.0000
vt 1.000000 0.000000
vt 0.000000 1.000000
vt 0.000000 0.000000
vt 1.000000 1.000000
s 0
f 2/1/1 3/2/1 1/3/1
f 2/1/1 4/4/1 3/2/1
o Wall_Col.001
v 37.999985 40.000000 -170.000000
v 37.999989 -40.000000 -170.000000
v 38.000034 40.000000 -10.000000
v 38.000042 -40.000000 -10.000000
vn -1.0000 -0.0000 -0.0000
vt 1.000000 0.000000
vt 0.000000 1.000000
vt 0.000000 0.000000
vt 1.000000 1.000000
s 0
f 6/5/2 7/6/2 5/7/2
f 6/5/2 8/8/2 7/6/2
o Wall_Col.002
v 39.999996 40.000004 -12.000011
v 40.000004 0.000003 -12.000011
v -40.000004 39.999989 -11.999966
v -39.999996 -0.000008 -11.999966
vn -0.0000 -0.0000 -1.0000
vt 0.000000 0.000000
vt 1.000000 1.000000
vt 0.000000 1.000000
vt 1.000000 0.000000
s 0
f 9/9/3 12/10/3 11/11/3
f 9/9/3 10/12/3 12/10/3
o Wall_Col.003
v 39.999996 0.000004 -50.000011
v 40.000004 -39.999996 -50.000011
v -40.000004 -0.000011 -49.999966
v -39.999996 -40.000008 -49.999966
vn -0.0000 -0.0000 -1.0000
vt 0.000000 0.000000
vt 1.000000 1.000000
vt 0.000000 1.000000
vt 1.000000 0.000000
s 0
f 13/13/4 16/14/4 15/15/4
f 13/13/4 14/16/4 16/14/4
o Wall_Col.004
v -40.000004 -0.000004 -129.999985
v -40.000004 -40.000004 -129.999985
v 39.999996 -0.000004 -130.000046
v 39.999996 -40.000000 -130.000046
vn -0.0000 -0.0000 1.0000
vt 0.000000 0.000000
vt 1.000000 1.000000
vt 0.000000 1.000000
vt 1.000000 0.000000
s 0
f 17/17/5 20/18/5 19/19/5
f 17/17/5 18/20/5 20/18/5
