# Blender 4.1.0
# www.blender.org
o Ground_Col
v -39.999996 0.000000 -10.000000
v 39.999996 0.000000 -10.000000
v -39.999996 0.000000 -49.000000
v 39.999996 0.000000 -49.000000
vn -0.0000 1.0000 -0.0000
vt 1.000000 0.000000
vt 0.000000 1.000000
vt 0.000000 0.000000
vt 1.000000 1.000000
s 0
f 2/1/1 3/2/1 1/3/1
f 2/1/1 4/4/1 3/2/1
o Ground_Col.001
v -39.999996 -40.000000 -50.000000
v 39.999996 -40.000000 -50.000000
v -39.999996 -40.000000 -130.000000
v 39.999996 -40.000000 -130.000000
vn -0.0000 1.0000 -0.0000
vt 1.000000 0.000000
vt 0.000000 1.000000
vt 0.000000 0.000000
vt 1.000000 1.000000
s 0
f 6/5/2 7/6/2 5/7/2
f 6/5/2 8/8/2 7/6/2
o Ground_Col.002
v -39.999996 0.000000 -131.000000
v 39.999996 0.000000 -131.000000
v -39.999996 0.000000 -170.000000
v 39.999996 0.000000 -170.000000
vn -0.0000 1.0000 -0.0000
vt 1.000000 0.000000
vt 0.000000 1.000000
vt 0.000000 0.000000
vt 1.000000 1.000000
s 0
f 10/9/3 11/10/3 9/11/3
f 10/9/3 12/12/3 11/10/3
o Ground_Col.003
v -39.999996 40.000011 -170.000000
v 39.999996 40.000011 -170.000000
v -39.999996 39.999996 -10.000015
v 39.999996 39.999996 -10.000015
vn -0.0000 -1.0000 -0.0000
vt 1.000000 0.000000
vt 0.000000 1.000000
vt 0.000000 0.000000
vt 1.000000 1.000000
s 0
f 14/13/4 15/14/4 13/15/4
f 14/13/4 16/16/4 15/14/4
o Ground_Col.004
v 9.999998 20.000000 -61.000000
v 39.999996 20.000000 -61.000000
v 9.999998 20.000000 -79.000000
v 39.999996 20.000000 -79.000000
vn -0.0000 1.0000 -0.0000
vt 1.000000 0.000000
vt 0.000000 1.000000
vt 0.000000 0.000000
vt 1.000000 1.000000
s 0
f 18/17/5 19/18/5 17/19/5
f 18/17/5 20/20/5 19/18/5
o Ground_Col.005
v 9.999998 10.000010 -79.000000
v 39.999996 10.000010 -79.000000
v 9.999998 10.000003 -60.999996
v 39.999996 10.000003 -60.999996
vn -0.0000 -1.0000 -0.0000
vt 1.000000 0.000000
vt 0.000000 1.000000
vt 0.000000 0.000000
vt 1.000000 1.000000
s 0
f 22/21/6 23/22/6 21/23/6
f 22/21/6 24/24/6 23/22/6
