# Blender 4.1.0
# www.blender.org
o Ground_Col
v 48.262573 0.000000 344.675598
v 48.262573 0.000000 -58.880371
v 48.262573 0.000000 -146.031616
v -28.584839 0.000000 -49.864792
v -58.637131 0.000000 -19.812675
v -60.139648 0.000000 26.768187
v -66.150040 0.000000 79.359367
v -75.165695 0.000000 109.411484
v -118.741348 0.000000 184.541840
v -165.322067 0.000000 240.138260
v -247.965515 0.000000 244.646072
v -372.681763 0.000000 244.646072
v -441.801758 0.000000 270.190430
v -36.097992 0.000000 -129.503021
v -117.238693 0.000000 -103.958565
v -151.798752 0.000000 -54.372597
v -175.840424 0.000000 29.773380
v -208.897705 0.000000 110.914070
v -276.514954 0.000000 138.712341
v -405.739136 0.000000 138.712341
v 48.262573 -39.999996 -58.880371
v 48.262573 -39.999996 -146.031616
v -28.584839 -39.999996 -49.864792
v -58.637131 -39.999996 -19.812675
v -60.139648 -39.999996 26.768187
v -66.150040 -39.999996 79.359367
v -75.165695 -39.999996 109.411484
v -118.741348 -39.999996 184.541840
v -165.322067 -39.999996 240.138260
v -247.965515 -39.999996 244.646072
v -372.681763 -39.999996 244.646072
v -441.801758 -39.999996 270.190430
v -36.097992 -39.999996 -129.503021
v -117.238693 -39.999996 -103.958565
v -151.798752 -39.999996 -54.372597
v -175.840424 -39.999996 29.773380
v -208.897705 -39.999996 110.914070
v -276.514954 -39.999996 138.712341
v -405.739136 -39.999996 138.712341
v 48.262573 0.000000 -249.369690
v 48.262573 0.000000 -295.870758
v -287.434082 0.000000 138.712341
v -355.357422 0.000000 138.712341
v -299.029419 0.000000 244.646072
v -354.714813 0.000000 244.646072
v -480.000000 -39.999996 150.895752
v -480.000000 -39.999996 308.388733
v -480.000000 0.000000 344.675598
v -480.000000 0.000000 308.388733
v -480.000000 0.000000 150.895752
v 48.262573 0.000000 -330.000000
v -480.000000 0.000000 -330.000000
vn -0.0000 1.0000 -0.0000
vt 0.791245 0.200167
vt 0.866375 0.455610
vt 0.678550 0.292202
vt 1.000000 0.000000
vt 0.733019 0.130672
vt 0.793123 0.560793
vt 1.000000 0.800683
vt 0.339672 0.843334
vt 0.339672 0.241583
vt 0.339672 0.045359
vt 0.387420 0.093106
vt 0.473820 0.125037
vt 0.629715 0.125037
vt 0.594028 0.260272
vt 0.432498 0.254637
vt 0.845715 0.294080
vt 0.856984 0.331645
vt 0.864497 0.397384
vt 0.903941 0.493175
vt 1.000000 0.504445
vt 1.000000 0.613384
vt 0.894549 0.592723
vt 0.749923 0.498810
vt 0.719871 0.393628
vt 0.339672 0.000000
vt 0.496278 0.125037
vt 0.565885 0.125037
vt 0.580379 0.259795
vt 0.495475 0.256834
vt 0.339672 0.241583
vt 1.000000 0.742557
vt 1.000000 0.843344
s 0
f 28/1/1 24/2/1 37/3/1
f 1/4/1 9/1/1 10/5/1
f 15/6/1 41/7/1 52/8/1
f 46/9/1 47/10/1 32/11/1
f 31/12/1 30/13/1 29/5/1
f 46/9/1 32/11/1 31/12/1
f 38/14/1 39/15/1 46/9/1
f 38/14/1 46/9/1 31/12/1
f 31/12/1 29/5/1 28/1/1
f 28/1/1 27/16/1 26/17/1
f 26/17/1 25/18/1 24/2/1
f 23/19/1 21/20/1 22/21/1
f 28/1/1 26/17/1 24/2/1
f 24/2/1 23/19/1 22/21/1
f 22/21/1 33/22/1 34/6/1
f 34/6/1 35/23/1 36/24/1
f 37/3/1 38/14/1 31/12/1
f 34/6/1 36/24/1 37/3/1
f 24/2/1 22/21/1 34/6/1
f 37/3/1 31/12/1 28/1/1
f 24/2/1 34/6/1 37/3/1
f 49/10/1 48/25/1 1/4/1
f 1/4/1 2/20/1 4/19/1
f 4/19/1 5/2/1 6/18/1
f 4/19/1 6/18/1 7/17/1
f 13/11/1 49/10/1 1/4/1
f 45/26/1 12/12/1 13/11/1
f 44/27/1 45/26/1 13/11/1
f 1/4/1 4/19/1 7/17/1
f 1/4/1 7/17/1 8/16/1
f 44/27/1 13/11/1 1/4/1
f 11/13/1 44/27/1 1/4/1
f 1/4/1 8/16/1 9/1/1
f 10/5/1 11/13/1 1/4/1
f 42/28/1 19/14/1 18/3/1
f 18/3/1 17/24/1 16/23/1
f 42/28/1 18/3/1 16/23/1
f 43/29/1 42/28/1 16/23/1
f 43/29/1 16/23/1 15/6/1
f 52/8/1 50/30/1 20/15/1
f 20/15/1 43/29/1 15/6/1
f 14/22/1 3/21/1 40/31/1
f 52/8/1 20/15/1 15/6/1
f 15/6/1 14/22/1 40/31/1
f 41/7/1 51/32/1 52/8/1
f 15/6/1 40/31/1 41/7/1
o Base_Ground_Col
v -424.950012 9.000000 -195.050003
v -424.950012 9.000000 -204.949997
v -415.049988 9.000000 -195.050003
v -415.049988 9.000000 -204.949997
v -444.749969 4.000000 -175.250000
v -444.749969 4.000000 -224.750000
v -395.249969 4.000000 -175.250000
v -395.249969 4.000000 -224.750000
vn -0.0000 1.0000 -0.0000
vt 0.875000 0.500000
vt 0.625000 0.750000
vt 0.625000 0.500000
vt 0.875000 0.750000
s 0
f 54/33/2 55/34/2 56/35/2
f 58/33/2 59/34/2 60/35/2
f 54/33/2 53/36/2 55/34/2
f 58/33/2 57/36/2 59/34/2
