# Blender 4.1.0
# www.blender.org
mtllib Desk.mtl
o 机面
v -5.921972 9.000000 15.646040
v -5.310760 11.000000 15.003934
v -5.921972 9.000000 -15.646040
v -5.310760 11.000000 -15.003934
v 5.921972 9.000000 15.646040
v 5.310760 11.000000 15.003934
v 5.921972 9.000000 -15.646040
v 5.310760 11.000000 -15.003934
v -5.921972 11.000000 15.646040
v -5.921972 11.000000 -15.646040
v 5.921972 11.000000 -15.646040
v 5.921972 11.000000 15.646040
v -5.310760 11.222153 15.003934
v -5.310760 11.222153 -15.003934
v 5.310760 11.222153 -15.003934
v 5.310760 11.222153 15.003934
vn -1.0000 -0.0000 -0.0000
vn -0.0000 -0.0000 -1.0000
vn 1.0000 -0.0000 -0.0000
vn -0.0000 -0.0000 1.0000
vn -0.0000 -1.0000 -0.0000
vn -0.0000 1.0000 -0.0000
vt 0.625000 0.000000
vt 0.375000 0.250000
vt 0.375000 0.000000
vt 0.625000 0.250000
vt 0.375000 0.500000
vt 0.625000 0.500000
vt 0.375000 0.750000
vt 0.625000 0.750000
vt 0.375000 1.000000
vt 0.125000 0.750000
vt 0.125000 0.500000
vt 0.637901 0.737099
vt 0.862099 0.737099
vt 0.862099 0.512901
vt 0.875000 0.750000
vt 0.875000 0.500000
vt 0.637901 0.512901
vt 0.625000 1.000000
s 0
usemtl wood
f 9/1/1 3/2/1 1/3/1
f 10/4/2 7/5/2 3/2/2
f 11/6/3 5/7/3 7/5/3
f 12/8/4 1/9/4 5/7/4
f 7/5/5 1/10/5 3/11/5
f 4/14/6 9/15/6 2/13/6
f 4/14/6 11/6/6 10/16/6
f 6/12/6 11/6/6 8/17/6
f 6/12/6 9/15/6 12/8/6
f 9/1/1 10/4/1 3/2/1
f 10/4/2 11/6/2 7/5/2
f 11/6/3 12/8/3 5/7/3
f 12/8/4 9/18/4 1/9/4
f 7/5/5 5/7/5 1/10/5
f 4/14/6 10/16/6 9/15/6
f 4/14/6 8/17/6 11/6/6
f 6/12/6 12/8/6 11/6/6
f 6/12/6 2/13/6 9/15/6
usemtl red
f 6/12/4 13/13/4 2/13/4
f 14/14/6 16/12/6 15/17/6
f 4/14/2 15/17/2 8/17/2
f 8/17/3 16/12/3 6/12/3
f 2/13/1 14/14/1 4/14/1
f 6/12/4 16/12/4 13/13/4
f 14/14/6 13/13/6 16/12/6
f 4/14/2 14/14/2 15/17/2
f 8/17/3 15/17/3 16/12/3
f 2/13/1 13/13/1 14/14/1
o 机足
v -5.000000 0.000000 -12.988500
v -5.000000 10.000000 -12.988500
v -5.000000 0.000000 -14.988500
v -5.000000 10.000000 -14.988500
v -3.000000 0.000000 -12.988500
v -3.000000 10.000000 -12.988500
v -3.000000 0.000000 -14.988500
v -3.000000 10.000000 -14.988500
v 5.000001 0.000000 -12.988500
v 5.000001 10.000000 -12.988500
v 5.000001 0.000000 -14.988500
v 5.000001 10.000000 -14.988500
v 3.000001 0.000000 -12.988500
v 3.000001 10.000000 -12.988500
v 3.000001 0.000000 -14.988500
v 3.000001 10.000000 -14.988500
v -5.000000 0.000000 12.988502
v -5.000000 10.000000 12.988502
v -5.000000 0.000000 14.988502
v -5.000000 10.000000 14.988502
v -3.000000 0.000000 12.988502
v -3.000000 10.000000 12.988502
v -3.000000 0.000000 14.988502
v -3.000000 10.000000 14.988502
v 5.000002 0.000000 12.988502
v 5.000002 10.000000 12.988502
v 5.000002 0.000000 14.988502
v 5.000002 10.000000 14.988502
v 3.000002 0.000000 12.988502
v 3.000002 10.000000 12.988502
v 3.000002 0.000000 14.988502
v 3.000002 10.000000 14.988502
vn -1.0000 -0.0000 -0.0000
vn -0.0000 -0.0000 -1.0000
vn 1.0000 -0.0000 -0.0000
vn -0.0000 -0.0000 1.0000
vn -0.0000 -1.0000 -0.0000
vn -0.0000 1.0000 -0.0000
vt 0.625000 0.000000
vt 0.375000 0.250000
vt 0.375000 0.000000
vt 0.625000 0.250000
vt 0.375000 0.500000
vt 0.625000 0.500000
vt 0.375000 0.750000
vt 0.625000 0.750000
vt 0.375000 1.000000
vt 0.125000 0.750000
vt 0.125000 0.500000
vt 0.875000 0.500000
vt 0.625000 1.000000
vt 0.875000 0.750000
s 0
usemtl wood
f 18/19/7 19/20/7 17/21/7
f 20/22/8 23/23/8 19/20/8
f 24/24/9 21/25/9 23/23/9
f 22/26/10 17/27/10 21/25/10
f 23/23/11 17/28/11 19/29/11
f 20/30/12 22/26/12 24/24/12
f 18/19/7 20/22/7 19/20/7
f 20/22/8 24/24/8 23/23/8
f 24/24/9 22/26/9 21/25/9
f 22/26/10 18/31/10 17/27/10
f 23/23/11 21/25/11 17/28/11
f 20/30/12 18/32/12 22/26/12
f 26/19/9 25/21/9 27/20/9
f 28/22/8 27/20/8 31/23/8
f 32/24/7 31/23/7 29/25/7
f 30/26/10 29/25/10 25/27/10
f 31/23/11 27/29/11 25/28/11
f 28/30/12 32/24/12 30/26/12
f 26/19/9 27/20/9 28/22/9
f 28/22/8 31/23/8 32/24/8
f 32/24/7 29/25/7 30/26/7
f 30/26/10 25/27/10 26/31/10
f 31/23/11 25/28/11 29/25/11
f 28/30/12 30/26/12 26/32/12
f 34/19/7 33/21/7 35/20/7
f 36/22/10 35/20/10 39/23/10
f 40/24/9 39/23/9 37/25/9
f 38/26/8 37/25/8 33/27/8
f 39/23/11 35/29/11 33/28/11
f 36/30/12 40/24/12 38/26/12
f 34/19/7 35/20/7 36/22/7
f 36/22/10 39/23/10 40/24/10
f 40/24/9 37/25/9 38/26/9
f 38/26/8 33/27/8 34/31/8
f 39/23/11 33/28/11 37/25/11
f 36/30/12 38/26/12 34/32/12
f 42/19/9 43/20/9 41/21/9
f 44/22/10 47/23/10 43/20/10
f 48/24/7 45/25/7 47/23/7
f 46/26/8 41/27/8 45/25/8
f 47/23/11 41/28/11 43/29/11
f 44/30/12 46/26/12 48/24/12
f 42/19/9 44/22/9 43/20/9
f 44/22/10 48/24/10 47/23/10
f 48/24/7 46/26/7 45/25/7
f 46/26/8 42/31/8 41/27/8
f 47/23/11 45/25/11 41/28/11
f 44/30/12 42/32/12 46/26/12
