# Blender 4.1.0
# www.blender.org
o Wall_Col.014
v -40.000004 40.000000 -160.000000
v -39.999996 -0.000003 -160.000000
v -40.000004 40.000000 -220.000000
v -39.999996 -0.000003 -220.000000
vn 1.0000 -0.0000 -0.0000
vt 1.000000 0.000000
vt 0.000000 1.000000
vt 0.000000 0.000000
vt 1.000000 1.000000
s 0
f 2/1/1 3/2/1 1/3/1
f 2/1/1 4/4/1 3/2/1
o Wall_Col.015
v -40.000004 40.000000 -0.000008
v -39.999996 -0.000003 -0.000008
v -40.000004 40.000000 -150.000000
v -39.999996 -0.000003 -150.000000
vn 1.0000 -0.0000 -0.0000
vt 1.000000 0.000000
vt 0.000000 1.000000
vt 0.000000 0.000000
vt 1.000000 1.000000
s 0
f 6/5/2 7/6/2 5/7/2
f 6/5/2 8/8/2 7/6/2
o Wall_Col.016
v 39.999958 40.000000 -220.000000
v 39.999958 -0.000003 -220.000000
v 40.000008 40.000000 -0.000008
v 40.000008 -0.000003 -0.000008
vn -1.0000 -0.0000 -0.0000
vt 1.000000 0.000000
vt 0.000000 1.000000
vt 0.000000 0.000000
vt 1.000000 1.000000
s 0
f 10/9/3 11/10/3 9/11/3
f 10/9/3 12/12/3 11/10/3
o Wall_Col.017
v -40.000000 -40.000000 -180.000000
v 40.000000 -40.000000 -180.000000
v -40.000000 -0.000008 -180.000000
v 40.000000 -0.000008 -180.000000
vn -0.0000 -0.0000 1.0000
vt 1.000000 0.000000
vt 0.000000 1.000000
vt 0.000000 0.000000
vt 1.000000 1.000000
s 0
f 14/13/4 15/14/4 13/15/4
f 14/13/4 16/16/4 15/14/4
o Wall_Col.018
v 40.000000 -40.000000 -40.000011
v -40.000000 -40.000000 -39.999985
v 40.000000 -0.000008 -40.000015
v -40.000000 -0.000008 -39.999989
vn -0.0000 -0.0000 -1.0000
vt 1.000000 0.000000
vt 0.000000 1.000000
vt 0.000000 0.000000
vt 1.000000 1.000000
s 0
f 18/17/5 19/18/5 17/19/5
f 18/17/5 20/20/5 19/18/5
o Wall_Col.019
v 39.999981 -40.000000 -100.000000
v 40.000019 -40.000000 -40.000000
v 39.999981 -0.000008 -100.000000
v 40.000019 -0.000008 -40.000000
vn -1.0000 -0.0000 -0.0000
vt 1.000000 0.000000
vt 0.000000 1.000000
vt 0.000000 0.000000
vt 1.000000 1.000000
s 0
f 22/21/6 23/22/6 21/23/6
f 22/21/6 24/24/6 23/22/6
o Wall_Col.020
v 39.999981 -40.000000 -180.000000
v 40.000019 -40.000000 -120.000000
v 39.999981 -0.000008 -180.000000
v 40.000019 -0.000008 -120.000000
vn -1.0000 -0.0000 -0.0000
vt 1.000000 0.000000
vt 0.000000 1.000000
vt 0.000000 0.000000
vt 1.000000 1.000000
s 0
f 26/25/7 27/26/7 25/27/7
f 26/25/7 28/28/7 27/26/7
o Wall_Col.021
v -39.999973 -40.000000 -120.000000
v -40.000034 -40.000000 -180.000000
v -39.999973 -0.000008 -120.000000
v -40.000031 -0.000008 -180.000000
vn 1.0000 -0.0000 -0.0000
vt 1.000000 0.000000
vt 0.000000 1.000000
vt 0.000000 0.000000
vt 1.000000 1.000000
s 0
f 30/29/8 31/30/8 29/31/8
f 30/29/8 32/32/8 31/30/8
o Wall_Col.022
v -39.999973 -40.000000 -40.000000
v -40.000034 -40.000000 -100.000000
v -39.999973 -0.000008 -40.000000
v -40.000031 -0.000008 -100.000000
vn 1.0000 -0.0000 -0.0000
vt 1.000000 0.000000
vt 0.000000 1.000000
vt 0.000000 0.000000
vt 1.000000 1.000000
s 0
f 34/33/9 35/34/9 33/35/9
f 34/33/9 36/36/9 35/34/9
o Wall_Col.023
v -19.999975 -40.000000 -100.000000
v -20.000032 -40.000000 -120.000000
v -19.999973 -0.000008 -100.000000
v -20.000031 -0.000008 -120.000000
vn 1.0000 -0.0000 -0.0000
vt 1.000000 0.000000
vt 0.000000 1.000000
vt 0.000000 0.000000
vt 1.000000 1.000000
s 0
f 38/37/10 39/38/10 37/39/10
f 38/37/10 40/40/10 39/38/10
o Wall_Col.024
v 19.999966 -40.000000 -120.000000
v 20.000042 -40.000000 -100.000000
v 19.999964 -0.000008 -120.000000
v 20.000040 -0.000008 -100.000000
vn -1.0000 -0.0000 -0.0000
vt 1.000000 0.000000
vt 0.000000 1.000000
vt 0.000000 0.000000
vt 1.000000 1.000000
s 0
f 42/41/11 43/42/11 41/43/11
f 42/41/11 44/44/11 43/42/11
o Wall_Col.025
v 19.999998 -40.000000 -99.999962
v 40.000000 -40.000000 -100.000046
v 19.999998 -0.000008 -99.999962
v 40.000000 -0.000008 -100.000046
vn -0.0000 -0.0000 1.0000
vt 1.000000 0.000000
vt 0.000000 1.000000
vt 0.000000 0.000000
vt 1.000000 1.000000
s 0
f 46/45/12 47/46/12 45/47/12
f 46/45/12 48/48/12 47/46/12
o Wall_Col.026
v -40.000000 -40.000000 -99.999962
v -19.999998 -40.000000 -100.000046
v -40.000000 -0.000008 -99.999962
v -19.999998 -0.000008 -100.000046
vn -0.0000 -0.0000 1.0000
vt 1.000000 0.000000
vt 0.000000 1.000000
vt 0.000000 0.000000
vt 1.000000 1.000000
s 0
f 50/49/13 51/50/13 49/51/13
f 50/49/13 52/52/13 51/50/13
o Wall_Col.027
v -19.999998 -40.000000 -120.000046
v -40.000000 -40.000000 -119.999947
v -19.999998 -0.000008 -120.000046
v -40.000000 -0.000008 -119.999954
vn -0.0000 -0.0000 -1.0000
vt 1.000000 0.000000
vt 0.000000 1.000000
vt 0.000000 0.000000
vt 1.000000 1.000000
s 0
f 54/53/14 55/54/14 53/55/14
f 54/53/14 56/56/14 55/54/14
o Wall_Col.028
v 40.000000 -40.000000 -120.000046
v 19.999998 -40.000000 -119.999947
v 40.000000 -0.000008 -120.000046
v 19.999998 -0.000008 -119.999954
vn -0.0000 -0.0000 -1.0000
vt 1.000000 0.000000
vt 0.000000 1.000000
vt 0.000000 0.000000
vt 1.000000 1.000000
s 0
f 58/57/15 59/58/15 57/59/15
f 58/57/15 60/60/15 59/58/15
