# Blender 4.1.0
# www.blender.org
mtllib Book.mtl
o Book
v -20.000000 0.000000 5.000000
v -20.000000 56.000000 5.000000
v -20.000000 0.000000 1.000000
v -20.000000 56.000000 1.000000
v 20.000000 0.000000 5.000000
v 20.000000 56.000000 5.000000
v 20.000000 0.000000 1.000000
v 20.000000 56.000000 1.000000
v -20.000000 0.000000 6.000000
v -20.000000 56.000000 6.000000
v 20.000000 56.000000 6.000000
v 20.000000 0.000000 6.000000
v -20.000000 56.000000 0.000000
v -20.000000 0.000000 0.000000
v 20.000000 0.000000 0.000000
v 20.000000 56.000000 0.000000
v -21.000000 0.000000 1.000000
v -21.000000 0.000000 5.000000
v -21.000000 56.000000 5.000000
v -21.000000 56.000000 1.000000
v -21.000000 0.000000 6.000000
v -21.000000 56.000000 6.000000
v -21.000000 56.000000 0.000000
v -21.000000 0.000000 0.000000
v -20.000000 55.000000 5.000000
v -20.000000 55.000000 1.000000
v 19.000000 55.000000 1.000000
v 19.000000 55.000000 5.000000
v -20.000000 1.000000 1.000000
v -20.000000 1.000000 5.000000
v 19.000000 1.000000 1.000000
v 19.000000 1.000000 5.000000
vn -0.0000 1.0000 -0.0000
vn 1.0000 -0.0000 -0.0000
vn -0.0000 -0.0000 1.0000
vn -0.0000 -1.0000 -0.0000
vn -0.0000 -0.0000 -1.0000
vn -1.0000 -0.0000 -0.0000
vt 0.875000 0.500000
vt 0.625000 0.500000
vt 0.625000 0.750000
vt 0.375000 0.750000
vt 0.375000 1.000000
vt 0.125000 0.750000
vt 0.875000 0.750000
vt 0.625000 0.250000
vt 0.375000 0.500000
vt 0.375000 0.250000
vt 0.125000 0.500000
vt 0.625000 0.000000
vt 0.375000 0.000000
vt 0.625000 1.000000
s 0
usemtl Cover
f 13/1/1 20/1/1 4/1/1
f 8/2/1 13/1/1 4/1/1
f 6/3/2 12/4/2 5/4/2
f 4/1/3 27/2/3 8/2/3
f 11/3/3 9/5/3 12/4/3
f 9/6/4 18/6/4 1/6/4
f 5/4/4 9/6/4 1/6/4
f 2/7/1 11/3/1 6/3/1
f 13/8/5 15/9/5 14/10/5
f 14/10/5 23/8/5 13/8/5
f 7/9/2 16/2/2 8/2/2
f 3/11/4 15/9/4 7/9/4
f 19/12/6 17/10/6 18/13/6
f 18/13/6 22/12/6 19/12/6
f 20/8/6 24/10/6 17/10/6
f 10/14/3 21/5/3 9/5/3
f 2/7/1 22/7/1 10/7/1
f 3/11/4 24/11/4 14/11/4
f 4/1/1 19/7/1 2/7/1
f 1/6/4 17/11/4 3/11/4
f 2/7/2 26/1/2 4/1/2
f 2/7/5 28/3/5 25/7/5
f 1/6/5 32/4/5 5/4/5
f 3/11/3 31/9/3 29/11/3
f 3/11/2 30/6/2 1/6/2
f 13/1/1 23/1/1 20/1/1
f 8/2/1 16/2/1 13/1/1
f 6/3/2 11/3/2 12/4/2
f 4/1/3 26/1/3 27/2/3
f 11/3/3 10/14/3 9/5/3
f 9/6/4 21/6/4 18/6/4
f 5/4/4 12/4/4 9/6/4
f 2/7/1 10/7/1 11/3/1
f 13/8/5 16/2/5 15/9/5
f 14/10/5 24/10/5 23/8/5
f 7/9/2 15/9/2 16/2/2
f 3/11/4 14/11/4 15/9/4
f 19/12/6 20/8/6 17/10/6
f 18/13/6 21/13/6 22/12/6
f 20/8/6 23/8/6 24/10/6
f 10/14/3 22/14/3 21/5/3
f 2/7/1 19/7/1 22/7/1
f 3/11/4 17/11/4 24/11/4
f 4/1/1 20/1/1 19/7/1
f 1/6/4 18/6/4 17/11/4
f 2/7/2 25/7/2 26/1/2
f 2/7/5 6/3/5 28/3/5
f 1/6/5 30/6/5 32/4/5
f 3/11/3 7/9/3 31/9/3
f 3/11/2 29/11/2 30/6/2
f 8/2/3 31/9/3 7/9/3
f 32/4/5 6/3/5 5/4/5
f 8/2/3 27/2/3 31/9/3
f 32/4/5 28/3/5 6/3/5
usemtl Inside
f 27/2/2 28/3/2 32/4/2
f 26/1/1 28/3/1 27/2/1
f 31/9/4 30/6/4 29/11/4
f 27/2/2 32/4/2 31/9/2
f 26/1/1 25/7/1 28/3/1
f 31/9/4 32/4/4 30/6/4
