# Blender 4.1.0
# www.blender.org
mtllib Obstruction.mtl
o Obstruction
v -10.000000 0.305585 3.633060
v -10.000000 9.702511 0.212858
v -10.000000 0.237181 3.445121
v -10.000000 9.634108 0.024920
v -9.000000 0.305585 3.633060
v -9.000000 9.702511 0.212858
v -9.000000 0.237181 3.445121
v -9.000000 9.634108 0.024920
v -10.000000 2.184971 2.949019
v -10.000000 2.116566 2.761081
v -9.000000 2.116566 2.761081
v -9.000000 2.184971 2.949019
v 10.000000 0.305585 3.633060
v 10.000000 9.702511 0.212858
v 10.000000 0.237181 3.445121
v 10.000000 9.634108 0.024920
v 9.000000 0.305585 3.633060
v 9.000000 9.702511 0.212858
v 9.000000 0.237181 3.445121
v 9.000000 9.634108 0.024920
v 10.000000 2.184971 2.949019
v 10.000000 2.116566 2.761081
v 9.000000 2.116566 2.761081
v 9.000000 2.184971 2.949019
v -10.000000 0.305585 -3.633060
v -10.000000 9.702511 -0.212859
v -10.000000 0.237181 -3.445121
v -10.000000 9.634108 -0.024920
v -9.000000 0.305585 -3.633060
v -9.000000 9.702511 -0.212859
v -9.000000 0.237181 -3.445121
v -9.000000 9.634108 -0.024920
v -10.000000 2.184971 -2.949020
v -10.000000 2.116566 -2.761081
v -9.000000 2.116566 -2.761081
v -9.000000 2.184971 -2.949020
v 10.000000 0.305585 -3.633060
v 10.000000 9.702511 -0.212859
v 10.000000 0.237181 -3.445121
v 10.000000 9.634108 -0.024920
v 9.000000 0.305585 -3.633060
v 9.000000 9.702511 -0.212859
v 9.000000 0.237181 -3.445121
v 9.000000 9.634108 -0.024920
v 10.000000 2.184971 -2.949020
v 10.000000 2.116566 -2.761081
v 9.000000 2.116566 -2.761081
v 9.000000 2.184971 -2.949020
v -10.000000 3.312602 2.538595
v -10.000000 3.244198 2.350657
v -9.000000 3.244198 2.350657
v -9.000000 3.312602 2.538595
v 10.000000 3.312602 2.538595
v 10.000000 3.244198 2.350657
v 9.000000 3.244198 2.350657
v 9.000000 3.312602 2.538595
v -10.000000 8.424529 0.678006
v -10.000000 8.356126 0.490067
v -9.000000 8.356126 0.490067
v -9.000000 8.424529 0.678006
v 10.000000 8.424529 0.678006
v 10.000000 8.356126 0.490067
v 9.000000 8.356126 0.490067
v 9.000000 8.424529 0.678006
v 10.000000 3.312602 -2.538596
v 10.000000 3.244198 -2.350657
v 9.000000 3.244198 -2.350657
v 9.000000 3.312602 -2.538596
v -10.000000 3.312602 -2.538596
v -10.000000 3.244198 -2.350657
v -9.000000 3.244198 -2.350657
v -9.000000 3.312602 -2.538596
v 10.000000 8.424529 -0.678006
v 10.000000 8.356126 -0.490068
v 9.000000 8.356126 -0.490068
v 9.000000 8.424529 -0.678006
v -10.000000 8.424529 -0.678006
v -10.000000 8.356126 -0.490068
v -9.000000 8.356126 -0.490068
v -9.000000 8.424529 -0.678006
vn -1.0000 -0.0000 -0.0000
vn -0.0000 -0.3420 -0.9397
vn -0.0000 1.0000 -0.0000
vn -0.0000 0.3420 0.9397
vn -0.0000 -0.9397 0.3420
vn 1.0000 -0.0000 -0.0000
vn -0.0000 -0.3420 0.9397
vn -0.0000 -1.0000 -0.0000
vn -0.0000 0.3420 -0.9397
vn -0.0000 -0.9397 -0.3420
vn -0.0000 0.9397 -0.3420
vn -0.0000 0.9397 0.3420
vt 0.625000 0.000000
vt 0.603750 0.250000
vt 0.603750 0.000000
vt 0.625000 0.250000
vt 0.603750 0.500000
vt 0.625000 0.750000
vt 0.625000 1.000000
vt 0.603750 1.000000
vt 0.603750 0.750000
vt 0.375000 0.500000
vt 0.125000 0.750000
vt 0.125000 0.500000
vt 0.500000 0.750000
vt 0.375000 1.000000
vt 0.375000 0.750000
vt 0.500000 0.250000
vt 0.375000 0.250000
vt 0.500000 0.000000
vt 0.375000 0.000000
vt 0.500000 0.500000
vt 0.625000 0.500000
vt 0.518750 0.750000
vt 0.500000 1.000000
vt 0.518750 0.250000
vt 0.518750 0.000000
vt 0.518750 0.750000
vt 0.518750 1.000000
vt 0.518750 0.500000
vt 0.518750 1.000000
s 0
usemtl yellow
f 2/1/1 58/2/1 57/3/1
f 4/4/2 59/5/2 58/2/2
f 6/6/3 26/7/3 2/7/3
f 6/6/4 57/8/4 60/9/4
f 7/10/5 1/11/5 3/12/5
f 12/13/4 1/14/4 5/15/4
f 7/10/6 12/13/6 5/15/6
f 10/16/2 7/10/2 3/17/2
f 9/18/1 3/17/1 1/19/1
f 62/2/6 14/1/6 61/3/6
f 63/5/2 16/4/2 62/2/2
f 61/8/4 18/6/4 64/9/4
f 13/11/5 19/10/5 15/12/5
f 38/7/3 18/6/3 14/7/3
f 13/14/4 24/13/4 17/15/4
f 19/10/1 24/13/1 23/20/1
f 19/10/2 22/16/2 15/17/2
f 15/17/6 21/18/6 13/19/6
f 78/2/1 26/1/1 77/3/1
f 79/5/7 28/4/7 78/2/7
f 40/4/8 20/21/8 44/21/8
f 77/8/9 30/6/9 80/9/9
f 25/11/10 31/10/10 27/12/10
f 25/14/9 36/13/9 29/15/9
f 31/10/6 36/13/6 35/20/6
f 31/10/7 34/16/7 27/17/7
f 27/17/1 33/18/1 25/19/1
f 38/1/6 74/2/6 73/3/6
f 40/4/7 75/5/7 74/2/7
f 42/6/9 73/8/9 76/9/9
f 43/10/10 37/11/10 39/12/10
f 4/4/8 32/21/8 8/21/8
f 48/13/9 37/14/9 41/15/9
f 43/10/1 48/13/1 41/15/1
f 46/16/7 43/10/7 39/17/7
f 45/18/6 39/17/6 37/19/6
f 2/7/1 28/4/1 4/4/1
f 40/4/6 14/7/6 16/4/6
f 52/22/4 9/23/4 12/13/4
f 50/24/2 11/20/2 10/16/2
f 49/25/1 10/16/1 9/18/1
f 21/23/4 56/26/4 24/13/4
f 23/20/2 54/24/2 22/16/2
f 22/16/6 53/25/6 21/18/6
f 60/9/4 49/27/4 52/22/4
f 58/2/2 51/28/2 50/24/2
f 57/3/1 50/24/1 49/25/1
f 53/29/4 64/9/4 56/26/4
f 55/28/2 62/2/2 54/24/2
f 54/24/6 61/3/6 53/25/6
f 68/22/9 45/23/9 48/13/9
f 66/24/7 47/20/7 46/16/7
f 65/25/6 46/16/6 45/18/6
f 33/23/9 72/26/9 36/13/9
f 35/20/7 70/24/7 34/16/7
f 34/16/1 69/25/1 33/18/1
f 76/9/9 65/27/9 68/22/9
f 74/2/7 67/28/7 66/24/7
f 73/3/6 66/24/6 65/25/6
f 69/29/9 80/9/9 72/26/9
f 71/28/7 78/2/7 70/24/7
f 70/24/1 77/3/1 69/25/1
f 24/13/4 52/22/4 12/13/4
f 51/28/2 23/20/2 11/20/2
f 47/20/7 71/28/7 35/20/7
f 72/26/9 48/13/9 36/13/9
f 80/9/9 42/6/9 76/9/9
f 44/21/7 79/5/7 75/5/7
f 8/21/2 63/5/2 59/5/2
f 64/9/4 6/6/4 60/9/4
f 67/28/1 76/9/1 68/22/1
f 71/28/6 80/9/6 79/5/6
f 51/28/6 60/9/6 52/22/6
f 55/28/1 64/9/1 63/5/1
f 20/21/8 32/21/8 44/21/8
f 30/6/3 18/6/3 42/6/3
f 76/9/10 79/5/10 80/9/10
f 64/9/5 59/5/5 63/5/5
f 55/28/11 52/22/11 56/26/11
f 68/22/12 71/28/12 67/28/12
f 48/13/10 35/20/10 36/13/10
f 11/20/5 24/13/5 12/13/5
f 2/1/1 4/4/1 58/2/1
f 4/4/2 8/21/2 59/5/2
f 6/6/3 30/6/3 26/7/3
f 6/6/4 2/7/4 57/8/4
f 7/10/5 5/15/5 1/11/5
f 12/13/4 9/23/4 1/14/4
f 7/10/6 11/20/6 12/13/6
f 10/16/2 11/20/2 7/10/2
f 9/18/1 10/16/1 3/17/1
f 62/2/6 16/4/6 14/1/6
f 63/5/2 20/21/2 16/4/2
f 61/8/4 14/7/4 18/6/4
f 13/11/5 17/15/5 19/10/5
f 38/7/3 42/6/3 18/6/3
f 13/14/4 21/23/4 24/13/4
f 19/10/1 17/15/1 24/13/1
f 19/10/2 23/20/2 22/16/2
f 15/17/6 22/16/6 21/18/6
f 78/2/1 28/4/1 26/1/1
f 79/5/7 32/21/7 28/4/7
f 40/4/8 16/4/8 20/21/8
f 77/8/9 26/7/9 30/6/9
f 25/11/10 29/15/10 31/10/10
f 25/14/9 33/23/9 36/13/9
f 31/10/6 29/15/6 36/13/6
f 31/10/7 35/20/7 34/16/7
f 27/17/1 34/16/1 33/18/1
f 38/1/6 40/4/6 74/2/6
f 40/4/7 44/21/7 75/5/7
f 42/6/9 38/7/9 73/8/9
f 43/10/10 41/15/10 37/11/10
f 4/4/8 28/4/8 32/21/8
f 48/13/9 45/23/9 37/14/9
f 43/10/1 47/20/1 48/13/1
f 46/16/7 47/20/7 43/10/7
f 45/18/6 46/16/6 39/17/6
f 2/7/1 26/1/1 28/4/1
f 40/4/6 38/1/6 14/7/6
f 52/22/4 49/27/4 9/23/4
f 50/24/2 51/28/2 11/20/2
f 49/25/1 50/24/1 10/16/1
f 21/23/4 53/29/4 56/26/4
f 23/20/2 55/28/2 54/24/2
f 22/16/6 54/24/6 53/25/6
f 60/9/4 57/8/4 49/27/4
f 58/2/2 59/5/2 51/28/2
f 57/3/1 58/2/1 50/24/1
f 53/29/4 61/8/4 64/9/4
f 55/28/2 63/5/2 62/2/2
f 54/24/6 62/2/6 61/3/6
f 68/22/9 65/27/9 45/23/9
f 66/24/7 67/28/7 47/20/7
f 65/25/6 66/24/6 46/16/6
f 33/23/9 69/29/9 72/26/9
f 35/20/7 71/28/7 70/24/7
f 34/16/1 70/24/1 69/25/1
f 76/9/9 73/8/9 65/27/9
f 74/2/7 75/5/7 67/28/7
f 73/3/6 74/2/6 66/24/6
f 69/29/9 77/8/9 80/9/9
f 71/28/7 79/5/7 78/2/7
f 70/24/1 78/2/1 77/3/1
f 24/13/4 56/26/4 52/22/4
f 51/28/2 55/28/2 23/20/2
f 47/20/7 67/28/7 71/28/7
f 72/26/9 68/22/9 48/13/9
f 80/9/9 30/6/9 42/6/9
f 44/21/7 32/21/7 79/5/7
f 8/21/2 20/21/2 63/5/2
f 64/9/4 18/6/4 6/6/4
f 67/28/1 75/5/1 76/9/1
f 71/28/6 72/26/6 80/9/6
f 51/28/6 59/5/6 60/9/6
f 55/28/1 56/26/1 64/9/1
f 20/21/8 8/21/8 32/21/8
f 30/6/3 6/6/3 18/6/3
f 76/9/10 75/5/10 79/5/10
f 64/9/5 60/9/5 59/5/5
f 55/28/11 51/28/11 52/22/11
f 68/22/12 72/26/12 71/28/12
f 48/13/10 47/20/10 35/20/10
f 11/20/5 23/20/5 24/13/5
o Board
v -10.000000 1.603602 3.521817
v -10.000000 9.872898 0.512040
v -10.000000 1.466794 3.145940
v -10.000000 9.736090 0.136163
v 10.000000 1.603602 3.521817
v 10.000000 9.872898 0.512040
v 10.000000 1.466794 3.145940
v 10.000000 9.736090 0.136163
vn -1.0000 -0.0000 -0.0000
vn -0.0000 -0.3420 -0.9397
vn 1.0000 -0.0000 -0.0000
vn -0.0000 0.3420 0.9397
vn -0.0000 -0.9397 0.3420
vn -0.0000 0.9397 -0.3420
vt 0.625000 0.000000
vt 0.375000 0.250000
vt 0.375000 0.000000
vt 0.625000 0.250000
vt 0.375000 0.500000
vt 0.625000 0.500000
vt 0.375000 0.750000
vt 0.625000 0.750000
vt 0.375000 1.000000
vt 0.125000 0.750000
vt 0.125000 0.500000
vt 0.875000 0.500000
vt 0.625000 1.000000
vt 0.875000 0.750000
s 0
usemtl img
f 82/30/13 83/31/13 81/32/13
f 84/33/14 87/34/14 83/31/14
f 88/35/15 85/36/15 87/34/15
f 86/37/16 81/38/16 85/36/16
f 87/34/17 81/39/17 83/40/17
f 84/41/18 86/37/18 88/35/18
f 82/30/13 84/33/13 83/31/13
f 84/33/14 88/35/14 87/34/14
f 88/35/15 86/37/15 85/36/15
f 86/37/16 82/42/16 81/38/16
f 87/34/17 85/36/17 81/39/17
f 84/41/18 82/43/18 86/37/18
