# Blender 4.1.0
# www.blender.org
o Ground_Col.027
v -40.000000 0.000000 0.000000
v 40.000000 0.000000 0.000000
v -40.000000 0.000000 -40.000000
v 40.000000 0.000000 -40.000000
vn -0.0000 1.0000 -0.0000
vt 1.000000 0.000000
vt 0.000000 1.000000
vt 0.000000 0.000000
vt 1.000000 1.000000
s 0
f 2/1/1 3/2/1 1/3/1
f 2/1/1 4/4/1 3/2/1
o Ground_Col.028
v -200.000000 0.000000 -10.000000
v -150.000000 0.000000 -10.000000
v -200.000000 0.000000 -40.000000
v -150.000000 0.000000 -40.000000
vn -0.0000 1.0000 -0.0000
vt 1.000000 0.000000
vt 0.000000 1.000000
vt 0.000000 0.000000
vt 1.000000 1.000000
s 0
f 6/5/2 7/6/2 5/7/2
f 6/5/2 8/8/2 7/6/2
o Ground_Col.029
v -200.000000 0.000000 -60.000000
v -150.000000 0.000000 -60.000000
v -200.000000 0.000000 -90.000000
v -150.000000 0.000000 -90.000000
vn -0.0000 1.0000 -0.0000
vt 1.000000 0.000000
vt 0.000000 1.000000
vt 0.000000 0.000000
vt 1.000000 1.000000
s 0
f 10/9/3 11/10/3 9/11/3
f 10/9/3 12/12/3 11/10/3
o Ground_Col.030
v -200.000000 0.000000 -110.000000
v -150.000000 0.000000 -110.000000
v -200.000000 0.000000 -140.000000
v -150.000000 0.000000 -140.000000
vn -0.0000 1.0000 -0.0000
vt 1.000000 0.000000
vt 0.000000 1.000000
vt 0.000000 0.000000
vt 1.000000 1.000000
s 0
f 14/13/4 15/14/4 13/15/4
f 14/13/4 16/16/4 15/14/4
o Ground_Col.031
v -200.000000 0.000000 -160.000000
v -150.000000 0.000000 -160.000000
v -200.000000 0.000000 -190.000000
v -150.000000 0.000000 -190.000000
vn -0.0000 1.0000 -0.0000
vt 1.000000 0.000000
vt 0.000000 1.000000
vt 0.000000 0.000000
vt 1.000000 1.000000
s 0
f 18/17/5 19/18/5 17/19/5
f 18/17/5 20/20/5 19/18/5
o Ground_Col.032
v 150.000000 0.000000 -10.000000
v 200.000000 0.000000 -10.000000
v 150.000000 0.000000 -40.000000
v 200.000000 0.000000 -40.000000
vn -0.0000 1.0000 -0.0000
vt 1.000000 0.000000
vt 0.000000 1.000000
vt 0.000000 0.000000
vt 1.000000 1.000000
s 0
f 22/21/6 23/22/6 21/23/6
f 22/21/6 24/24/6 23/22/6
o Ground_Col.033
v 150.000000 0.000000 -60.000000
v 200.000000 0.000000 -60.000000
v 150.000000 0.000000 -90.000000
v 200.000000 0.000000 -90.000000
vn -0.0000 1.0000 -0.0000
vt 1.000000 0.000000
vt 0.000000 1.000000
vt 0.000000 0.000000
vt 1.000000 1.000000
s 0
f 26/25/7 27/26/7 25/27/7
f 26/25/7 28/28/7 27/26/7
o Ground_Col.034
v 150.000000 0.000000 -110.000000
v 200.000000 0.000000 -110.000000
v 150.000000 0.000000 -140.000000
v 200.000000 0.000000 -140.000000
vn -0.0000 1.0000 -0.0000
vt 1.000000 0.000000
vt 0.000000 1.000000
vt 0.000000 0.000000
vt 1.000000 1.000000
s 0
f 30/29/8 31/30/8 29/31/8
f 30/29/8 32/32/8 31/30/8
o Ground_Col.035
v 150.000000 0.000000 -160.000000
v 200.000000 0.000000 -160.000000
v 150.000000 0.000000 -190.000000
v 200.000000 0.000000 -190.000000
vn -0.0000 1.0000 -0.0000
vt 1.000000 0.000000
vt 0.000000 1.000000
vt 0.000000 0.000000
vt 1.000000 1.000000
s 0
f 34/33/9 35/34/9 33/35/9
f 34/33/9 36/36/9 35/34/9
o Ground_Col.036
v -40.000000 0.000000 -160.000000
v 40.000000 0.000000 -160.000000
v -40.000000 0.000000 -200.000000
v 40.000000 0.000000 -200.000000
vn -0.0000 1.0000 -0.0000
vt 1.000000 0.000000
vt 0.000000 1.000000
vt 0.000000 0.000000
vt 1.000000 1.000000
s 0
f 38/37/10 39/38/10 37/39/10
f 38/37/10 40/40/10 39/38/10
o Ground_Col.037
v -25.000000 -40.000000 -95.000000
v 25.000000 -40.000000 -95.000000
v -25.000000 0.000000 -160.000000
v 25.000000 0.000000 -160.000000
vn -0.0000 0.8517 0.5241
vt 1.000000 0.000000
vt 0.000000 1.000000
vt 0.000000 0.000000
vt 1.000000 1.000000
s 0
f 42/41/11 43/42/11 41/43/11
f 42/41/11 44/44/11 43/42/11
o Ground_Col.038
v -200.000000 -40.000000 -0.199997
v 200.000000 -40.000000 -0.199997
v -200.000000 -40.000000 -200.199997
v 200.000000 -40.000000 -200.199997
vn -0.0000 1.0000 -0.0000
vt 1.000000 0.000000
vt 0.000000 1.000000
vt 0.000000 0.000000
vt 1.000000 1.000000
s 0
f 46/45/12 47/46/12 45/47/12
f 46/45/12 48/48/12 47/46/12
o Ground_Col.039
v -35.000000 0.000000 -95.000000
v -25.000000 0.000000 -95.000000
v -35.000000 0.000000 -105.000000
v -25.000000 0.000000 -105.000000
vn -0.0000 1.0000 -0.0000
vt 1.000000 0.000000
vt 0.000000 1.000000
vt 0.000000 0.000000
vt 1.000000 1.000000
s 0
f 50/49/13 51/50/13 49/51/13
f 50/49/13 52/52/13 51/50/13
o Ground_Col.040
v -35.000000 0.000000 -95.000000
v -25.000000 0.000000 -95.000000
v -35.000000 0.000000 -105.000000
v -25.000000 0.000000 -105.000000
vn -0.0000 1.0000 -0.0000
vt 1.000000 0.000000
vt 0.000000 1.000000
vt 0.000000 0.000000
vt 1.000000 1.000000
s 0
f 54/53/14 55/54/14 53/55/14
f 54/53/14 56/56/14 55/54/14
o Ground_Col.041
v 25.000000 0.000000 -95.000000
v 35.000000 0.000000 -95.000000
v 25.000000 0.000000 -105.000000
v 35.000000 0.000000 -105.000000
vn -0.0000 1.0000 -0.0000
vt 1.000000 0.000000
vt 0.000000 1.000000
vt 0.000000 0.000000
vt 1.000000 1.000000
s 0
f 58/57/15 59/58/15 57/59/15
f 58/57/15 60/60/15 59/58/15
o Ground_Col.042
v -200.000000 40.000000 -0.199997
v 200.000000 40.000000 -0.199997
v -200.000000 40.000000 -200.199997
v 200.000000 40.000000 -200.199997
vn -0.0000 -1.0000 -0.0000
vt 0.000000 1.000000
vt 1.000000 0.000000
vt 0.000000 0.000000
vt 1.000000 1.000000
s 0
f 63/61/16 62/62/16 61/63/16
f 63/61/16 64/64/16 62/62/16
o Wall_Col.037
v 40.000000 -40.000000 -40.000011
v -40.000000 -40.000000 -39.999989
v 40.000000 0.000000 -40.000015
v -40.000000 0.000000 -39.999989
vn -0.0000 -0.0000 -1.0000
vt 1.000000 0.000000
vt 0.000000 1.000000
vt 0.000000 0.000000
vt 1.000000 1.000000
s 0
f 66/65/17 67/66/17 65/67/17
f 66/65/17 68/68/17 67/66/17
o Wall_Col.040
v -40.000000 -40.000000 -10.000013
v -200.000000 -40.000000 -9.999987
v -40.000000 40.000000 -10.000015
v -200.000000 40.000000 -9.999989
vn -0.0000 -0.0000 -1.0000
vt 1.000000 0.000000
vt 0.000000 1.000000
vt 0.000000 0.000000
vt 1.000000 1.000000
s 0
f 70/69/18 71/70/18 69/71/18
f 70/69/18 72/72/18 71/70/18
o Wall_Col.041
v 200.000000 -40.000000 -10.000013
v 40.000000 -40.000000 -9.999987
v 200.000000 40.000000 -10.000015
v 40.000000 40.000000 -9.999989
vn -0.0000 -0.0000 -1.0000
vt 1.000000 0.000000
vt 0.000000 1.000000
vt 0.000000 0.000000
vt 1.000000 1.000000
s 0
f 74/73/19 75/74/19 73/75/19
f 74/73/19 76/76/19 75/74/19
o Wall_Col.042
v -40.000000 -40.000000 -159.999969
v 40.000000 -40.000000 -160.000031
v -40.000000 0.000000 -159.999969
v 40.000000 0.000000 -160.000031
vn -0.0000 -0.0000 1.0000
vt 1.000000 0.000000
vt 0.000000 1.000000
vt 0.000000 0.000000
vt 1.000000 1.000000
s 0
f 78/77/20 79/78/20 77/79/20
f 78/77/20 80/80/20 79/78/20
o Wall_Col.047
v 40.000000 -40.000000 -189.999969
v 200.000000 -40.000000 -190.000031
v 40.000000 40.000000 -189.999969
v 200.000000 40.000000 -190.000031
vn -0.0000 -0.0000 1.0000
vt 1.000000 0.000000
vt 0.000000 1.000000
vt 0.000000 0.000000
vt 1.000000 1.000000
s 0
f 82/81/21 83/82/21 81/83/21
f 82/81/21 84/84/21 83/82/21
o Wall_Col.048
v -200.000000 -40.000000 -189.999969
v -40.000000 -40.000000 -190.000031
v -200.000000 40.000000 -189.999969
v -40.000000 40.000000 -190.000031
vn -0.0000 -0.0000 1.0000
vt 1.000000 0.000000
vt 0.000000 1.000000
vt 0.000000 0.000000
vt 1.000000 1.000000
s 0
f 86/85/22 87/86/22 85/87/22
f 86/85/22 88/88/22 87/86/22
o Wall_Col.073
v -199.999969 -40.000000 -10.000000
v -200.000046 -40.000000 -190.000000
v -199.999969 40.000000 -10.000000
v -200.000046 40.000000 -190.000000
vn 1.0000 -0.0000 -0.0000
vt 1.000000 0.000000
vt 0.000000 1.000000
vt 0.000000 0.000000
vt 1.000000 1.000000
s 0
f 90/89/23 91/90/23 89/91/23
f 90/89/23 92/92/23 91/90/23
o Wall_Col.076
v 199.999908 -40.000000 -190.000000
v 200.000137 -40.000000 -10.000000
v 199.999908 40.000000 -190.000000
v 200.000137 40.000000 -10.000000
vn -1.0000 -0.0000 -0.0000
vt 1.000000 0.000000
vt 0.000000 1.000000
vt 0.000000 0.000000
vt 1.000000 1.000000
s 0
f 94/93/24 95/94/24 93/95/24
f 94/93/24 96/96/24 95/94/24
o Wall_Col.077
v 149.999908 -40.000000 -190.000000
v 150.000137 -40.000000 -160.000000
v 149.999908 0.000000 -190.000000
v 150.000137 0.000000 -160.000000
vn -1.0000 -0.0000 -0.0000
vt 1.000000 0.000000
vt 0.000000 1.000000
vt 0.000000 0.000000
vt 1.000000 1.000000
s 0
f 98/97/25 99/98/25 97/99/25
f 98/97/25 100/100/25 99/98/25
o Wall_Col.078
v 149.999908 -40.000000 -140.000000
v 150.000137 -40.000000 -110.000000
v 149.999908 0.000000 -140.000000
v 150.000137 0.000000 -110.000000
vn -1.0000 -0.0000 -0.0000
vt 1.000000 0.000000
vt 0.000000 1.000000
vt 0.000000 0.000000
vt 1.000000 1.000000
s 0
f 102/101/26 103/102/26 101/103/26
f 102/101/26 104/104/26 103/102/26
o Wall_Col.079
v 149.999908 -40.000000 -90.000000
v 150.000137 -40.000000 -60.000000
v 149.999908 0.000000 -90.000000
v 150.000137 0.000000 -60.000000
vn -1.0000 -0.0000 -0.0000
vt 1.000000 0.000000
vt 0.000000 1.000000
vt 0.000000 0.000000
vt 1.000000 1.000000
s 0
f 106/105/27 107/106/27 105/107/27
f 106/105/27 108/108/27 107/106/27
o Wall_Col.080
v 149.999908 -40.000000 -40.000000
v 150.000137 -40.000000 -10.000000
v 149.999908 0.000000 -40.000000
v 150.000137 0.000000 -10.000000
vn -1.0000 -0.0000 -0.0000
vt 1.000000 0.000000
vt 0.000000 1.000000
vt 0.000000 0.000000
vt 1.000000 1.000000
s 0
f 110/109/28 111/110/28 109/111/28
f 110/109/28 112/112/28 111/110/28
o Wall_Col.081
v -149.999893 -40.000000 -10.000000
v -150.000122 -40.000000 -40.000000
v -149.999878 0.000000 -10.000000
v -150.000122 0.000000 -40.000000
vn 1.0000 -0.0000 -0.0000
vt 1.000000 0.000000
vt 0.000000 1.000000
vt 0.000000 0.000000
vt 1.000000 1.000000
s 0
f 114/113/29 115/114/29 113/115/29
f 114/113/29 116/116/29 115/114/29
o Wall_Col.082
v -149.999893 -40.000000 -60.000000
v -150.000122 -40.000000 -90.000000
v -149.999878 0.000000 -60.000000
v -150.000122 0.000000 -90.000000
vn 1.0000 -0.0000 -0.0000
vt 1.000000 0.000000
vt 0.000000 1.000000
vt 0.000000 0.000000
vt 1.000000 1.000000
s 0
f 118/117/30 119/118/30 117/119/30
f 118/117/30 120/120/30 119/118/30
o Wall_Col.083
v -149.999893 -40.000000 -110.000000
v -150.000122 -40.000000 -140.000000
v -149.999878 0.000000 -110.000000
v -150.000122 0.000000 -140.000000
vn 1.0000 -0.0000 -0.0000
vt 1.000000 0.000000
vt 0.000000 1.000000
vt 0.000000 0.000000
vt 1.000000 1.000000
s 0
f 122/121/31 123/122/31 121/123/31
f 122/121/31 124/124/31 123/122/31
o Wall_Col.084
v -149.999893 -40.000000 -160.000000
v -150.000122 -40.000000 -190.000000
v -149.999878 0.000000 -160.000000
v -150.000122 0.000000 -190.000000
vn 1.0000 -0.0000 -0.0000
vt 1.000000 0.000000
vt 0.000000 1.000000
vt 0.000000 0.000000
vt 1.000000 1.000000
s 0
f 126/125/32 127/126/32 125/127/32
f 126/125/32 128/128/32 127/126/32
o Wall_Col.085
v 40.000107 -40.000000 -160.000000
v 39.999870 -40.000000 -190.000000
v 40.000107 0.000000 -160.000000
v 39.999874 0.000000 -190.000000
vn 1.0000 -0.0000 -0.0000
vt 1.000000 0.000000
vt 0.000000 1.000000
vt 0.000000 0.000000
vt 1.000000 1.000000
s 0
f 130/129/33 131/130/33 129/131/33
f 130/129/33 132/132/33 131/130/33
o Wall_Col.086
v 40.000107 -40.000000 -10.000000
v 39.999870 -40.000000 -40.000000
v 40.000107 0.000000 -10.000000
v 39.999874 0.000000 -40.000000
vn 1.0000 -0.0000 -0.0000
vt 1.000000 0.000000
vt 0.000000 1.000000
vt 0.000000 0.000000
vt 1.000000 1.000000
s 0
f 134/133/34 135/134/34 133/135/34
f 134/133/34 136/136/34 135/134/34
o Wall_Col.087
v -40.000069 -40.000000 -40.000000
v -39.999855 -40.000000 -10.000000
v -40.000069 0.000000 -40.000000
v -39.999855 0.000000 -10.000000
vn -1.0000 -0.0000 -0.0000
vt 1.000000 0.000000
vt 0.000000 1.000000
vt 0.000000 0.000000
vt 1.000000 1.000000
s 0
f 138/137/35 139/138/35 137/139/35
f 138/137/35 140/140/35 139/138/35
o Wall_Col.088
v -40.000084 -40.000000 -190.000000
v -39.999870 -40.000000 -160.000000
v -40.000084 0.000000 -190.000000
v -39.999870 0.000000 -160.000000
vn -1.0000 -0.0000 -0.0000
vt 1.000000 0.000000
vt 0.000000 1.000000
vt 0.000000 0.000000
vt 1.000000 1.000000
s 0
f 142/141/36 143/142/36 141/143/36
f 142/141/36 144/144/36 143/142/36
o Wall_Col.089
v 200.000000 -40.000000 -40.000011
v 150.000000 -40.000000 -39.999989
v 200.000000 0.000000 -40.000015
v 150.000000 0.000000 -39.999989
vn -0.0000 -0.0000 -1.0000
vt 1.000000 0.000000
vt 0.000000 1.000000
vt 0.000000 0.000000
vt 1.000000 1.000000
s 0
f 146/145/37 147/146/37 145/147/37
f 146/145/37 148/148/37 147/146/37
o Wall_Col.090
v 200.000000 -40.000000 -90.000015
v 150.000000 -40.000000 -89.999985
v 200.000000 0.000000 -90.000015
v 150.000000 0.000000 -89.999992
vn -0.0000 -0.0000 -1.0000
vt 1.000000 0.000000
vt 0.000000 1.000000
vt 0.000000 0.000000
vt 1.000000 1.000000
s 0
f 150/149/38 151/150/38 149/151/38
f 150/149/38 152/152/38 151/150/38
o Wall_Col.091
v 200.000000 -40.000000 -140.000015
v 150.000000 -40.000000 -139.999985
v 200.000000 0.000000 -140.000015
v 150.000000 0.000000 -139.999985
vn -0.0000 -0.0000 -1.0000
vt 1.000000 0.000000
vt 0.000000 1.000000
vt 0.000000 0.000000
vt 1.000000 1.000000
s 0
f 154/153/39 155/154/39 153/155/39
f 154/153/39 156/156/39 155/154/39
o Wall_Col.092
v 150.000000 -40.000000 -159.999969
v 200.000000 -40.000000 -160.000015
v 150.000000 0.000000 -159.999969
v 200.000000 0.000000 -160.000015
vn -0.0000 -0.0000 1.0000
vt 1.000000 0.000000
vt 0.000000 1.000000
vt 0.000000 0.000000
vt 1.000000 1.000000
s 0
f 158/157/40 159/158/40 157/159/40
f 158/157/40 160/160/40 159/158/40
o Wall_Col.093
v 150.000000 -40.000000 -109.999977
v 200.000000 -40.000000 -110.000015
v 150.000000 0.000000 -109.999969
v 200.000000 0.000000 -110.000015
vn -0.0000 -0.0000 1.0000
vt 1.000000 0.000000
vt 0.000000 1.000000
vt 0.000000 0.000000
vt 1.000000 1.000000
s 0
f 162/161/41 163/162/41 161/163/41
f 162/161/41 164/164/41 163/162/41
o Wall_Col.094
v 150.000000 -40.000000 -59.999973
v 200.000000 -40.000000 -60.000015
v 150.000000 0.000000 -59.999973
v 200.000000 0.000000 -60.000015
vn -0.0000 -0.0000 1.0000
vt 1.000000 0.000000
vt 0.000000 1.000000
vt 0.000000 0.000000
vt 1.000000 1.000000
s 0
f 166/165/42 167/166/42 165/167/42
f 166/165/42 168/168/42 167/166/42
o Wall_Col.095
v -150.000000 -40.000000 -40.000011
v -200.000000 -40.000000 -39.999989
v -150.000000 0.000000 -40.000015
v -200.000000 0.000000 -39.999989
vn -0.0000 -0.0000 -1.0000
vt 1.000000 0.000000
vt 0.000000 1.000000
vt 0.000000 0.000000
vt 1.000000 1.000000
s 0
f 170/169/43 171/170/43 169/171/43
f 170/169/43 172/172/43 171/170/43
o Wall_Col.096
v -150.000000 -40.000000 -90.000015
v -200.000000 -40.000000 -89.999985
v -150.000000 0.000000 -90.000015
v -200.000000 0.000000 -89.999992
vn -0.0000 -0.0000 -1.0000
vt 1.000000 0.000000
vt 0.000000 1.000000
vt 0.000000 0.000000
vt 1.000000 1.000000
s 0
f 174/173/44 175/174/44 173/175/44
f 174/173/44 176/176/44 175/174/44
o Wall_Col.097
v -150.000000 -40.000000 -140.000015
v -200.000000 -40.000000 -139.999985
v -150.000000 0.000000 -140.000015
v -200.000000 0.000000 -139.999985
vn -0.0000 -0.0000 -1.0000
vt 1.000000 0.000000
vt 0.000000 1.000000
vt 0.000000 0.000000
vt 1.000000 1.000000
s 0
f 178/177/45 179/178/45 177/179/45
f 178/177/45 180/180/45 179/178/45
o Wall_Col.098
v -200.000000 -40.000000 -159.999969
v -150.000000 -40.000000 -160.000015
v -200.000000 0.000000 -159.999969
v -150.000000 0.000000 -160.000015
vn -0.0000 -0.0000 1.0000
vt 1.000000 0.000000
vt 0.000000 1.000000
vt 0.000000 0.000000
vt 1.000000 1.000000
s 0
f 182/181/46 183/182/46 181/183/46
f 182/181/46 184/184/46 183/182/46
o Wall_Col.099
v -200.000000 -40.000000 -109.999977
v -150.000000 -40.000000 -110.000015
v -200.000000 0.000000 -109.999969
v -150.000000 0.000000 -110.000015
vn -0.0000 -0.0000 1.0000
vt 1.000000 0.000000
vt 0.000000 1.000000
vt 0.000000 0.000000
vt 1.000000 1.000000
s 0
f 186/185/47 187/186/47 185/187/47
f 186/185/47 188/188/47 187/186/47
o Wall_Col.100
v -200.000000 -40.000000 -59.999973
v -150.000000 -40.000000 -60.000015
v -200.000000 0.000000 -59.999973
v -150.000000 0.000000 -60.000015
vn -0.0000 -0.0000 1.0000
vt 1.000000 0.000000
vt 0.000000 1.000000
vt 0.000000 0.000000
vt 1.000000 1.000000
s 0
f 190/189/48 191/190/48 189/191/48
f 190/189/48 192/192/48 191/190/48
o Wall_Col.101
v -24.999886 -40.000000 -95.000000
v -25.000120 -40.000000 -105.000000
v -24.999884 0.000000 -95.000000
v -25.000118 0.000000 -105.000000
vn 1.0000 -0.0000 -0.0000
vt 1.000000 0.000000
vt 0.000000 1.000000
vt 0.000000 0.000000
vt 1.000000 1.000000
s 0
f 194/193/49 195/194/49 193/195/49
f 194/193/49 196/196/49 195/194/49
o Wall_Col.102
v -35.000080 -40.000000 -105.000000
v -34.999855 -40.000000 -95.000000
v -35.000084 0.000000 -105.000000
v -34.999855 0.000000 -95.000000
vn -1.0000 -0.0000 -0.0000
vt 1.000000 0.000000
vt 0.000000 1.000000
vt 0.000000 0.000000
vt 1.000000 1.000000
s 0
f 198/197/50 199/198/50 197/199/50
f 198/197/50 200/200/50 199/198/50
o Wall_Col.103
v -25.000000 -40.000000 -105.000145
v -35.000000 -40.000000 -104.999908
v -25.000000 0.000000 -105.000153
v -35.000000 0.000000 -104.999908
vn -0.0000 -0.0000 -1.0000
vt 1.000000 0.000000
vt 0.000000 1.000000
vt 0.000000 0.000000
vt 1.000000 1.000000
s 0
f 202/201/51 203/202/51 201/203/51
f 202/201/51 204/204/51 203/202/51
o Wall_Col.104
v -35.000000 -40.000000 -94.999886
v -25.000000 -40.000000 -95.000122
v -35.000000 0.000000 -94.999886
v -25.000000 0.000000 -95.000114
vn -0.0000 -0.0000 1.0000
vt 1.000000 0.000000
vt 0.000000 1.000000
vt 0.000000 0.000000
vt 1.000000 1.000000
s 0
f 206/205/52 207/206/52 205/207/52
f 206/205/52 208/208/52 207/206/52
o Wall_Col.105
v 35.000114 -40.000000 -95.000000
v 34.999878 -40.000000 -105.000000
v 35.000114 0.000000 -95.000000
v 34.999882 0.000000 -105.000000
vn 1.0000 -0.0000 -0.0000
vt 1.000000 0.000000
vt 0.000000 1.000000
vt 0.000000 0.000000
vt 1.000000 1.000000
s 0
f 210/209/53 211/210/53 209/211/53
f 210/209/53 212/212/53 211/210/53
o Wall_Col.106
v 24.999918 -40.000000 -105.000000
v 25.000147 -40.000000 -95.000000
v 24.999918 0.000000 -105.000000
v 25.000145 0.000000 -95.000000
vn -1.0000 -0.0000 -0.0000
vt 1.000000 0.000000
vt 0.000000 1.000000
vt 0.000000 0.000000
vt 1.000000 1.000000
s 0
f 214/213/54 215/214/54 213/215/54
f 214/213/54 216/216/54 215/214/54
o Wall_Col.107
v 35.000000 -40.000000 -105.000145
v 25.000000 -40.000000 -104.999908
v 35.000000 0.000000 -105.000153
v 25.000000 0.000000 -104.999908
vn -0.0000 -0.0000 -1.0000
vt 1.000000 0.000000
vt 0.000000 1.000000
vt 0.000000 0.000000
vt 1.000000 1.000000
s 0
f 218/217/55 219/218/55 217/219/55
f 218/217/55 220/220/55 219/218/55
o Wall_Col.108
v 25.000000 -40.000000 -94.999886
v 35.000000 -40.000000 -95.000122
v 25.000000 0.000000 -94.999886
v 35.000000 0.000000 -95.000114
vn -0.0000 -0.0000 1.0000
vt 1.000000 0.000000
vt 0.000000 1.000000
vt 0.000000 0.000000
vt 1.000000 1.000000
s 0
f 222/221/56 223/222/56 221/223/56
f 222/221/56 224/224/56 223/222/56
o Wall_Col.109
v 24.999918 -40.000000 -160.000000
v 25.000147 -40.000000 -95.000000
v 24.999918 0.000000 -160.000000
vn 1.0000 -0.0000 -0.0000
vt 0.000000 0.000000
vt 0.000000 1.000000
vt 1.000000 0.000000
s 0
f 225/225/57 227/226/57 226/227/57
o Wall_Col.110
v -25.000082 -40.000000 -160.000000
v -24.999853 -40.000000 -95.000000
v -25.000082 0.000000 -160.000000
vn -1.0000 -0.0000 -0.0000
vt 0.000000 0.000000
vt 1.000000 0.000000
vt 0.000000 1.000000
s 0
f 228/228/58 229/229/58 230/230/58
o Wall_Col.111
v -39.999958 -40.000000 -190.000000
v -40.000046 -40.000000 -200.000000
v -39.999958 40.000000 -190.000000
v -40.000046 40.000000 -200.000000
vn 1.0000 -0.0000 -0.0000
vt 1.000000 0.000000
vt 0.000000 1.000000
vt 0.000000 0.000000
vt 1.000000 1.000000
s 0
f 232/231/59 233/232/59 231/233/59
f 232/231/59 234/234/59 233/232/59
o Wall_Col.112
v 39.999886 -40.000000 -200.000000
v 39.999985 -40.000000 -190.000000
v 39.999886 40.000000 -200.000000
v 39.999981 40.000000 -190.000000
vn -1.0000 -0.0000 -0.0000
vt 1.000000 0.000000
vt 0.000000 1.000000
vt 0.000000 0.000000
vt 1.000000 1.000000
s 0
f 236/235/60 237/236/60 235/237/60
f 236/235/60 238/238/60 237/236/60
