# Blender 4.1.0
# www.blender.org
mtllib Map3.mtl
o Ground
v -10.000000 0.000000 10.000000
v 10.000000 0.000000 10.000000
v -10.000000 0.000000 -10.000000
v 10.000000 0.000000 -10.000000
vn -0.0000 1.0000 -0.0000
vt 1.000000 0.000000
vt 0.000000 1.000000
vt 0.000000 0.000000
vt 1.000000 1.000000
s 0
usemtl Ground
f 2/1/1 3/2/1 1/3/1
f 2/1/1 4/4/1 3/2/1
o OutWall
v -9.999999 0.000000 -9.999990
v -8.999999 0.000000 -8.999990
v -9.999999 2.000000 -9.999990
v -8.999999 2.000000 -8.999990
v 9.999999 0.000000 -9.999990
v 8.999999 0.000000 -8.999990
v 9.999999 2.000000 -9.999990
v 8.999999 2.000000 -8.999990
v -9.999994 0.000000 9.999990
v -8.999995 0.000000 8.999990
v -9.999994 2.000000 9.999990
v -8.999995 2.000000 8.999990
v 9.999999 0.000000 9.999990
v 8.999999 0.000000 8.999990
v 9.999999 2.000000 9.999990
v 8.999999 2.000000 8.999990
v -5.999999 2.000000 -9.999990
v -4.000000 2.000000 -9.999990
v 4.000000 2.000000 -9.999990
v 5.999999 2.000000 -9.999990
v -5.999999 0.000000 -9.999990
v -4.000000 0.000000 -9.999990
v 4.000000 0.000000 -9.999990
v 5.999999 0.000000 -9.999990
v 9.999999 2.000000 4.000001
v 9.999999 2.000000 5.999999
v 9.999999 2.000000 -5.999999
v 9.999999 2.000000 -4.000000
v 9.999999 0.000000 4.000001
v 9.999999 0.000000 5.999999
v 9.999999 0.000000 -5.999999
v 9.999999 0.000000 -4.000000
v -4.000000 2.000000 9.999990
v -5.999999 2.000000 9.999990
v 5.999999 2.000000 9.999990
v 4.000000 2.000000 9.999990
v -4.000000 0.000000 9.999990
v -5.999999 0.000000 9.999990
v 5.999999 0.000000 9.999990
v 4.000000 0.000000 9.999990
v -9.999995 2.000000 5.999999
v -9.999995 2.000000 4.000000
v -9.999998 2.000000 -4.000001
v -9.999998 2.000000 -5.999999
v -9.999995 0.000000 5.999999
v -9.999995 0.000000 4.000000
v -9.999998 0.000000 -4.000001
v -9.999998 0.000000 -5.999999
v -4.000000 0.000000 -8.999990
v -5.999999 0.000000 -8.999990
v 4.000000 0.000000 -8.999990
v 5.999999 0.000000 -8.999990
v -4.000000 0.000000 8.999990
v -5.999999 0.000000 8.999990
v 5.999999 0.000000 8.999990
v 4.000000 0.000000 8.999990
v -8.999995 2.000000 5.999999
v -8.999996 2.000000 4.000000
v -8.999998 2.000000 -4.000001
v -8.999998 2.000000 -5.999999
v -4.000000 2.000000 8.999990
v -5.999999 2.000000 8.999990
v 5.999999 2.000000 8.999990
v 4.000000 2.000000 8.999990
v -5.999999 2.000000 -8.999990
v -4.000000 2.000000 -8.999990
v 5.999999 2.000000 -8.999990
v 4.000000 2.000000 -8.999990
v 8.999999 2.000000 5.999999
v 8.999999 2.000000 4.000001
v 8.999999 2.000000 -5.999999
v 8.999999 2.000000 -4.000000
v 8.999999 0.000000 4.000001
v 8.999999 0.000000 5.999999
v 8.999999 0.000000 -5.999999
v 8.999999 0.000000 -4.000000
v -8.999996 0.000000 4.000000
v -8.999995 0.000000 5.999999
v -8.999998 0.000000 -5.999999
v -8.999998 0.000000 -4.000001
vn -0.0000 -0.0000 -1.0000
vn 1.0000 -0.0000 -0.0000
vn -0.0000 -0.0000 1.0000
vn -1.0000 -0.0000 -0.0000
vn -0.0000 -1.0000 -0.0000
vn -0.0000 1.0000 -0.0000
vt 0.375000 0.250000
vt 0.625000 0.200000
vt 0.625000 0.250000
vt 0.625000 0.000000
vt 0.375000 0.050000
vt 0.375000 0.000000
vt 0.625000 0.175000
vt 0.375000 0.075000
vt 0.625000 0.075000
vt 0.375000 0.500000
vt 0.625000 0.450000
vt 0.625000 0.500000
vt 0.375000 0.300000
vt 0.625000 0.425000
vt 0.375000 0.325000
vt 0.625000 0.325000
vt 0.375000 0.750000
vt 0.625000 0.700000
vt 0.625000 0.750000
vt 0.375000 0.550000
vt 0.625000 0.675000
vt 0.375000 0.575000
vt 0.625000 0.575000
vt 0.375000 1.000000
vt 0.625000 0.950000
vt 0.625000 1.000000
vt 0.375000 0.800000
vt 0.375000 0.825000
vt 0.625000 0.925000
vt 0.375000 0.925000
vt 0.125000 0.550000
vt 0.137500 0.512500
vt 0.137500 0.550000
vt 0.137500 0.737500
vt 0.125000 0.700000
vt 0.137500 0.700000
vt 0.125000 0.575000
vt 0.137500 0.675000
vt 0.125000 0.675000
vt 0.362500 0.737500
vt 0.375000 0.700000
vt 0.375000 0.675000
vt 0.362500 0.575000
vt 0.362500 0.512500
vt 0.362500 0.550000
vt 0.637500 0.737500
vt 0.675000 0.750000
vt 0.800000 0.737500
vt 0.700000 0.750000
vt 0.700000 0.737500
vt 0.862500 0.737500
vt 0.825000 0.750000
vt 0.825000 0.737500
vt 0.625000 0.550000
vt 0.637500 0.512500
vt 0.637500 0.550000
vt 0.637500 0.700000
vt 0.637500 0.575000
vt 0.637500 0.675000
vt 0.625000 0.208333
vt 0.375000 0.208333
vt 0.625000 0.041667
vt 0.625000 0.069444
vt 0.375000 0.180556
vt 0.625000 0.180556
vt 0.375000 0.291667
vt 0.625000 0.291667
vt 0.375000 0.458333
vt 0.375000 0.430556
vt 0.625000 0.319444
vt 0.375000 0.319444
vt 0.375000 0.541667
vt 0.625000 0.541667
vt 0.375000 0.708333
vt 0.375000 0.680556
vt 0.625000 0.569444
vt 0.375000 0.569444
vt 0.625000 0.958333
vt 0.375000 0.958333
vt 0.625000 0.791667
vt 0.625000 0.819444
vt 0.375000 0.930556
vt 0.625000 0.930556
vt 0.825000 0.500000
vt 0.862500 0.512500
vt 0.825000 0.512500
vt 0.675000 0.500000
vt 0.675000 0.512500
vt 0.800000 0.500000
vt 0.700000 0.512500
vt 0.700000 0.500000
vt 0.875000 0.700000
vt 0.875000 0.750000
vt 0.875000 0.675000
vt 0.862500 0.575000
vt 0.875000 0.575000
vt 0.875000 0.550000
vt 0.862500 0.550000
vt 0.175000 0.750000
vt 0.125000 0.750000
vt 0.325000 0.750000
vt 0.325000 0.737500
vt 0.300000 0.737500
vt 0.200000 0.750000
vt 0.200000 0.737500
vt 0.325000 0.500000
vt 0.200000 0.500000
vt 0.300000 0.512500
vt 0.200000 0.512500
vt 0.175000 0.500000
vt 0.175000 0.512500
vt 0.578125 0.000000
vt 0.421875 0.000000
vt 0.421875 0.500000
vt 0.578125 0.500000
vt 0.578125 0.000000
vt 0.578125 0.500000
vt 0.375000 0.200000
vt 0.625000 0.050000
vt 0.375000 0.175000
vt 0.375000 0.450000
vt 0.625000 0.300000
vt 0.375000 0.425000
vt 0.375000 0.950000
vt 0.625000 0.800000
vt 0.625000 0.825000
vt 0.125000 0.500000
vt 0.137500 0.575000
vt 0.362500 0.700000
vt 0.362500 0.675000
vt 0.675000 0.737500
vt 0.800000 0.750000
vt 0.375000 0.041667
vt 0.375000 0.069444
vt 0.625000 0.458333
vt 0.625000 0.430556
vt 0.625000 0.708333
vt 0.625000 0.680556
vt 0.375000 0.791667
vt 0.375000 0.819444
vt 0.875000 0.500000
vt 0.800000 0.512500
vt 0.862500 0.700000
vt 0.862500 0.675000
vt 0.175000 0.737500
vt 0.300000 0.750000
vt 0.325000 0.512500
vt 0.300000 0.500000
s 0
usemtl Wall
f 9/5/2 24/6/2 11/7/2
f 7/8/2 25/9/2 5/10/2
f 23/11/2 26/12/2 22/13/2
f 17/14/3 30/15/3 19/16/3
f 11/7/3 35/17/3 9/5/3
f 29/18/3 36/19/3 32/20/3
f 13/21/4 38/22/4 15/23/4
f 19/16/4 43/24/4 17/14/4
f 37/25/4 44/26/4 40/27/4
f 5/28/5 48/29/5 7/30/5
f 15/23/5 49/31/5 13/21/5
f 50/32/5 47/33/5 51/34/5
f 28/35/6 10/36/6 56/37/6
f 6/38/6 25/39/6 54/40/6
f 27/41/6 53/42/6 26/43/6
f 14/44/6 42/45/6 13/21/6
f 41/46/6 60/47/6 44/26/6
f 18/48/6 43/24/6 59/49/6
f 16/50/7 45/51/7 15/23/7
f 63/52/7 46/53/7 62/54/7
f 8/55/7 48/56/7 64/57/7
f 39/58/7 20/59/7 67/60/7
f 16/50/7 38/22/7 66/61/7
f 37/25/7 68/62/7 65/63/7
f 31/88/7 12/89/7 75/90/7
f 20/59/7 30/91/7 73/92/7
f 32/93/7 74/94/7 29/95/7
f 8/55/7 21/96/7 7/97/7
f 22/98/7 72/99/7 23/100/7
f 12/89/7 24/101/7 71/102/7
f 6/38/6 52/103/6 5/104/6
f 14/44/6 49/105/6 82/106/6
f 81/107/6 51/108/6 84/109/6
f 18/48/6 34/110/6 17/14/6
f 36/111/6 77/112/6 80/113/6
f 10/36/6 35/114/6 79/115/6
f 9/5/2 28/122/2 24/6/2
f 7/8/2 21/123/2 25/9/2
f 23/11/2 27/124/2 26/12/2
f 17/14/3 34/125/3 30/15/3
f 11/7/3 31/126/3 35/17/3
f 29/18/3 33/127/3 36/19/3
f 13/21/4 42/45/4 38/22/4
f 19/16/4 39/58/4 43/24/4
f 37/25/4 41/46/4 44/26/4
f 5/28/5 52/128/5 48/29/5
f 15/23/5 45/129/5 49/31/5
f 50/32/5 46/130/5 47/33/5
f 28/35/6 9/131/6 10/36/6
f 6/38/6 5/104/6 25/39/6
f 27/41/6 55/132/6 53/42/6
f 14/44/6 58/133/6 42/45/6
f 41/46/6 57/134/6 60/47/6
f 18/48/6 17/14/6 43/24/6
f 16/50/7 61/135/7 45/51/7
f 63/52/7 47/136/7 46/53/7
f 8/55/7 7/97/7 48/56/7
f 39/58/7 19/16/7 20/59/7
f 16/50/7 15/23/7 38/22/7
f 37/25/7 40/27/7 68/62/7
f 31/88/7 11/145/7 12/89/7
f 20/59/7 19/16/7 30/91/7
f 32/93/7 76/146/7 74/94/7
f 8/55/7 69/147/7 21/96/7
f 22/98/7 70/148/7 72/99/7
f 12/89/7 11/145/7 24/101/7
f 6/38/6 83/149/6 52/103/6
f 14/44/6 13/21/6 49/105/6
f 81/107/6 50/150/6 51/108/6
f 18/48/6 78/151/6 34/110/6
f 36/111/6 33/152/6 77/112/6
f 10/36/6 9/131/6 35/114/6
usemtl 
f 10/5/4 71/64/4 56/65/4
f 6/10/4 69/66/4 8/8/4
f 70/67/4 55/68/4 72/69/4
f 12/7/5 79/70/5 75/71/5
f 20/16/5 78/72/5 18/14/5
f 77/73/5 76/74/5 80/75/5
f 20/16/2 59/76/2 67/77/2
f 16/23/2 58/78/2 14/21/2
f 57/79/2 68/80/2 60/81/2
f 6/28/3 64/82/3 83/83/3
f 14/21/3 61/84/3 16/23/3
f 62/85/3 84/86/3 63/87/3
f 21/116/3 54/117/3 25/117/3
f 26/118/5 70/119/5 22/119/5
f 42/117/3 66/120/3 38/120/3
f 37/121/5 57/118/5 41/118/5
f 56/117/5 24/120/5 28/117/5
f 55/118/3 23/121/3 72/121/3
f 43/117/5 67/116/5 59/117/5
f 40/119/3 60/118/3 68/119/3
f 35/117/4 75/116/4 79/117/4
f 36/118/2 76/119/2 32/119/2
f 64/120/4 52/117/4 83/117/4
f 47/121/2 84/118/2 51/118/2
f 73/120/2 34/117/2 78/117/2
f 77/118/4 29/121/4 74/121/4
f 45/116/2 82/117/2 49/117/2
f 46/119/4 81/118/4 62/119/4
f 10/5/4 12/7/4 71/64/4
f 6/10/4 54/137/4 69/66/4
f 70/67/4 53/138/4 55/68/4
f 12/7/5 10/5/5 79/70/5
f 20/16/5 73/139/5 78/72/5
f 77/73/5 74/140/5 76/74/5
f 20/16/2 18/14/2 59/76/2
f 16/23/2 66/141/2 58/78/2
f 57/79/2 65/142/2 68/80/2
f 6/28/3 8/30/3 64/82/3
f 14/21/3 82/143/3 61/84/3
f 62/85/3 81/144/3 84/86/3
f 21/116/3 69/116/3 54/117/3
f 26/118/5 53/118/5 70/119/5
f 42/117/3 58/117/3 66/120/3
f 37/121/5 65/121/5 57/118/5
f 56/117/5 71/120/5 24/120/5
f 55/118/3 27/118/3 23/121/3
f 43/117/5 39/116/5 67/116/5
f 40/119/3 44/118/3 60/118/3
f 35/117/4 31/116/4 75/116/4
f 36/118/2 80/118/2 76/119/2
f 64/120/4 48/120/4 52/117/4
f 47/121/2 63/121/2 84/118/2
f 73/120/2 30/120/2 34/117/2
f 77/118/4 33/118/4 29/121/4
f 45/116/2 61/116/2 82/117/2
f 46/119/4 50/118/4 81/118/4
o Ground_3
v -4.000000 0.000000 4.000000
v -4.000000 1.000000 4.000000
v -4.000000 0.000000 -4.000000
v -4.000000 1.000000 -4.000000
v 4.000000 0.000000 4.000000
v 4.000000 1.000000 4.000000
v 4.000000 0.000000 -4.000000
v 4.000000 1.000000 -4.000000
vn -1.0000 -0.0000 -0.0000
vn -0.0000 -0.0000 -1.0000
vn 1.0000 -0.0000 -0.0000
vn -0.0000 -0.0000 1.0000
vn -0.0000 -1.0000 -0.0000
vn -0.0000 1.0000 -0.0000
vt 0.625000 0.000000
vt 0.375000 0.250000
vt 0.375000 0.000000
vt 0.625000 0.250000
vt 0.375000 0.500000
vt 0.625000 0.500000
vt 0.375000 0.750000
vt 0.625000 0.750000
vt 0.375000 1.000000
vt 0.125000 0.750000
vt 0.125000 0.500000
vt 0.875000 0.500000
vt 0.625000 1.000000
vt 0.875000 0.750000
s 0
usemtl Wall
f 86/153/8 87/154/8 85/155/8
f 88/156/9 91/157/9 87/154/9
f 92/158/10 89/159/10 91/157/10
f 90/160/11 85/161/11 89/159/11
f 91/157/12 85/162/12 87/163/12
f 88/164/13 90/160/13 92/158/13
f 86/153/8 88/156/8 87/154/8
f 88/156/9 92/158/9 91/157/9
f 92/158/10 90/160/10 89/159/10
f 90/160/11 86/165/11 85/161/11
f 91/157/12 89/159/12 85/162/12
f 88/164/13 86/166/13 90/160/13
o Ground_3.001
v -2.000000 1.000000 2.000000
v -2.000000 2.000000 2.000000
v -2.000000 1.000000 -2.000000
v -2.000000 2.000000 -2.000000
v 2.000000 1.000000 2.000000
v 2.000000 2.000000 2.000000
v 2.000000 1.000000 -2.000000
v 2.000000 2.000000 -2.000000
vn -1.0000 -0.0000 -0.0000
vn -0.0000 -0.0000 -1.0000
vn 1.0000 -0.0000 -0.0000
vn -0.0000 -0.0000 1.0000
vn -0.0000 -1.0000 -0.0000
vn -0.0000 1.0000 -0.0000
vt 0.625000 0.000000
vt 0.375000 0.250000
vt 0.375000 0.000000
vt 0.625000 0.250000
vt 0.375000 0.500000
vt 0.625000 0.500000
vt 0.375000 0.750000
vt 0.625000 0.750000
vt 0.375000 1.000000
vt 0.125000 0.750000
vt 0.125000 0.500000
vt 0.875000 0.500000
vt 0.625000 1.000000
vt 0.875000 0.750000
s 0
usemtl Wall
f 94/167/14 95/168/14 93/169/14
f 96/170/15 99/171/15 95/168/15
f 100/172/16 97/173/16 99/171/16
f 98/174/17 93/175/17 97/173/17
f 99/171/18 93/176/18 95/177/18
f 96/178/19 98/174/19 100/172/19
f 94/167/14 96/170/14 95/168/14
f 96/170/15 100/172/15 99/171/15
f 100/172/16 98/174/16 97/173/16
f 98/174/17 94/179/17 93/175/17
f 99/171/18 97/173/18 93/176/18
f 96/178/19 94/180/19 98/174/19
