# Blender 4.1.0
# www.blender.org
o Wall_Collision
v -67.671333 -1.333333 32.133335
v 52.628670 -1.333333 32.133335
v -67.671333 46.966671 32.133335
v 52.628670 46.966671 32.133335
v 52.628670 -1.333333 -87.866669
v 52.628670 46.966667 -87.866669
v -67.671333 -1.333333 -87.866669
v -67.671333 46.966667 -87.866669
v -7.371330 103.666672 -87.866653
v -7.371330 103.666664 32.133335
vn 1.0000 -0.0000 -0.0000
vn -1.0000 -0.0000 -0.0000
vn -0.6850 0.7285 -0.0000
vn 0.6868 0.7268 -0.0000
vt 1.000000 0.000000
vt 1.000000 1.000000
vt 0.000000 1.000000
vt 0.000000 0.000000
vt 0.500000 1.000000
s 0
f 2/1/1 6/2/1 4/2/1
f 3/3/2 7/4/2 1/4/2
f 8/3/3 10/5/3 9/5/3
f 9/5/4 4/2/4 6/2/4
f 2/1/1 5/1/1 6/2/1
f 3/3/2 8/3/2 7/4/2
f 8/3/3 3/3/3 10/5/3
f 9/5/4 10/5/4 4/2/4
o Wall_Collision.001
v -67.671333 -1.333333 32.133335
v 52.628670 -1.333333 32.133335
v -67.671333 46.966671 32.133335
v 52.628670 46.966671 32.133335
v -7.371332 -1.333333 32.133335
v -7.371332 103.666664 32.133335
vn -0.0000 -0.0000 1.0000
vt 0.500000 0.000000
vt 1.000000 1.000000
vt 0.500000 1.000000
vt 0.000000 1.000000
vt 0.000000 0.000000
vt 1.000000 0.000000
s 0
f 15/6/5 14/7/5 16/8/5
f 15/6/5 13/9/5 11/10/5
f 15/6/5 12/11/5 14/7/5
f 15/6/5 16/8/5 13/9/5
