# Blender 4.1.0
# www.blender.org
o Desk
v 29.600004 -0.559199 50.399994
v 29.600004 27.160801 50.399994
v 29.600004 -0.559199 8.099997
v 29.600004 27.160801 8.099997
v 45.600002 -0.559199 50.399994
v 45.600002 27.160801 50.399994
v 45.600002 -0.559199 8.099997
v 45.600002 27.160801 8.099997
vn -1.0000 -0.0000 -0.0000
vn -0.0000 -0.0000 -1.0000
vn 1.0000 -0.0000 -0.0000
vn -0.0000 -0.0000 1.0000
vn -0.0000 -1.0000 -0.0000
vn -0.0000 1.0000 -0.0000
vt 0.625000 0.000000
vt 0.375000 0.250000
vt 0.375000 0.000000
vt 0.625000 0.250000
vt 0.375000 0.500000
vt 0.625000 0.500000
vt 0.375000 0.750000
vt 0.625000 0.750000
vt 0.375000 1.000000
vt 0.125000 0.750000
vt 0.125000 0.500000
vt 0.875000 0.500000
vt 0.625000 1.000000
vt 0.875000 0.750000
s 0
f 2/1/1 3/2/1 1/3/1
f 4/4/2 7/5/2 3/2/2
f 8/6/3 5/7/3 7/5/3
f 6/8/4 1/9/4 5/7/4
f 7/5/5 1/10/5 3/11/5
f 4/12/6 6/8/6 8/6/6
f 2/1/1 4/4/1 3/2/1
f 4/4/2 8/6/2 7/5/2
f 8/6/3 6/8/3 5/7/3
f 6/8/4 2/13/4 1/9/4
f 7/5/5 5/7/5 1/10/5
f 4/12/6 2/14/6 6/8/6
o Ruck
v -82.599998 -0.659199 49.799995
v -82.599998 31.540800 49.799995
v -82.599998 -0.659199 39.799995
v -82.599998 31.540800 39.799995
v -33.500000 -0.659199 49.799995
v -33.500000 31.540800 49.799995
v -33.500000 -0.659199 39.799995
v -33.500000 31.540800 39.799995
vn -0.0000 -0.0000 -1.0000
vn 1.0000 -0.0000 -0.0000
vn -0.0000 -0.0000 1.0000
vn -0.0000 -1.0000 -0.0000
vn -0.0000 1.0000 -0.0000
vn -1.0000 -0.0000 -0.0000
vt 0.625000 0.250000
vt 0.375000 0.500000
vt 0.375000 0.250000
vt 0.625000 0.500000
vt 0.375000 0.750000
vt 0.625000 0.750000
vt 0.375000 1.000000
vt 0.125000 0.750000
vt 0.125000 0.500000
vt 0.875000 0.500000
vt 0.625000 1.000000
vt 0.875000 0.750000
vt 0.375000 0.000000
vt 0.625000 0.000000
s 0
f 12/15/7 15/16/7 11/17/7
f 16/18/8 13/19/8 15/16/8
f 14/20/9 9/21/9 13/19/9
f 15/16/10 9/22/10 11/23/10
f 12/24/11 14/20/11 16/18/11
f 12/15/7 16/18/7 15/16/7
f 16/18/8 14/20/8 13/19/8
f 14/20/9 10/25/9 9/21/9
f 15/16/10 13/19/10 9/22/10
f 12/24/11 10/26/11 14/20/11
f 9/27/12 12/15/12 11/17/12
f 9/27/12 10/28/12 12/15/12
o Bed
v -86.899994 -0.359199 -24.300003
v -86.899994 28.040798 -24.300003
v -86.899994 -0.359199 -49.500004
v -86.899994 28.040798 -49.500004
v -42.299992 -0.359199 -24.300003
v -42.299992 28.040798 -24.300003
v -42.299992 -0.359199 -49.500004
v -42.299992 28.040798 -49.500004
vn -1.0000 -0.0000 -0.0000
vn -0.0000 -0.0000 -1.0000
vn 1.0000 -0.0000 -0.0000
vn -0.0000 -0.0000 1.0000
vn -0.0000 -1.0000 -0.0000
vn -0.0000 1.0000 -0.0000
vt 0.625000 0.000000
vt 0.375000 0.250000
vt 0.375000 0.000000
vt 0.625000 0.250000
vt 0.375000 0.500000
vt 0.625000 0.500000
vt 0.375000 0.750000
vt 0.625000 0.750000
vt 0.375000 1.000000
vt 0.125000 0.750000
vt 0.125000 0.500000
vt 0.875000 0.500000
vt 0.625000 1.000000
vt 0.875000 0.750000
s 0
f 18/29/13 19/30/13 17/31/13
f 20/32/14 23/33/14 19/30/14
f 24/34/15 21/35/15 23/33/15
f 22/36/16 17/37/16 21/35/16
f 23/33/17 17/38/17 19/39/17
f 20/40/18 22/36/18 24/34/18
f 18/29/13 20/32/13 19/30/13
f 20/32/14 24/34/14 23/33/14
f 24/34/15 22/36/15 21/35/15
f 22/36/16 18/41/16 17/37/16
f 23/33/17 21/35/17 17/38/17
f 20/40/18 18/42/18 22/36/18
o Chair
v 15.000000 0.040800 50.999996
v 15.000000 27.040800 50.999996
v 15.000000 0.040800 25.499996
v 15.000000 27.040800 25.499996
v 30.000000 0.040800 50.999996
v 30.000000 27.040800 50.999996
v 30.000000 0.040800 25.499996
v 30.000000 27.040800 25.499996
vn -1.0000 -0.0000 -0.0000
vn -0.0000 -0.0000 -1.0000
vn 1.0000 -0.0000 -0.0000
vn -0.0000 -0.0000 1.0000
vn -0.0000 -1.0000 -0.0000
vn -0.0000 1.0000 -0.0000
vt 0.625000 0.000000
vt 0.375000 0.250000
vt 0.375000 0.000000
vt 0.625000 0.250000
vt 0.375000 0.500000
vt 0.625000 0.500000
vt 0.375000 0.750000
vt 0.625000 0.750000
vt 0.375000 1.000000
vt 0.125000 0.750000
vt 0.125000 0.500000
vt 0.875000 0.500000
vt 0.625000 1.000000
vt 0.875000 0.750000
s 0
f 26/43/19 27/44/19 25/45/19
f 28/46/20 31/47/20 27/44/20
f 32/48/21 29/49/21 31/47/21
f 30/50/22 25/51/22 29/49/22
f 31/47/23 25/52/23 27/53/23
f 28/54/24 30/50/24 32/48/24
f 26/43/19 28/46/19 27/44/19
f 28/46/20 32/48/20 31/47/20
f 32/48/21 30/50/21 29/49/21
f 30/50/22 26/55/22 25/51/22
f 31/47/23 29/49/23 25/52/23
f 28/54/24 26/56/24 30/50/24
