# Blender 4.1.0
# www.blender.org
o Wall
v -88.000000 0.040800 -47.000004
v 46.000000 0.040800 -47.000004
v -88.000000 45.040802 -47.000004
v 46.000000 45.040802 -47.000004
vn -0.0000 -0.0000 1.0000
vt 1.000000 0.000000
vt 0.000000 1.000000
vt 0.000000 0.000000
vt 1.000000 1.000000
s 0
f 2/1/1 3/2/1 1/3/1
f 2/1/1 4/4/1 3/2/1
o Wall.001
v -88.000000 0.040800 44.999996
v 46.000000 0.040800 44.999996
v -88.000000 45.040802 44.999996
v 46.000000 45.040802 44.999996
vn -0.0000 -0.0000 -1.0000
vt 0.000000 1.000000
vt 1.000000 0.000000
vt 0.000000 0.000000
vt 1.000000 1.000000
s 0
f 7/5/2 6/6/2 5/7/2
f 7/5/2 8/8/2 6/6/2
o Wall.002
v 42.000008 0.040800 49.999996
v 42.000000 0.040800 -50.000004
v 42.000008 45.040802 49.999996
v 42.000000 45.040802 -50.000004
vn -1.0000 -0.0000 -0.0000
vt 0.000000 1.000000
vt 1.000000 0.000000
vt 0.000000 0.000000
vt 1.000000 1.000000
s 0
f 11/9/3 10/10/3 9/11/3
f 11/9/3 12/12/3 10/10/3
o Wall.003
v -82.000000 45.040802 49.999996
v -82.000000 0.040801 49.999996
v -82.000000 45.040802 -50.000004
v -82.000000 0.040801 -50.000004
vn 1.0000 -0.0000 -0.0000
vt 1.000000 0.000000
vt 0.000000 1.000000
vt 0.000000 0.000000
vt 1.000000 1.000000
s 0
f 14/13/4 15/14/4 13/15/4
f 14/13/4 16/16/4 15/14/4
