# Blender 4.1.0
# www.blender.org
o Wall_Col
v -40.000000 24.000000 40.000000
v -40.000000 24.000000 -40.000000
v 40.000000 24.000000 40.000000
v 40.000000 24.000000 -40.000000
v -10.000002 24.000000 -40.000000
v 10.000000 24.000000 -40.000000
v 10.000000 24.000000 -45.000000
v 10.000000 -5.000000 -45.000000
v 45.000000 24.000000 -45.000000
v 45.000000 -4.999999 -45.000000
v 45.000000 24.000000 45.000000
v 45.000000 -4.999999 45.000000
v -45.000000 24.000000 45.000000
v -45.000000 -5.000000 45.000000
v -45.000000 24.000000 -45.000000
v -45.000000 -5.000000 -45.000000
v -10.000002 24.000000 -45.000000
v -9.999998 -5.000000 -45.000000
v -40.000000 0.000000 40.000000
v -40.000000 0.000000 -40.000000
v 40.000000 -0.000002 40.000000
v 40.000000 -0.000002 -40.000000
v -10.000000 0.000000 -40.000000
v 10.000000 -0.000001 -40.000000
v 10.000000 -0.000001 -45.000000
v 45.000000 -0.000001 -45.000000
v 45.000000 -0.000001 45.000000
v -45.000000 0.000000 45.000000
v -45.000000 0.000000 -45.000000
v -10.000000 0.000000 -45.000000
vn -0.0000 -0.0000 -1.0000
vn -1.0000 -0.0000 -0.0000
vn -0.0000 -0.0000 1.0000
vn 1.0000 -0.0000 -0.0000
vt 0.844828 0.000000
vt 0.000000 0.000000
vt 0.844828 0.000000
vt 0.844828 0.000000
vt 0.844828 1.000000
vt 1.000000 0.000000
vt 0.000000 1.000000
vt 0.844828 1.000000
vt 0.844828 1.000000
vt 1.000000 1.000000
s 0
f 19/1/1 3/2/1 21/1/1
f 3/2/2 22/1/2 21/1/2
f 4/2/3 24/3/3 22/1/3
f 6/2/2 25/3/2 24/3/2
f 25/3/1 9/2/1 26/1/1
f 9/2/4 27/1/4 26/1/4
f 11/2/3 28/4/3 27/1/3
f 13/2/2 29/4/2 28/4/2
f 30/5/1 16/6/1 29/4/1
f 17/7/1 29/4/1 15/2/1
f 23/8/4 17/7/4 5/7/4
f 28/4/2 16/6/2 14/6/2
f 27/1/3 14/6/3 12/6/3
f 26/1/4 12/6/4 10/6/4
f 25/3/1 10/6/1 8/6/1
f 8/6/1 30/5/1 25/3/1
f 20/9/3 5/7/3 2/7/3
f 19/1/4 2/7/4 1/2/4
f 19/1/1 1/2/1 3/2/1
f 3/2/2 4/2/2 22/1/2
f 4/2/3 6/2/3 24/3/3
f 6/2/2 7/2/2 25/3/2
f 25/3/1 7/2/1 9/2/1
f 9/2/4 11/2/4 27/1/4
f 11/2/3 13/2/3 28/4/3
f 13/2/2 15/2/2 29/4/2
f 30/5/1 18/10/1 16/6/1
f 17/7/1 30/5/1 29/4/1
f 23/8/4 30/5/4 17/7/4
f 28/4/2 29/4/2 16/6/2
f 27/1/3 28/4/3 14/6/3
f 26/1/4 27/1/4 12/6/4
f 25/3/1 26/1/1 10/6/1
f 8/6/1 18/10/1 30/5/1
f 20/9/3 23/8/3 5/7/3
f 19/1/4 20/9/4 2/7/4
o Wall_Col.001
v -24.960003 -54.960003 -155.039993
v -24.960003 -5.039997 -155.039993
v -24.960003 -54.960003 -204.960007
v -24.960003 -5.039997 -204.960007
v 24.960003 -54.960003 -155.039993
v 24.960003 -5.039997 -155.039993
v 24.960003 -54.960003 -204.960007
v 24.960003 -5.039997 -204.960007
vn -1.0000 -0.0000 -0.0000
vn -0.0000 -0.0000 -1.0000
vn 1.0000 -0.0000 -0.0000
vn -0.0000 -0.0000 1.0000
vt 0.625000 0.000000
vt 0.375000 0.250000
vt 0.375000 0.000000
vt 0.625000 0.250000
vt 0.375000 0.500000
vt 0.625000 0.500000
vt 0.375000 0.750000
vt 0.625000 0.750000
vt 0.375000 1.000000
vt 0.625000 1.000000
s 0
f 32/11/5 33/12/5 31/13/5
f 34/14/6 37/15/6 33/12/6
f 38/16/7 35/17/7 37/15/7
f 36/18/8 31/19/8 35/17/8
f 32/11/5 34/14/5 33/12/5
f 34/14/6 38/16/6 37/15/6
f 38/16/7 36/18/7 35/17/7
f 36/18/8 32/20/8 31/19/8
o Wall_Col.002
v -114.960007 -14.960003 -405.040009
v -114.960007 34.960003 -405.040009
v -114.960007 -14.960003 -454.959991
v -114.960007 34.960003 -454.959991
v -65.039993 -14.960003 -405.040009
v -65.039993 34.960003 -405.040009
v -65.039993 -14.960003 -454.959991
v -65.039993 34.960003 -454.959991
vn -1.0000 -0.0000 -0.0000
vn -0.0000 -0.0000 -1.0000
vn 1.0000 -0.0000 -0.0000
vn -0.0000 -0.0000 1.0000
vt 0.625000 0.000000
vt 0.375000 0.250000
vt 0.375000 0.000000
vt 0.625000 0.250000
vt 0.375000 0.500000
vt 0.625000 0.500000
vt 0.375000 0.750000
vt 0.625000 0.750000
vt 0.375000 1.000000
vt 0.625000 1.000000
s 0
f 40/21/9 41/22/9 39/23/9
f 42/24/10 45/25/10 41/22/10
f 46/26/11 43/27/11 45/25/11
f 44/28/12 39/29/12 43/27/12
f 40/21/9 42/24/9 41/22/9
f 42/24/10 46/26/10 45/25/10
f 46/26/11 44/28/11 43/27/11
f 44/28/12 40/30/12 39/29/12
o Wall_Col.003
v 53.474995 129.091034 -515.000488
v 205.000000 129.091034 -515.000488
v 205.000000 219.999969 -634.047791
v 48.474995 156.363708 -550.714661
v 205.000000 156.363708 -550.714661
v 18.474998 129.091034 -515.000488
v 205.000000 175.454590 -575.714600
v 29.474998 175.454590 -575.714600
v 205.000000 184.363663 -587.381226
v 17.474991 184.363663 -586.381226
v -19.525009 184.363663 -587.381226
v 205.000000 211.090897 -622.381165
v 7.474991 211.090897 -622.381165
v -45.024994 219.999969 -634.047791
v -45.024994 211.090881 -622.381165
v 53.474995 160.909149 -556.214661
v 205.000000 160.909149 -556.214600
v 53.474995 219.999969 -768.047729
v 205.000000 219.999969 -768.447754
v 23.474998 219.999969 -748.047729
v -18.525009 219.999969 -748.047729
v -45.024994 219.999969 -748.047729
v -18.525009 219.999969 -762.047729
v -45.024994 219.999969 -762.047729
v -18.525009 219.999969 -768.047729
v -45.024994 219.999969 -768.047729
v 71.627495 129.091034 -515.000488
v -13.525009 219.999969 -768.047729
v 23.474998 219.999969 -768.047729
v 71.627495 219.999969 -768.087769
v 205.000000 219.999969 -791.447754
v 71.627495 219.999969 -791.087769
v 174.656860 129.091034 -515.000488
v 174.656860 219.999969 -791.357788
v 205.000000 219.999969 -804.447754
v 174.656860 219.999969 -804.357788
v 48.474995 121.477303 -550.714661
v 18.474998 121.477303 -515.000488
v 29.474998 121.477303 -575.714600
v 17.474991 121.477295 -586.381226
v -19.525009 121.477303 -587.381226
v 7.474991 121.477295 -622.381165
v -45.024994 121.477295 -634.047791
v -45.024994 121.477295 -622.381165
v 53.474995 121.477303 -556.214661
v -45.024994 121.477303 -748.047729
v -45.024994 121.477303 -762.047729
v -45.024994 121.477303 -768.047729
v 205.000000 120.467010 -515.000488
v 205.000000 120.467010 -634.047791
v 205.000000 120.467010 -550.714722
v 205.000000 120.467010 -575.714600
v 205.000000 120.467010 -587.381226
v 205.000000 120.467010 -622.381165
v 205.000000 120.467003 -556.214661
v 53.474995 120.467010 -768.047729
v 205.000000 120.467010 -768.447754
v 23.474998 120.467010 -748.047729
v -18.525009 120.467010 -748.047729
v -18.525009 120.467010 -762.047729
v -18.525009 120.467010 -768.047729
v -45.024994 120.467010 -768.047729
v -13.525009 120.467010 -768.047729
v 23.474998 120.467010 -768.047729
v 71.627495 120.467010 -768.087769
v 205.000000 120.467010 -791.447754
v 71.627495 120.467026 -791.087769
v 174.656860 120.467010 -791.357788
v 205.000000 120.467018 -804.447754
v 174.656860 120.467026 -804.357788
vn -0.0000 -0.0000 1.0000
vn -0.7399 -0.0000 -0.6727
vn -0.0270 -0.0000 0.9996
vn -1.0000 -0.0000 -0.0000
vn -0.6644 -0.0000 0.7474
vn -0.6306 -0.0000 0.7761
vn -0.7657 -0.0000 -0.6432
vn -0.7918 -0.0000 -0.6108
vn -0.0026 -0.0000 -1.0000
vn 1.0000 -0.0000 -0.0000
vn -0.0000 -0.0000 -1.0000
vn -0.0022 -0.0000 -1.0000
vn -0.0030 -0.0000 -1.0000
vn 0.7682 -0.0000 0.6402
vt 0.000000 0.902000
vt 0.000000 0.300000
vt 0.000000 0.405000
vt 0.000000 0.608000
vt 0.000000 1.000000
vt 0.000000 0.510000
vt 0.000000 0.000000
vt 0.100000 1.000000
vt 0.775000 1.000000
vt 1.000000 0.300000
vt 1.000000 0.405000
vt 1.000000 0.000000
vt 1.000000 1.000000
vt 1.000000 0.510000
vt 1.000000 0.608000
vt 1.000000 0.902000
vt 0.100000 0.000000
vt 0.775000 0.000000
s 0
f 61/31/13 88/31/13 59/31/13
f 50/32/14 91/33/14 83/32/14
f 57/34/15 86/34/15 56/34/15
f 68/35/16 89/35/16 60/35/16
f 54/36/17 86/34/17 85/36/17
f 62/33/18 85/36/18 91/33/18
f 52/37/19 83/32/19 84/37/19
f 72/35/16 93/35/16 70/35/16
f 70/35/16 92/35/16 68/35/16
f 61/31/16 89/35/16 90/31/16
f 57/34/20 88/31/20 87/34/20
f 78/38/21 114/39/21 113/38/21
f 51/40/22 101/41/22 63/41/22
f 71/35/23 108/35/23 72/35/23
f 48/42/22 97/40/22 51/40/22
f 76/38/16 113/38/16 111/38/16
f 65/43/22 112/43/22 77/43/22
f 63/41/22 98/44/22 53/44/22
f 49/43/22 103/43/22 65/43/22
f 64/35/24 111/38/24 102/35/24
f 53/44/22 99/45/22 55/45/22
f 55/45/22 100/46/22 58/46/22
f 74/37/23 107/35/23 71/35/23
f 58/46/22 96/43/22 49/43/22
f 66/35/23 105/35/23 67/35/23
f 81/43/25 116/39/25 82/39/25
f 69/35/26 109/37/26 74/37/26
f 80/39/16 116/39/16 114/39/16
f 75/37/16 104/35/16 66/35/16
f 67/35/22 106/35/22 69/35/22
f 81/43/22 112/43/22 115/43/22
f 64/35/23 110/37/23 75/37/23
f 73/47/13 47/37/13 84/37/13
f 61/31/13 90/31/13 88/31/13
f 50/32/14 62/33/14 91/33/14
f 57/34/15 87/34/15 86/34/15
f 68/35/16 92/35/16 89/35/16
f 54/36/17 56/34/17 86/34/17
f 62/33/18 54/36/18 85/36/18
f 52/37/19 50/32/19 83/32/19
f 72/35/16 94/35/16 93/35/16
f 70/35/16 93/35/16 92/35/16
f 61/31/16 60/35/16 89/35/16
f 57/34/20 59/31/20 88/31/20
f 78/38/21 80/39/21 114/39/21
f 51/40/22 97/40/22 101/41/22
f 71/35/23 107/35/23 108/35/23
f 48/42/22 95/42/22 97/40/22
f 76/38/16 78/38/16 113/38/16
f 65/43/22 103/43/22 112/43/22
f 63/41/22 101/41/22 98/44/22
f 49/43/22 96/43/22 103/43/22
f 64/35/24 76/38/24 111/38/24
f 53/44/22 98/44/22 99/45/22
f 55/45/22 99/45/22 100/46/22
f 74/37/23 109/37/23 107/35/23
f 58/46/22 100/46/22 96/43/22
f 66/35/23 104/35/23 105/35/23
f 81/43/25 115/43/25 116/39/25
f 69/35/26 106/35/26 109/37/26
f 80/39/16 82/39/16 116/39/16
f 75/37/16 110/37/16 104/35/16
f 67/35/22 105/35/22 106/35/22
f 81/43/22 77/43/22 112/43/22
f 64/35/23 102/35/23 110/37/23
f 47/37/13 52/37/13 84/37/13
f 84/37/13 95/42/13 73/47/13
f 95/42/13 48/42/13 79/48/13
f 95/42/13 79/48/13 73/47/13
o Wall_Col.004
v -30.000000 220.000000 -650.000000
v -30.000000 340.000000 -650.000000
v -30.000000 220.000000 -670.000000
v -30.000000 340.000000 -670.000000
v -10.000000 220.000000 -650.000000
v -10.000000 340.000000 -650.000000
v -10.000000 220.000000 -670.000000
v -10.000000 340.000000 -670.000000
vn -1.0000 -0.0000 -0.0000
vn -0.0000 -0.0000 -1.0000
vn 1.0000 -0.0000 -0.0000
vn -0.0000 -0.0000 1.0000
vt 0.625000 0.000000
vt 0.375000 0.250000
vt 0.375000 0.000000
vt 0.625000 0.250000
vt 0.375000 0.500000
vt 0.625000 0.500000
vt 0.375000 0.750000
vt 0.625000 0.750000
vt 0.375000 1.000000
vt 0.625000 1.000000
s 0
f 118/49/27 119/50/27 117/51/27
f 120/52/28 123/53/28 119/50/28
f 124/54/29 121/55/29 123/53/29
f 122/56/30 117/57/30 121/55/30
f 118/49/27 120/52/27 119/50/27
f 120/52/28 124/54/28 123/53/28
f 124/54/29 122/56/29 121/55/29
f 122/56/30 118/58/30 117/57/30
o Wall_Col.005
v 170.000000 220.000000 -650.000000
v 170.000000 340.000000 -650.000000
v 170.000000 220.000000 -670.000000
v 170.000000 340.000000 -670.000000
v 190.000000 220.000000 -650.000000
v 190.000000 340.000000 -650.000000
v 190.000000 220.000000 -670.000000
v 190.000000 340.000000 -670.000000
vn -1.0000 -0.0000 -0.0000
vn -0.0000 -0.0000 -1.0000
vn 1.0000 -0.0000 -0.0000
vn -0.0000 -0.0000 1.0000
vt 0.625000 0.000000
vt 0.375000 0.250000
vt 0.375000 0.000000
vt 0.625000 0.250000
vt 0.375000 0.500000
vt 0.625000 0.500000
vt 0.375000 0.750000
vt 0.625000 0.750000
vt 0.375000 1.000000
vt 0.625000 1.000000
s 0
f 126/59/31 127/60/31 125/61/31
f 128/62/32 131/63/32 127/60/32
f 132/64/33 129/65/33 131/63/33
f 130/66/34 125/67/34 129/65/34
f 126/59/31 128/62/31 127/60/31
f 128/62/32 132/64/32 131/63/32
f 132/64/33 130/66/33 129/65/33
f 130/66/34 126/68/34 125/67/34
