# Blender 4.1.0
# www.blender.org
o Wall_Col.045
v 38.000000 0.000000 -70.000000
v 38.000000 1.000000 0.000000
v 38.000000 40.000000 -70.000000
v 38.000000 41.000000 0.000000
vn -1.0000 -0.0000 -0.0000
vt 1.000000 0.000000
vt 0.000000 1.000000
vt 0.000000 0.000000
vt 1.000000 1.000000
s 0
f 2/1/1 3/2/1 1/3/1
f 2/1/1 4/4/1 3/2/1
o Wall_Col.046
v -38.000000 1.000000 0.000000
v -38.000000 0.000000 -70.000000
v -38.000000 41.000000 0.000000
v -38.000000 40.000000 -70.000000
vn 1.0000 -0.0000 -0.0000
vt 0.000000 0.000000
vt 1.000000 1.000000
vt 0.000000 1.000000
vt 1.000000 0.000000
s 0
f 5/5/2 8/6/2 7/7/2
f 5/5/2 6/8/2 8/6/2
o Wall_Col.049
v -40.000000 0.000000 -68.000000
v 40.000000 0.000000 -68.000000
v -40.000000 40.000000 -68.000000
v 40.000000 40.000000 -68.000000
vn -0.0000 -0.0000 1.0000
vt 1.000000 0.000000
vt 0.000000 1.000000
vt 0.000000 0.000000
vt 1.000000 1.000000
s 0
f 10/9/3 11/10/3 9/11/3
f 10/9/3 12/12/3 11/10/3
