# Blender 4.1.0
# www.blender.org
mtllib TestModel.mtl
o Chara
v 2.828427 4.000000 -2.828427
v 2.613126 2.469266 -2.613126
v 2.000000 1.171573 -2.000000
v 1.082392 0.304482 -1.082392
v 4.000000 4.000000 0.000000
v 3.695518 2.469266 0.000000
v 2.828427 1.171573 0.000000
v 1.530734 0.304482 0.000000
v 2.828427 4.000000 2.828427
v 2.613126 2.469266 2.613126
v 2.000000 1.171573 2.000000
v 1.082392 0.304482 1.082392
v 0.000000 4.000000 4.000000
v 0.000000 2.469266 3.695518
v 0.000000 1.171573 2.828427
v 0.000000 0.304482 1.530734
v -2.828427 4.000000 2.828427
v -2.613126 2.469266 2.613126
v -2.000000 1.171573 2.000000
v -1.082392 0.304482 1.082392
v -4.000000 4.000000 0.000000
v -3.695518 2.469266 0.000000
v -2.828427 1.171573 0.000000
v -1.530734 0.304482 0.000000
v -2.828427 4.000000 -2.828427
v -2.613126 2.469266 -2.613126
v -2.000000 1.171573 -2.000000
v -1.082392 0.304482 -1.082392
v 0.000000 0.000000 0.000000
v 0.000000 4.000000 -4.000000
v 0.000000 2.469266 -3.695518
v 0.000000 1.171573 -2.828427
v 0.000000 0.304482 -1.530734
v 1.082392 19.695518 -1.082392
v 2.000000 18.828426 -2.000000
v 2.613126 17.530735 -2.613126
v 2.828427 16.000000 -2.828427
v 1.530734 19.695518 0.000000
v 2.828427 18.828426 0.000000
v 3.695518 17.530735 0.000000
v 4.000000 16.000000 0.000000
v 1.082392 19.695518 1.082392
v 2.000000 18.828426 2.000000
v 2.613126 17.530735 2.613126
v 2.828427 16.000000 2.828427
v 0.000000 19.695518 1.530734
v 0.000000 18.828426 2.828427
v 0.000000 17.530735 3.695518
v 0.000000 16.000000 4.000000
v -1.082392 19.695518 1.082392
v -2.000000 18.828426 2.000000
v -2.613126 17.530735 2.613126
v -2.828427 16.000000 2.828427
v -1.530734 19.695518 0.000000
v -2.828427 18.828426 0.000000
v -3.695518 17.530735 0.000000
v -4.000000 16.000000 0.000000
v -1.082392 19.695518 -1.082392
v -2.000000 18.828426 -2.000000
v -2.613126 17.530735 -2.613126
v -2.828427 16.000000 -2.828427
v 0.000000 20.000000 0.000000
v 0.000000 19.695518 -1.530734
v 0.000000 18.828426 -2.828427
v 0.000000 17.530735 -3.695518
v 0.000000 16.000000 -4.000000
vn 0.0805 -0.9776 -0.1945
vn 0.3256 -0.5253 -0.7862
vn 0.2243 -0.8103 -0.5414
vn 0.3764 -0.1807 -0.9087
vn 0.5414 -0.8103 -0.2243
vn 0.9087 -0.1807 -0.3764
vn 0.1945 -0.9776 -0.0805
vn 0.7862 -0.5253 -0.3256
vn 0.5414 -0.8103 0.2243
vn 0.9087 -0.1807 0.3764
vn 0.1945 -0.9776 0.0805
vn 0.7862 -0.5253 0.3256
vn 0.0805 -0.9776 0.1945
vn 0.3256 -0.5253 0.7862
vn 0.2243 -0.8103 0.5414
vn 0.3764 -0.1807 0.9087
vn -0.3256 -0.5253 0.7862
vn -0.2243 -0.8103 0.5414
vn -0.3764 -0.1807 0.9087
vn -0.0805 -0.9776 0.1945
vn -0.5414 -0.8103 0.2243
vn -0.9087 -0.1807 0.3764
vn -0.1945 -0.9776 0.0805
vn -0.7862 -0.5253 0.3256
vn -0.9087 -0.1807 -0.3764
vn -0.3827 -0.0000 -0.9239
vn -0.3827 -0.0000 0.9239
vn -0.1945 -0.9776 -0.0805
vn -0.7862 -0.5253 -0.3256
vn 0.3827 -0.0000 0.9239
vn -0.9239 -0.0000 -0.3827
vn -0.5414 -0.8103 -0.2243
vn -0.0805 -0.9776 -0.1945
vn -0.3256 -0.5253 -0.7862
vn 0.9239 -0.0000 0.3827
vn 0.9239 -0.0000 -0.3827
vn -0.2243 -0.8103 -0.5414
vn -0.3764 -0.1807 -0.9087
vn 0.3827 -0.0000 -0.9239
vn -0.9239 -0.0000 0.3827
vn 0.3764 0.1807 -0.9087
vn 0.2243 0.8103 -0.5414
vn 0.3256 0.5253 -0.7862
vn 0.0805 0.9776 -0.1945
vn 0.5414 0.8103 -0.2243
vn 0.7862 0.5253 -0.3256
vn 0.1945 0.9776 -0.0805
vn 0.9087 0.1807 -0.3764
vn 0.7862 0.5253 0.3256
vn 0.1945 0.9776 0.0805
vn 0.9087 0.1807 0.3764
vn 0.5414 0.8103 0.2243
vn 0.0805 0.9776 0.1945
vn 0.3764 0.1807 0.9087
vn 0.2243 0.8103 0.5414
vn 0.3256 0.5253 0.7862
vn -0.3764 0.1807 0.9087
vn -0.2243 0.8103 0.5414
vn -0.3256 0.5253 0.7862
vn -0.0805 0.9776 0.1945
vn -0.7862 0.5253 0.3256
vn -0.1945 0.9776 0.0805
vn -0.9087 0.1807 0.3764
vn -0.5414 0.8103 0.2243
vn -0.7862 0.5253 -0.3256
vn -0.1945 0.9776 -0.0805
vn -0.9087 0.1807 -0.3764
vn -0.5414 0.8103 -0.2243
vn -0.3764 0.1807 -0.9087
vn -0.2243 0.8103 -0.5414
vn -0.3256 0.5253 -0.7862
vn -0.0805 0.9776 -0.1945
vt 0.687500 0.000000
vt 0.750000 0.125000
vt 0.625000 0.125000
vt 0.750000 0.375000
vt 0.625000 0.250000
vt 0.750000 0.250000
vt 0.625000 0.500000
vt 0.625000 0.375000
vt 0.500000 0.125000
vt 0.500000 0.375000
vt 0.562500 0.000000
vt 0.500000 0.250000
vt 0.375000 0.125000
vt 0.375000 0.500000
vt 0.375000 0.375000
vt 0.437500 0.000000
vt 0.375000 0.250000
vt 0.312500 0.000000
vt 0.250000 0.125000
vt 0.250000 0.250000
vt 0.250000 0.500000
vt 0.250000 0.375000
vt 0.125000 0.250000
vt 0.125000 0.125000
vt 0.125000 0.375000
vt 0.187500 0.000000
vt 0.000000 0.125000
vt 0.000000 0.500000
vt 0.000000 0.375000
vt 0.062500 0.000000
vt 0.000000 0.250000
vt 1.000000 0.500000
vt 0.875000 0.375000
vt 1.000000 0.375000
vt 0.875000 0.500000
vt 0.750000 0.500000
vt 0.125000 0.500000
vt 0.937500 0.000000
vt 1.000000 0.125000
vt 0.875000 0.125000
vt 0.875000 0.250000
vt 1.000000 0.250000
vt 0.812500 0.000000
vt 0.500000 0.500000
vt 0.750000 0.625000
vt 0.750000 0.750000
vt 0.625000 0.875000
vt 0.625000 0.750000
vt 0.625000 0.625000
vt 0.750000 0.875000
vt 0.687500 1.000000
vt 0.500000 0.750000
vt 0.500000 0.625000
vt 0.562500 1.000000
vt 0.500000 0.875000
vt 0.375000 0.625000
vt 0.437500 1.000000
vt 0.375000 0.875000
vt 0.375000 0.750000
vt 0.312500 1.000000
vt 0.250000 0.875000
vt 0.250000 0.750000
vt 0.250000 0.625000
vt 0.125000 0.750000
vt 0.125000 0.625000
vt 0.187500 1.000000
vt 0.125000 0.875000
vt 0.000000 0.750000
vt 0.000000 0.625000
vt 0.062500 1.000000
vt 0.000000 0.875000
vt 1.000000 0.750000
vt 0.875000 0.625000
vt 1.000000 0.625000
vt 1.000000 0.875000
vt 0.937500 1.000000
vt 0.875000 0.875000
vt 0.875000 0.750000
vt 0.812500 1.000000
s 0
usemtl Gray
f 29/1/1 33/2/1 4/3/1
f 31/4/2 3/5/2 32/6/2
f 32/6/3 4/3/3 33/2/3
f 31/4/4 1/7/4 2/8/4
f 3/5/5 8/9/5 4/3/5
f 1/7/6 6/10/6 2/8/6
f 29/11/7 4/3/7 8/9/7
f 2/8/8 7/12/8 3/5/8
f 7/12/9 12/13/9 8/9/9
f 6/10/10 9/14/10 10/15/10
f 29/16/11 8/9/11 12/13/11
f 6/10/12 11/17/12 7/12/12
f 29/18/13 12/13/13 16/19/13
f 10/15/14 15/20/14 11/17/14
f 11/17/15 16/19/15 12/13/15
f 10/15/16 13/21/16 14/22/16
f 14/22/17 19/23/17 15/20/17
f 15/20/18 20/24/18 16/19/18
f 13/21/19 18/25/19 14/22/19
f 29/26/20 16/19/20 20/24/20
f 19/23/21 24/27/21 20/24/21
f 18/25/22 21/28/22 22/29/22
f 29/30/23 20/24/23 24/27/23
f 18/25/24 23/31/24 19/23/24
f 21/32/25 26/33/25 22/34/25
f 25/35/26 66/36/26 30/36/26
f 13/21/27 53/37/27 17/37/27
f 29/38/28 24/39/28 28/40/28
f 22/34/29 27/41/29 23/42/29
f 9/14/30 49/21/30 13/21/30
f 21/32/31 61/35/31 25/35/31
f 23/42/32 28/40/32 24/39/32
f 29/43/33 28/40/33 33/2/33
f 26/33/34 32/6/34 27/41/34
f 5/44/35 45/14/35 9/14/35
f 1/7/36 41/44/36 5/44/36
f 27/41/37 33/2/37 28/40/37
f 26/33/38 30/36/38 31/4/38
f 30/36/39 37/7/39 1/7/39
f 17/37/40 57/28/40 21/28/40
f 65/45/41 37/7/41 66/36/41
f 64/46/42 34/47/42 35/48/42
f 64/46/43 36/49/43 65/45/43
f 63/50/44 62/51/44 34/47/44
f 34/47/45 39/52/45 35/48/45
f 35/48/46 40/53/46 36/49/46
f 34/47/47 62/54/47 38/55/47
f 36/49/48 41/44/48 37/7/48
f 39/52/49 44/56/49 40/53/49
f 38/55/50 62/57/50 42/58/50
f 40/53/51 45/14/51 41/44/51
f 38/55/52 43/59/52 39/52/52
f 42/58/53 62/60/53 46/61/53
f 44/56/54 49/21/54 45/14/54
f 42/58/55 47/62/55 43/59/55
f 44/56/56 47/62/56 48/63/56
f 48/63/57 53/37/57 49/21/57
f 46/61/58 51/64/58 47/62/58
f 47/62/59 52/65/59 48/63/59
f 46/61/60 62/66/60 50/67/60
f 52/65/61 55/68/61 56/69/61
f 50/67/62 62/70/62 54/71/62
f 52/65/63 57/28/63 53/37/63
f 50/67/64 55/68/64 51/64/64
f 55/72/65 60/73/65 56/74/65
f 54/75/66 62/76/66 58/77/66
f 56/74/67 61/35/67 57/32/67
f 54/75/68 59/78/68 55/72/68
f 60/73/69 66/36/69 61/35/69
f 58/77/70 64/46/70 59/78/70
f 60/73/71 64/46/71 65/45/71
f 58/77/72 62/79/72 63/50/72
f 31/4/2 2/8/2 3/5/2
f 32/6/3 3/5/3 4/3/3
f 31/4/4 30/36/4 1/7/4
f 3/5/5 7/12/5 8/9/5
f 1/7/6 5/44/6 6/10/6
f 2/8/8 6/10/8 7/12/8
f 7/12/9 11/17/9 12/13/9
f 6/10/10 5/44/10 9/14/10
f 6/10/12 10/15/12 11/17/12
f 10/15/14 14/22/14 15/20/14
f 11/17/15 15/20/15 16/19/15
f 10/15/16 9/14/16 13/21/16
f 14/22/17 18/25/17 19/23/17
f 15/20/18 19/23/18 20/24/18
f 13/21/19 17/37/19 18/25/19
f 19/23/21 23/31/21 24/27/21
f 18/25/22 17/37/22 21/28/22
f 18/25/24 22/29/24 23/31/24
f 21/32/25 25/35/25 26/33/25
f 25/35/26 61/35/26 66/36/26
f 13/21/27 49/21/27 53/37/27
f 22/34/29 26/33/29 27/41/29
f 9/14/30 45/14/30 49/21/30
f 21/32/31 57/32/31 61/35/31
f 23/42/32 27/41/32 28/40/32
f 26/33/34 31/4/34 32/6/34
f 5/44/35 41/44/35 45/14/35
f 1/7/36 37/7/36 41/44/36
f 27/41/37 32/6/37 33/2/37
f 26/33/38 25/35/38 30/36/38
f 30/36/39 66/36/39 37/7/39
f 17/37/40 53/37/40 57/28/40
f 65/45/41 36/49/41 37/7/41
f 64/46/42 63/50/42 34/47/42
f 64/46/43 35/48/43 36/49/43
f 34/47/45 38/55/45 39/52/45
f 35/48/46 39/52/46 40/53/46
f 36/49/48 40/53/48 41/44/48
f 39/52/49 43/59/49 44/56/49
f 40/53/51 44/56/51 45/14/51
f 38/55/52 42/58/52 43/59/52
f 44/56/54 48/63/54 49/21/54
f 42/58/55 46/61/55 47/62/55
f 44/56/56 43/59/56 47/62/56
f 48/63/57 52/65/57 53/37/57
f 46/61/58 50/67/58 51/64/58
f 47/62/59 51/64/59 52/65/59
f 52/65/61 51/64/61 55/68/61
f 52/65/63 56/69/63 57/28/63
f 50/67/64 54/71/64 55/68/64
f 55/72/65 59/78/65 60/73/65
f 56/74/67 60/73/67 61/35/67
f 54/75/68 58/77/68 59/78/68
f 60/73/69 65/45/69 66/36/69
f 58/77/70 63/50/70 64/46/70
f 60/73/71 59/78/71 64/46/71
