# Blender 4.1.0
# www.blender.org
o Object_Collision
v 138.799988 8.172791 422.541504
v 138.799988 221.667206 422.541504
v 138.799988 8.172791 -422.559998
v 138.799988 221.667206 -422.559998
v 461.200012 8.172791 422.541504
v 461.200012 221.667206 422.541504
v 461.200012 8.172791 -422.559998
v 461.200012 221.667206 -422.559998
vn -1.0000 -0.0000 -0.0000
vn -0.0000 -0.0000 -1.0000
vn 1.0000 -0.0000 -0.0000
vn -0.0000 -0.0000 1.0000
vn -0.0000 1.0000 -0.0000
vt 0.625000 0.000000
vt 0.375000 0.250000
vt 0.375000 0.000000
vt 0.625000 0.250000
vt 0.375000 0.500000
vt 0.625000 0.500000
vt 0.375000 0.750000
vt 0.625000 0.750000
vt 0.375000 1.000000
vt 0.625000 1.000000
s 0
f 2/1/1 3/2/1 1/3/1
f 4/4/2 7/5/2 3/2/2
f 8/6/3 5/7/3 7/5/3
f 6/8/4 1/9/4 5/7/4
f 6/8/5 4/4/5 2/10/5
f 2/1/1 4/4/1 3/2/1
f 4/4/2 8/6/2 7/5/2
f 8/6/3 6/8/3 5/7/3
f 6/8/4 2/10/4 1/9/4
f 6/8/5 8/6/5 4/4/5
o Object_Collision.001
v -461.200012 8.172791 422.541504
v -461.200012 221.667206 422.541504
v -461.200012 8.172791 -422.559998
v -461.200012 221.667206 -422.559998
v -138.799988 8.172791 422.541504
v -138.799988 221.667206 422.541504
v -138.799988 8.172791 -422.559998
v -138.799988 221.667206 -422.559998
vn -1.0000 -0.0000 -0.0000
vn -0.0000 -0.0000 -1.0000
vn 1.0000 -0.0000 -0.0000
vn -0.0000 -0.0000 1.0000
vn -0.0000 1.0000 -0.0000
vt 0.625000 0.000000
vt 0.375000 0.250000
vt 0.375000 0.000000
vt 0.625000 0.250000
vt 0.375000 0.500000
vt 0.625000 0.500000
vt 0.375000 0.750000
vt 0.625000 0.750000
vt 0.375000 1.000000
vt 0.625000 1.000000
s 0
f 10/11/6 11/12/6 9/13/6
f 12/14/7 15/15/7 11/12/7
f 16/16/8 13/17/8 15/15/8
f 14/18/9 9/19/9 13/17/9
f 14/18/10 12/14/10 10/20/10
f 10/11/6 12/14/6 11/12/6
f 12/14/7 16/16/7 15/15/7
f 16/16/8 14/18/8 13/17/8
f 14/18/9 10/20/9 9/19/9
f 14/18/10 16/16/10 12/14/10
o Wall_Collision
v 87.999985 0.000000 472.000000
v 87.999985 4.000000 472.000000
v 87.999985 0.000000 -472.000000
v 87.999985 4.000000 -472.000000
v 512.000000 0.000000 472.000000
v 512.000000 4.000000 472.000000
v 512.000000 0.000000 -472.000000
v 512.000000 4.000000 -472.000000
vn -1.0000 -0.0000 -0.0000
vn -0.0000 -0.0000 -1.0000
vn 1.0000 -0.0000 -0.0000
vn -0.0000 -0.0000 1.0000
vt 0.625000 0.000000
vt 0.375000 0.250000
vt 0.375000 0.000000
vt 0.625000 0.250000
vt 0.375000 0.500000
vt 0.625000 0.500000
vt 0.375000 0.750000
vt 0.625000 0.750000
vt 0.375000 1.000000
vt 0.625000 1.000000
s 0
f 18/21/11 19/22/11 17/23/11
f 20/24/12 23/25/12 19/22/12
f 24/26/13 21/27/13 23/25/13
f 22/28/14 17/29/14 21/27/14
f 18/21/11 20/24/11 19/22/11
f 20/24/12 24/26/12 23/25/12
f 24/26/13 22/28/13 21/27/13
f 22/28/14 18/30/14 17/29/14
o Wall_Collision.001
v -512.000000 0.000000 472.000000
v -512.000000 4.000000 472.000000
v -512.000000 0.000000 -472.000000
v -512.000000 4.000000 -472.000000
v -87.999985 0.000000 472.000000
v -87.999985 4.000000 472.000000
v -87.999985 0.000000 -472.000000
v -87.999985 4.000000 -472.000000
vn -1.0000 -0.0000 -0.0000
vn -0.0000 -0.0000 -1.0000
vn 1.0000 -0.0000 -0.0000
vn -0.0000 -0.0000 1.0000
vt 0.625000 0.000000
vt 0.375000 0.250000
vt 0.375000 0.000000
vt 0.625000 0.250000
vt 0.375000 0.500000
vt 0.625000 0.500000
vt 0.375000 0.750000
vt 0.625000 0.750000
vt 0.375000 1.000000
vt 0.625000 1.000000
s 0
f 26/31/15 27/32/15 25/33/15
f 28/34/16 31/35/16 27/32/16
f 32/36/17 29/37/17 31/35/17
f 30/38/18 25/39/18 29/37/18
f 26/31/15 28/34/15 27/32/15
f 28/34/16 32/36/16 31/35/16
f 32/36/17 30/38/17 29/37/17
f 30/38/18 26/40/18 25/39/18
o Wall_Collision.002
v 119.999985 3.920000 439.979980
v 119.999985 8.080000 439.979980
v 119.999985 3.920000 -440.000000
v 119.999985 8.080000 -440.000000
v 480.000000 3.920000 439.979980
v 480.000000 8.080000 439.979980
v 480.000000 3.920000 -440.000000
v 480.000000 8.080000 -440.000000
vn -1.0000 -0.0000 -0.0000
vn -0.0000 -0.0000 -1.0000
vn 1.0000 -0.0000 -0.0000
vn -0.0000 -0.0000 1.0000
vt 0.625000 0.000000
vt 0.375000 0.250000
vt 0.375000 0.000000
vt 0.625000 0.250000
vt 0.375000 0.500000
vt 0.625000 0.500000
vt 0.375000 0.750000
vt 0.625000 0.750000
vt 0.375000 1.000000
vt 0.625000 1.000000
s 0
f 34/41/19 35/42/19 33/43/19
f 36/44/20 39/45/20 35/42/20
f 40/46/21 37/47/21 39/45/21
f 38/48/22 33/49/22 37/47/22
f 34/41/19 36/44/19 35/42/19
f 36/44/20 40/46/20 39/45/20
f 40/46/21 38/48/21 37/47/21
f 38/48/22 34/50/22 33/49/22
o Wall_Collision.003
v -480.000000 3.920000 439.979980
v -480.000000 8.080000 439.979980
v -480.000000 3.920000 -440.000000
v -480.000000 8.080000 -440.000000
v -119.999985 3.920000 439.979980
v -119.999985 8.080000 439.979980
v -119.999985 3.920000 -440.000000
v -119.999985 8.080000 -440.000000
vn -1.0000 -0.0000 -0.0000
vn -0.0000 -0.0000 -1.0000
vn 1.0000 -0.0000 -0.0000
vn -0.0000 -0.0000 1.0000
vt 0.625000 0.000000
vt 0.375000 0.250000
vt 0.375000 0.000000
vt 0.625000 0.250000
vt 0.375000 0.500000
vt 0.625000 0.500000
vt 0.375000 0.750000
vt 0.625000 0.750000
vt 0.375000 1.000000
vt 0.625000 1.000000
s 0
f 42/51/23 43/52/23 41/53/23
f 44/54/24 47/55/24 43/52/24
f 48/56/25 45/57/25 47/55/25
f 46/58/26 41/59/26 45/57/26
f 42/51/23 44/54/23 43/52/23
f 44/54/24 48/56/24 47/55/24
f 48/56/25 46/58/25 45/57/25
f 46/58/26 42/60/26 41/59/26
o Wall_Collision.004
v -688.000061 -0.600000 648.000061
v -688.000061 4.600000 648.000061
v -688.000061 -0.600000 -648.000061
v -688.000061 4.600000 -648.000061
v 688.020081 -0.600000 648.000061
v 688.020081 4.600000 648.000061
v 688.020081 -0.600000 -648.000061
v 688.020081 4.600000 -648.000061
vn 1.0000 -0.0000 -0.0000
vn -0.0000 -0.0000 1.0000
vn -1.0000 -0.0000 -0.0000
vn -0.0000 -0.0000 -1.0000
vt 0.375000 0.250000
vt 0.625000 0.000000
vt 0.375000 0.000000
vt 0.375000 0.500000
vt 0.625000 0.250000
vt 0.375000 0.750000
vt 0.625000 0.500000
vt 0.375000 1.000000
vt 0.625000 0.750000
vt 0.625000 1.000000
s 0
f 51/61/27 50/62/27 49/63/27
f 55/64/28 52/65/28 51/61/28
f 53/66/29 56/67/29 55/64/29
f 49/68/30 54/69/30 53/66/30
f 51/61/27 52/65/27 50/62/27
f 55/64/28 56/67/28 52/65/28
f 53/66/29 54/69/29 56/67/29
f 49/68/30 50/70/30 54/69/30
o Wall_Collision.005
v -719.800049 2.800000 680.000061
v -719.800049 8.000000 680.000061
v -719.800049 2.800000 -680.000061
v -719.800049 8.000000 -680.000061
v 720.020081 2.800000 680.000061
v 720.020081 8.000000 680.000061
v 720.020081 2.800000 -680.000061
v 720.020081 8.000000 -680.000061
vn 1.0000 -0.0000 -0.0000
vn -0.0000 -0.0000 1.0000
vn -1.0000 -0.0000 -0.0000
vn -0.0000 -0.0000 -1.0000
vt 0.375000 0.250000
vt 0.625000 0.000000
vt 0.375000 0.000000
vt 0.375000 0.500000
vt 0.625000 0.250000
vt 0.375000 0.750000
vt 0.625000 0.500000
vt 0.375000 1.000000
vt 0.625000 0.750000
vt 0.625000 1.000000
s 0
f 59/71/31 58/72/31 57/73/31
f 63/74/32 60/75/32 59/71/32
f 61/76/33 64/77/33 63/74/33
f 57/78/34 62/79/34 61/76/34
f 59/71/31 60/75/31 58/72/31
f 63/74/32 64/77/32 60/75/32
f 61/76/33 62/79/33 64/77/33
f 57/78/34 58/80/34 62/79/34
