# Blender 4.1.0
# www.blender.org
o Object_Collision
v 138.799988 8.172791 422.541504
v 138.799988 221.667206 422.541504
v 138.799988 8.172791 -422.559998
v 138.799988 221.667206 -422.559998
vn -1.0000 -0.0000 -0.0000
vt 0.625000 0.000000
vt 0.375000 0.250000
vt 0.375000 0.000000
vt 0.625000 0.250000
s 0
f 2/1/1 3/2/1 1/3/1
f 2/1/1 4/4/1 3/2/1
o Object_Collision.001
v -138.799988 8.172791 422.541504
v -138.799988 221.667206 422.541504
v -138.799988 8.172791 -422.559998
v -138.799988 221.667206 -422.559998
vn 1.0000 -0.0000 -0.0000
vt 0.625000 0.500000
vt 0.375000 0.750000
vt 0.375000 0.500000
vt 0.625000 0.750000
s 0
f 8/5/2 5/6/2 7/7/2
f 8/5/2 6/8/2 5/6/2
