# Blender 4.1.0
# www.blender.org
o Object_Collision
v -139.100723 75.883705 200.027512
v -139.100723 6.883690 200.027512
v -139.100723 75.883705 -199.972580
v -139.100723 6.883690 -199.972580
vn 1.0000 -0.0000 -0.0000
vt 1.000000 0.000000
vt 0.000000 1.000000
vt 0.000000 0.000000
vt 1.000000 1.000000
s 0
f 2/1/1 3/2/1 1/3/1
f 2/1/1 4/4/1 3/2/1
o Object_Collision.001
v 139.299286 75.883705 200.027512
v 139.299286 6.883690 200.027512
v 139.299286 75.883705 -199.972580
v 139.299286 6.883690 -199.972580
vn -1.0000 -0.0000 -0.0000
vt 0.000000 1.000000
vt 1.000000 0.000000
vt 0.000000 0.000000
vt 1.000000 1.000000
s 0
f 7/5/2 6/6/2 5/7/2
f 7/5/2 8/8/2 6/6/2
