# Blender 4.1.0
# www.blender.org
o Light
v -30.600000 42.400002 10.600000
v -30.600000 45.000000 10.600000
v -30.600000 42.400002 -10.600000
v -30.600000 45.000000 -10.600000
v -9.300000 42.400002 10.600000
v -9.300000 45.000000 10.600000
v -9.300000 42.400002 -10.600000
v -9.300000 45.000000 -10.600000
vn -1.0000 -0.0000 -0.0000
vn -0.0000 -0.0000 -1.0000
vn 1.0000 -0.0000 -0.0000
vn -0.0000 -0.0000 1.0000
vn -0.0000 -1.0000 -0.0000
vn -0.0000 1.0000 -0.0000
vt 0.625000 0.000000
vt 0.375000 0.250000
vt 0.375000 0.000000
vt 0.625000 0.250000
vt 0.375000 0.500000
vt 0.625000 0.500000
vt 0.375000 0.750000
vt 0.625000 0.750000
vt 0.375000 1.000000
vt 0.125000 0.750000
vt 0.125000 0.500000
vt 0.875000 0.500000
vt 0.625000 1.000000
vt 0.875000 0.750000
s 0
f 2/1/1 3/2/1 1/3/1
f 4/4/2 7/5/2 3/2/2
f 8/6/3 5/7/3 7/5/3
f 6/8/4 1/9/4 5/7/4
f 7/5/5 1/10/5 3/11/5
f 4/12/6 6/8/6 8/6/6
f 2/1/1 4/4/1 3/2/1
f 4/4/2 8/6/2 7/5/2
f 8/6/3 6/8/3 5/7/3
f 6/8/4 2/13/4 1/9/4
f 7/5/5 5/7/5 1/10/5
f 4/12/6 2/14/6 6/8/6
o Chair
v 16.933893 -1.000000 36.119747
v 16.933893 8.000000 36.119747
v 14.126255 -1.000000 27.220894
v 14.126255 8.000000 27.220894
v 25.831345 -1.000000 33.311707
v 25.831345 8.000000 33.311707
v 23.022106 -1.000000 24.415255
v 23.022106 8.000000 24.415255
v 15.905425 -1.000000 26.659765
v 15.905425 8.000000 26.659765
v 18.713383 -1.000000 35.558136
v 18.713383 8.000000 35.558136
v 16.933893 16.400002 36.119747
v 14.126255 16.400002 27.220894
v 18.713383 16.400002 35.558136
v 15.905425 16.400002 26.659765
vn -0.9537 -0.0000 0.3009
vn -0.3008 -0.0000 -0.9537
vn 0.9536 -0.0000 -0.3011
vn 0.3010 -0.0000 0.9536
vn -0.0000 -1.0000 -0.0000
vn 0.9536 -0.0000 -0.3009
vn -0.0000 1.0000 -0.0000
vt 0.625000 0.000000
vt 0.375000 0.250000
vt 0.375000 0.000000
vt 0.625000 0.300000
vt 0.375000 0.500000
vt 0.375000 0.300000
vt 0.625000 0.500000
vt 0.375000 0.750000
vt 0.625000 0.950000
vt 0.375000 1.000000
vt 0.375000 0.950000
vt 0.175000 0.750000
vt 0.175000 0.500000
vt 0.825000 0.500000
vt 0.825000 0.750000
vt 0.625000 0.750000
vt 0.125000 0.750000
vt 0.125000 0.500000
vt 0.625000 0.250000
vt 0.875000 0.750000
vt 0.625000 1.000000
vt 0.875000 0.500000
s 0
f 10/15/7 11/16/7 9/17/7
f 18/18/8 15/19/8 17/20/8
f 16/21/9 13/22/9 15/19/9
f 20/23/10 9/24/10 19/25/10
f 15/19/11 19/26/11 17/27/11
f 18/28/12 23/29/12 20/29/12
f 16/21/13 20/29/13 14/30/13
f 17/27/11 9/31/11 11/32/11
f 14/30/10 19/25/10 13/22/10
f 12/33/8 17/20/8 11/16/8
f 24/28/13 21/34/13 23/29/13
f 10/15/7 22/33/7 12/33/7
f 12/33/8 24/18/8 18/18/8
f 20/23/10 21/35/10 10/35/10
f 10/15/7 12/33/7 11/16/7
f 18/18/8 16/21/8 15/19/8
f 16/21/9 14/30/9 13/22/9
f 20/23/10 10/35/10 9/24/10
f 15/19/11 13/22/11 19/26/11
f 18/28/12 24/28/12 23/29/12
f 16/21/13 18/28/13 20/29/13
f 17/27/11 19/26/11 9/31/11
f 14/30/10 20/23/10 19/25/10
f 12/33/8 18/18/8 17/20/8
f 24/28/13 22/36/13 21/34/13
f 10/15/7 21/15/7 22/33/7
f 12/33/8 22/33/8 24/18/8
f 20/23/10 23/23/10 21/35/10
o Desk
v 29.600000 -1.000000 50.400002
v 29.600000 15.200000 50.400002
v 29.600000 -1.000000 8.100000
v 29.600000 15.200000 8.100000
v 45.599998 -1.000000 50.400002
v 45.599998 15.200000 50.400002
v 45.599998 -1.000000 8.100000
v 45.599998 15.200000 8.100000
vn -1.0000 -0.0000 -0.0000
vn -0.0000 -0.0000 -1.0000
vn 1.0000 -0.0000 -0.0000
vn -0.0000 -0.0000 1.0000
vn -0.0000 -1.0000 -0.0000
vn -0.0000 1.0000 -0.0000
vt 0.625000 0.000000
vt 0.375000 0.250000
vt 0.375000 0.000000
vt 0.625000 0.250000
vt 0.375000 0.500000
vt 0.625000 0.500000
vt 0.375000 0.750000
vt 0.625000 0.750000
vt 0.375000 1.000000
vt 0.125000 0.750000
vt 0.125000 0.500000
vt 0.875000 0.500000
vt 0.625000 1.000000
vt 0.875000 0.750000
s 0
f 26/37/14 27/38/14 25/39/14
f 28/40/15 31/41/15 27/38/15
f 32/42/16 29/43/16 31/41/16
f 30/44/17 25/45/17 29/43/17
f 31/41/18 25/46/18 27/47/18
f 28/48/19 30/44/19 32/42/19
f 26/37/14 28/40/14 27/38/14
f 28/40/15 32/42/15 31/41/15
f 32/42/16 30/44/16 29/43/16
f 30/44/17 26/49/17 25/45/17
f 31/41/18 29/43/18 25/46/18
f 28/48/19 26/50/19 30/44/19
o Ruck
v -73.599998 -1.000000 49.799999
v -73.599998 30.000000 49.799999
v -73.599998 -1.000000 39.799999
v -73.599998 30.000000 39.799999
v -33.500000 -1.000000 49.799999
v -33.500000 30.000000 49.799999
v -33.500000 -1.000000 39.799999
v -33.500000 30.000000 39.799999
vn -1.0000 -0.0000 -0.0000
vn -0.0000 -0.0000 -1.0000
vn 1.0000 -0.0000 -0.0000
vn -0.0000 -0.0000 1.0000
vn -0.0000 -1.0000 -0.0000
vn -0.0000 1.0000 -0.0000
vt 0.625000 0.000000
vt 0.375000 0.250000
vt 0.375000 0.000000
vt 0.625000 0.250000
vt 0.375000 0.500000
vt 0.625000 0.500000
vt 0.375000 0.750000
vt 0.625000 0.750000
vt 0.375000 1.000000
vt 0.125000 0.750000
vt 0.125000 0.500000
vt 0.875000 0.500000
vt 0.625000 1.000000
vt 0.875000 0.750000
s 0
f 34/51/20 35/52/20 33/53/20
f 36/54/21 39/55/21 35/52/21
f 40/56/22 37/57/22 39/55/22
f 38/58/23 33/59/23 37/57/23
f 39/55/24 33/60/24 35/61/24
f 36/62/25 38/58/25 40/56/25
f 34/51/20 36/54/20 35/52/20
f 36/54/21 40/56/21 39/55/21
f 40/56/22 38/58/22 37/57/22
f 38/58/23 34/63/23 33/59/23
f 39/55/24 37/57/24 33/60/24
f 36/62/25 34/64/25 38/58/25
o Bed
v -86.800003 -1.000000 -24.400002
v -86.800003 11.500000 -24.400002
v -86.800003 -1.000000 -49.400002
v -86.800003 11.500000 -49.400002
v -42.300003 -1.000000 -24.400002
v -42.300003 11.500000 -24.400002
v -42.300003 -1.000000 -49.400002
v -42.300003 11.500000 -49.400002
v -84.130005 -1.000000 -49.400002
v -84.130005 11.500000 -49.400002
v -84.130005 -1.000000 -24.400002
v -84.130005 11.500000 -24.400002
v -82.875107 11.500000 -49.400002
v -82.875107 -1.000000 -24.400002
v -82.875107 -1.000000 -49.400002
v -82.875107 11.500000 -24.400002
v -76.991722 11.500000 -49.400002
v -76.991722 -1.000000 -24.400002
v -76.991722 -1.000000 -49.400002
v -76.991722 11.500000 -24.400002
v -86.800003 -1.000000 -43.900002
v -86.800003 11.500000 -43.900002
v -42.300003 -1.000000 -43.900002
v -42.300003 11.500000 -43.900002
v -84.130005 11.500000 -43.900002
v -84.130005 -1.000000 -43.900002
v -82.875107 11.500000 -43.900002
v -82.875107 -1.000000 -43.900002
v -76.991722 11.500000 -43.900002
v -76.991722 -1.000000 -43.900002
v -86.800003 -1.000000 -29.957502
v -42.300003 11.500000 -29.957502
v -84.130005 11.500000 -29.957502
v -84.130005 -1.000000 -29.957502
v -82.875107 11.500000 -29.957502
v -82.875107 -1.000000 -29.957502
v -76.991722 11.500000 -29.957502
v -76.991722 -1.000000 -29.957502
v -86.800003 11.500000 -29.957500
v -42.300003 -1.000000 -29.957500
v -44.901878 11.500000 -49.400002
v -44.901878 -1.000000 -24.400002
v -44.901878 -1.000000 -49.400002
v -44.901878 11.500000 -24.400002
v -44.901878 11.500000 -43.900002
v -44.901878 -1.000000 -43.900002
v -44.901878 11.500000 -29.957502
v -44.901878 -1.000000 -29.957500
v -82.875107 12.700000 -43.900002
v -76.991722 12.700000 -43.900002
v -82.875107 12.700000 -29.957502
v -76.991722 12.700000 -29.957502
v -86.800003 18.900000 -43.900002
v -86.800003 18.900000 -49.400002
v -84.130005 18.900000 -24.400002
v -86.800003 18.900000 -24.400002
v -84.130005 18.900000 -49.400002
v -84.130005 18.900000 -29.957502
v -86.800003 18.900000 -29.957500
v -84.130005 18.900000 -43.900002
v -44.901878 18.900000 -49.400002
v -42.300003 18.900000 -49.400002
v -42.300003 18.900000 -29.957502
v -42.300003 18.900000 -24.400002
v -42.300003 18.900000 -43.900002
v -44.901878 18.900000 -43.900002
v -44.901878 18.900000 -29.957502
v -44.901878 18.900000 -24.400002
vn -1.0000 -0.0000 -0.0000
vn -0.0000 -0.0000 -1.0000
vn 1.0000 -0.0000 -0.0000
vn -0.0000 -0.0000 1.0000
vn -0.0000 -1.0000 -0.0000
vn -0.0000 1.0000 -0.0000
vt 0.625000 0.195000
vt 0.375000 0.250000
vt 0.375000 0.195000
vt 0.625000 0.485383
vt 0.375000 0.500000
vt 0.375000 0.485383
vt 0.625000 0.694425
vt 0.375000 0.750000
vt 0.375000 0.694425
vt 0.625000 0.985000
vt 0.375000 1.000000
vt 0.375000 0.985000
vt 0.360383 0.750000
vt 0.360383 0.694425
vt 0.860000 0.694425
vt 0.860000 0.750000
vt 0.852950 0.750000
vt 0.852950 0.694425
vt 0.140000 0.694425
vt 0.125000 0.750000
vt 0.125000 0.694425
vt 0.625000 0.977950
vt 0.375000 0.977950
vt 0.625000 0.250000
vt 0.375000 0.265000
vt 0.625000 0.944897
vt 0.375000 0.944897
vt 0.819897 0.750000
vt 0.819897 0.694425
vt 0.147050 0.694425
vt 0.140000 0.750000
vt 0.625000 0.265000
vt 0.375000 0.272050
vt 0.639617 0.750000
vt 0.639617 0.694425
vt 0.625000 0.764617
vt 0.375000 0.764617
vt 0.180103 0.694425
vt 0.147050 0.750000
vt 0.625000 0.272050
vt 0.375000 0.305103
vt 0.180103 0.500000
vt 0.147050 0.555000
vt 0.147050 0.500000
vt 0.819897 0.500000
vt 0.639617 0.555000
vt 0.639617 0.500000
vt 0.140000 0.555000
vt 0.140000 0.500000
vt 0.852950 0.500000
vt 0.819897 0.555000
vt 0.125000 0.555000
vt 0.125000 0.500000
vt 0.860000 0.500000
vt 0.852950 0.555000
vt 0.860000 0.555000
vt 0.360383 0.555000
vt 0.360383 0.500000
vt 0.625000 0.500000
vt 0.375000 0.555000
vt 0.375000 0.055575
vt 0.625000 0.000000
vt 0.375000 0.000000
vt 0.180103 0.555000
vt 0.625000 0.055575
vt 0.625000 0.555000
vt 0.625000 0.750000
vt 0.180103 0.750000
vt 0.625000 0.305103
vt 0.875000 0.694425
vt 0.875000 0.500000
vt 0.875000 0.555000
vt 0.625000 1.000000
vt 0.875000 0.750000
s 0
f 62/65/26 43/66/26 61/67/26
f 81/68/27 47/69/27 83/70/27
f 72/71/28 45/72/28 80/73/28
f 52/74/29 41/75/29 51/76/29
f 80/73/30 82/77/30 88/78/30
f 73/79/28 95/80/28 52/80/28
f 73/79/31 56/81/31 75/82/31
f 74/83/30 41/84/30 71/85/30
f 56/86/29 51/76/29 54/87/29
f 44/88/27 49/89/27 43/66/27
f 60/90/29 54/87/29 58/91/29
f 75/82/31 60/92/31 77/93/31
f 76/94/30 51/95/30 74/83/30
f 50/96/27 55/97/27 49/89/27
f 77/93/31 84/98/31 87/99/31
f 84/100/29 58/91/29 82/101/29
f 78/102/30 54/103/30 76/94/30
f 53/104/27 59/105/27 55/97/27
f 59/106/30 68/107/30 55/108/30
f 57/109/31 85/110/31 81/111/31
f 55/108/30 66/112/30 49/113/30
f 53/114/31 69/115/31 57/109/31
f 49/113/30 61/116/30 43/117/30
f 50/118/31 67/119/31 53/114/31
f 50/118/28 100/120/28 65/120/28
f 47/69/30 86/121/30 83/122/30
f 48/123/28 63/124/28 47/69/28
f 71/125/26 62/65/26 61/67/26
f 42/126/26 71/125/26 41/127/26
f 70/128/30 76/94/30 68/107/30
f 69/115/31 87/99/31 85/110/31
f 68/107/30 74/83/30 66/112/30
f 69/115/28 92/93/28 77/93/28
f 66/112/30 71/85/30 61/116/30
f 65/120/31 75/82/31 67/119/31
f 42/126/26 99/129/26 79/129/26
f 63/124/30 88/78/30 86/121/30
f 64/130/28 80/73/28 63/124/28
f 86/121/30 78/102/30 70/128/30
f 85/110/26 101/111/26 81/111/26
f 83/122/30 70/128/30 59/106/30
f 84/98/26 107/99/26 87/99/26
f 46/131/29 82/101/29 45/72/29
f 81/68/27 102/123/27 48/123/27
f 88/78/30 58/132/30 78/102/30
f 57/133/27 83/70/27 59/105/27
f 89/119/31 92/93/31 90/115/31
f 67/119/27 90/115/27 69/115/27
f 75/82/26 89/119/26 67/119/26
f 77/93/29 91/82/29 75/82/29
f 99/134/31 95/80/31 98/79/31
f 94/135/31 100/120/31 97/118/31
f 93/136/31 98/79/31 100/120/31
f 65/120/28 98/79/28 73/79/28
f 79/129/26 93/65/26 62/65/26
f 62/65/26 94/88/26 44/88/26
f 44/88/27 97/96/27 50/96/27
f 52/74/29 96/137/29 42/137/29
f 106/110/31 103/71/31 105/130/31
f 101/111/31 105/130/31 102/123/31
f 107/99/31 104/131/31 103/71/31
f 87/99/26 106/110/26 85/110/26
f 72/71/28 104/131/28 46/131/28
f 48/123/28 105/130/28 64/130/28
f 46/131/29 108/100/29 84/100/29
f 64/130/28 103/71/28 72/71/28
f 62/65/26 44/88/26 43/66/26
f 81/68/27 48/123/27 47/69/27
f 72/71/28 46/131/28 45/72/28
f 52/74/29 42/137/29 41/75/29
f 80/73/30 45/72/30 82/77/30
f 73/79/28 98/79/28 95/80/28
f 73/79/31 52/80/31 56/81/31
f 74/83/30 51/95/30 41/84/30
f 56/86/29 52/74/29 51/76/29
f 44/88/27 50/96/27 49/89/27
f 60/90/29 56/86/29 54/87/29
f 75/82/31 56/81/31 60/92/31
f 76/94/30 54/103/30 51/95/30
f 50/96/27 53/104/27 55/97/27
f 77/93/31 60/92/31 84/98/31
f 84/100/29 60/90/29 58/91/29
f 78/102/30 58/132/30 54/103/30
f 53/104/27 57/133/27 59/105/27
f 59/106/30 70/128/30 68/107/30
f 57/109/31 69/115/31 85/110/31
f 55/108/30 68/107/30 66/112/30
f 53/114/31 67/119/31 69/115/31
f 49/113/30 66/112/30 61/116/30
f 50/118/31 65/120/31 67/119/31
f 50/118/28 97/118/28 100/120/28
f 47/69/30 63/124/30 86/121/30
f 48/123/28 64/130/28 63/124/28
f 71/125/26 79/129/26 62/65/26
f 42/126/26 79/129/26 71/125/26
f 70/128/30 78/102/30 76/94/30
f 69/115/31 77/93/31 87/99/31
f 68/107/30 76/94/30 74/83/30
f 69/115/28 90/115/28 92/93/28
f 66/112/30 74/83/30 71/85/30
f 65/120/31 73/79/31 75/82/31
f 42/126/26 96/126/26 99/129/26
f 63/124/30 80/73/30 88/78/30
f 64/130/28 72/71/28 80/73/28
f 86/121/30 88/78/30 78/102/30
f 85/110/26 106/110/26 101/111/26
f 83/122/30 86/121/30 70/128/30
f 84/98/26 108/98/26 107/99/26
f 46/131/29 84/100/29 82/101/29
f 81/68/27 101/68/27 102/123/27
f 88/78/30 82/77/30 58/132/30
f 57/133/27 81/68/27 83/70/27
f 89/119/31 91/82/31 92/93/31
f 67/119/27 89/119/27 90/115/27
f 75/82/26 91/82/26 89/119/26
f 77/93/29 92/93/29 91/82/29
f 99/134/31 96/138/31 95/80/31
f 94/135/31 93/136/31 100/120/31
f 93/136/31 99/134/31 98/79/31
f 65/120/28 100/120/28 98/79/28
f 79/129/26 99/129/26 93/65/26
f 62/65/26 93/65/26 94/88/26
f 44/88/27 94/88/27 97/96/27
f 52/74/29 95/74/29 96/137/29
f 106/110/31 107/99/31 103/71/31
f 101/111/31 106/110/31 105/130/31
f 107/99/31 108/98/31 104/131/31
f 87/99/26 107/99/26 106/110/26
f 72/71/28 103/71/28 104/131/28
f 48/123/28 102/123/28 105/130/28
f 46/131/29 104/131/29 108/100/29
f 64/130/28 105/130/28 103/71/28
