# Blender 4.1.0
# www.blender.org
o Wall
v -88.000000 0.000000 -50.000000
v 46.000000 0.000000 -50.000000
v -88.000000 45.000000 -50.000000
v 46.000000 45.000000 -50.000000
vn -0.0000 -0.0000 1.0000
vt 1.000000 0.000000
vt 0.000000 1.000000
vt 0.000000 0.000000
vt 1.000000 1.000000
s 0
f 2/1/1 3/2/1 1/3/1
f 2/1/1 4/4/1 3/2/1
o Wall.001
v -88.000000 0.000000 50.000000
v 46.000000 0.000000 50.000000
v -88.000000 45.000000 50.000000
v 46.000000 45.000000 50.000000
vn -0.0000 -0.0000 -1.0000
vt 0.000000 1.000000
vt 1.000000 0.000000
vt 0.000000 0.000000
vt 1.000000 1.000000
s 0
f 7/5/2 6/6/2 5/7/2
f 7/5/2 8/8/2 6/6/2
o Wall.002
v 46.000004 0.000000 50.000000
v 45.999996 0.000000 -50.000000
v 46.000004 45.000000 50.000000
v 45.999996 45.000000 -50.000000
vn -1.0000 -0.0000 -0.0000
vt 0.000000 1.000000
vt 1.000000 0.000000
vt 0.000000 0.000000
vt 1.000000 1.000000
s 0
f 11/9/3 10/10/3 9/11/3
f 11/9/3 12/12/3 10/10/3
o Wall.003
v -86.300003 45.000000 50.000000
v -86.300003 0.000000 50.000000
v -86.300003 45.000000 -50.000000
v -86.300003 0.000000 -50.000000
vn 1.0000 -0.0000 -0.0000
vt 0.000000 0.000000
vt 1.000000 0.000000
vt 1.000000 1.000000
vt 0.000000 1.000000
s 0
f 13/13/4 14/14/4 16/15/4 15/16/4
